<svg xmlns="http://www.w3.org/2000/svg" height="1200" width="1600" version="1.1" xmlns:xlink="http://www.w3.org/1999/xlink" xmlns:svgjs="http://svgjs.com/svgjs"><rect fill="#effaff" width="1600" height="1200"></rect><g><path d="M1352.7 480.2C1344.4 382.9 1305.8 240.5 1201.8 209 893.2 131.7 438.2 330.5 356.7 400.2 286.1 460.6 239.5 555.2 247.9 651.7 254.8 782.5 363.2 883.5 490.9 893.7 699 954.9 908.7 957.2 1096.5 838.3 1249.7 752.4 1359.2 674.2 1352.7 480.2Z" fill="#deeff7" opacity="1" stroke-width="2" stroke="none"></path></g><g><path d="M1224.1 865.54H1215.33L1195.66 869.89 1175.98 865.54H1167.22C1163 865.54 1159.39 868.49 1158.59 872.57L1154.84 890.64 1195.66 908.37 1236.47 890.64 1232.73 872.57C1231.92 868.49 1228.31 865.54 1224.1 865.54Z" fill="#3d84a8" stroke="#333333" stroke-width="2" stroke-linecap="round" stroke-linejoin="round" opacity="1"></path><path d="M1234.87 917L1230.59 985.19C1230.25 990.81 1225.63 995.16 1220.01 995.16H1171.37C1165.75 995.16 1161.13 990.81 1160.79 985.19L1154.91 890.57H1236.54L1235.4 908.97" fill="#3d84a8" opacity="1" stroke-width="2" stroke="none"></path><path d="M1234.87 917L1230.59 985.19C1230.25 990.81 1225.63 995.16 1220.01 995.16H1171.37C1165.75 995.16 1161.13 990.81 1160.79 985.19L1154.91 890.57H1236.54L1235.4 908.97" stroke="#333333" stroke-width="2" stroke-linecap="round" stroke-linejoin="round" opacity="1" fill="none"></path><path d="M1149.55 890.64H1241.9" stroke="#333333" stroke-width="2" stroke-linecap="round" stroke-linejoin="round" opacity="1" fill="none"></path><path d="M1215.33 865.54H1176.05V876.45H1215.33V865.54Z" fill="#78c7e0" stroke="#333333" stroke-width="2" stroke-linecap="round" stroke-linejoin="round" opacity="1"></path></g><g><path d="M1143.5 806.18V995.08" stroke="#333333" stroke-width="2" stroke-linecap="round" stroke-linejoin="round" opacity="1" fill="none"></path><path d="M550.2 806.18V995.08" stroke="#333333" stroke-width="2" stroke-linecap="round" stroke-linejoin="round" opacity="1" fill="none"></path><path d="M1166 780.1H527.6V806.18H1166V780.1Z" fill="#78c7e0" stroke="#333333" stroke-width="2" stroke-linecap="round" stroke-linejoin="round" opacity="1"></path></g><g><path d="M956 779.8H828.2C828.2 766 839.3 754.9 853.1 754.9H931.1C944.9 754.9 956 766 956 779.8Z" fill="#abedd8" stroke="#333333" stroke-width="2" stroke-linecap="round" stroke-linejoin="round" opacity="1"></path><path d="M800.1 482.8H1065V670.5H719.3V482.8H761.6" fill="#abedd8" opacity="1" stroke-width="2" stroke="none"></path><path d="M800.1 482.8H1065V670.5H719.3V482.8H761.6" stroke="#333333" stroke-width="2" stroke-linecap="round" stroke-linejoin="round" opacity="1" fill="none"></path><path d="M892 670.5V754.9" stroke="#333333" stroke-width="2" stroke-linecap="round" stroke-linejoin="round" opacity="1" fill="none"></path><path d="M1039.9 656C1043.66 656 1046.7 652.96 1046.7 649.2 1046.7 645.45 1043.66 642.4 1039.9 642.4 1036.14 642.4 1033.1 645.45 1033.1 649.2 1033.1 652.96 1036.14 656 1039.9 656Z" fill="#46cdcf" stroke="#333333" stroke-width="2" stroke-linecap="round" stroke-linejoin="round" opacity="1"></path></g><g><path d="M377.31 977.74H331.75C322.31 977.74 314.66 985.4 314.66 994.71H394.03C394.28 985.4 386.63 977.74 377.31 977.74Z" fill="#3d84a8" stroke="#333333" stroke-width="2" stroke-linecap="round" stroke-linejoin="round" opacity="1"></path><path d="M354.47 977.74V599.51" stroke="#333333" stroke-width="2" stroke-linecap="round" stroke-linejoin="round" opacity="1" fill="none"></path><path d="M396.07 543.62L403.09 599.51H306.11L319.25 510.57H389.69L393.9 532.01" fill="#78c7e0" opacity="1" stroke-width="2" stroke="none"></path><path d="M396.07 543.62L403.09 599.51H306.11L319.25 510.57H389.69L393.9 532.01" stroke="#333333" stroke-width="2" stroke-linecap="round" stroke-linejoin="round" opacity="1" fill="none"></path><path d="M332.9 599.51V642.01" stroke="#333333" stroke-width="2" stroke-linecap="round" stroke-linejoin="round" opacity="1" fill="none"></path></g><g><path d="M971.7 176.41H1043.61V342.62H791.39V307.9 251.5 176.41H862.07" fill="#46cdcf" opacity="1" stroke-width="2" stroke="none"></path><path d="M971.7 176.41H1043.61V342.62H791.39V307.9 251.5 176.41H862.07" stroke="#333333" stroke-width="2" stroke-linecap="round" stroke-linejoin="round" opacity="1" fill="none"></path><path d="M890.09 407.49C905.25 407.49 917.59 395.15 917.59 379.99V342.98" stroke="#333333" stroke-width="2" stroke-linecap="round" stroke-linejoin="round" opacity="1" fill="none"></path></g><g><path d="M458.55 497.86C482.04 497.86 501.08 478.82 501.08 455.33 501.08 431.84 482.04 412.8 458.55 412.8 435.06 412.8 416.02 431.84 416.02 455.33 416.02 478.82 435.06 497.86 458.55 497.86Z" fill="#3d84a8" stroke="#333333" stroke-width="2" stroke-linecap="round" stroke-linejoin="round" opacity="1"></path><path d="M458.55 497.86V514.08C458.55 522.88 465.67 530.1 474.57 530.1" stroke="#333333" stroke-width="2" stroke-linecap="round" stroke-linejoin="round" opacity="1" fill="none"></path><path d="M458.55 462.75V428.92" stroke="#333333" stroke-width="2" stroke-linecap="round" stroke-linejoin="round" opacity="1" fill="none"></path><path d="M458.55 470.76V481.64" stroke="#333333" stroke-width="2" stroke-linecap="round" stroke-linejoin="round" opacity="1" fill="none"></path></g><g><path d="M1064.13 740.87V780.13H1024.87L1064.13 740.87Z" fill="#ffffff" stroke="#333333" stroke-width="2" stroke-linecap="round" stroke-linejoin="round" opacity="1"></path><path d="M1133.87 678.27H1099.03V780.13H1133.87V678.27Z" fill="#3d84a8" stroke="#333333" stroke-width="2" stroke-linecap="round" stroke-linejoin="round" opacity="1"></path><path d="M1123.19 727.52H1109.47V702.89C1109.47 699.06 1112.55 695.98 1116.37 695.98 1120.2 695.98 1123.28 699.06 1123.28 702.89V727.52H1123.19Z" fill="#46cdcf" stroke="#333333" stroke-width="2" stroke-linecap="round" stroke-linejoin="round" opacity="1"></path><path d="M1098.96 678.27H1064.13V780.13H1098.96V678.27Z" fill="#3d84a8" stroke="#333333" stroke-width="2" stroke-linecap="round" stroke-linejoin="round" opacity="1"></path><path d="M1074.64 717.15V702.81C1074.64 698.99 1077.72 695.91 1081.54 695.91 1085.37 695.91 1088.45 698.99 1088.45 702.81V727.36H1074.56V722.41" fill="#46cdcf" opacity="1" stroke-width="2" stroke="none"></path><path d="M1074.64 717.15V702.81C1074.64 698.99 1077.72 695.91 1081.54 695.91 1085.37 695.91 1088.45 698.99 1088.45 702.81V727.36H1074.56V722.41" stroke="#333333" stroke-width="2" stroke-linecap="round" stroke-linejoin="round" opacity="1" fill="none"></path></g><g><path d="M840.45 482.45H837.78C795.75 482.45 761.91 516.47 761.91 558.33V645.6C761.91 659.49 772.95 670.53 786.84 670.53H1004.13C1018.2 670.53 1029.6 659.13 1029.6 645.24V557.79C1029.6 516.11 995.76 482.28 954.08 482.28H950.88" fill="#ffffff" opacity="1" stroke-width="2" stroke="none"></path><path d="M840.45 482.45H837.78C795.75 482.45 761.91 516.47 761.91 558.33V645.6C761.91 659.49 772.95 670.53 786.84 670.53H1004.13C1018.2 670.53 1029.6 659.13 1029.6 645.24V557.79C1029.6 516.11 995.76 482.28 954.08 482.28H950.88" stroke="#333333" stroke-width="2" stroke-linecap="round" stroke-linejoin="round" opacity="1" fill="none"></path><path d="M814.63 543.54V614.43H976.88V543.54" stroke="#333333" stroke-width="2" stroke-linecap="round" stroke-linejoin="round" opacity="1" fill="none"></path><path d="M937.16 491L939.48 471.77 893.88 466.25 848.64 471.23 852.74 490.82C852.74 497.77 848.29 503.65 842.05 505.78 848.47 529.65 870.37 546.93 896.02 546.93 921.67 546.93 943.22 529.83 949.81 506.14 942.51 504.89 937.16 498.48 937.16 491Z" fill="#ffffff" stroke="#333333" stroke-width="2" stroke-linecap="round" stroke-linejoin="round" opacity="1"></path><path d="M949.1 474.26C932.35 422.61 859.15 422.61 842.59 474.26 839.21 484.23 839.03 495.81 841.88 505.78 848.11 503.65 852.56 497.77 852.56 490.82V474.08H937.16V490.82C937.16 498.3 942.51 504.89 949.63 506.5 952.48 496.17 952.3 484.23 949.1 474.26Z" fill="#48466d" stroke="#333333" stroke-width="2" stroke-linecap="round" stroke-linejoin="round" opacity="1"></path><path d="M884.27 492.78V516.83" stroke="#333333" stroke-width="2" stroke-linecap="round" stroke-linejoin="round" opacity="1" fill="none"></path><path d="M899.4 516.83C899.4 521.1 896.02 524.31 891.75 524.31 887.47 524.31 884.27 520.92 884.27 516.83" stroke="#333333" stroke-width="2" stroke-linecap="round" stroke-linejoin="round" opacity="1" fill="none"></path><path d="M891.75 614.43V670.53" stroke="#333333" stroke-width="2" stroke-linecap="round" stroke-linejoin="round" opacity="1" fill="none"></path></g><g><path d="M622.05 649.92H450.85L526.38 846.78H697.48L622.05 649.92Z" fill="#46cdcf" stroke="#333333" stroke-width="2" stroke-linecap="round" stroke-linejoin="round" opacity="1"></path><path d="M522.75 836.77H715.74C721.24 836.77 725.7 841.25 725.7 846.78 725.7 852.31 721.24 856.79 715.74 856.79H522.75V836.77Z" fill="#46cdcf" stroke="#333333" stroke-width="2" stroke-linecap="round" stroke-linejoin="round" opacity="1"></path><path d="M546.72 856.89L524.62 995.57" stroke="#333333" stroke-width="2" stroke-linecap="round" stroke-linejoin="round" opacity="1" fill="none"></path><path d="M701.84 856.89L723.94 995.57" stroke="#333333" stroke-width="2" stroke-linecap="round" stroke-linejoin="round" opacity="1" fill="none"></path></g><g><path d="M518.1 651.48H675.95V761.14L518.1 761.14V651.48Z" fill="#ffffff" stroke="#333333" stroke-width="2" stroke-linecap="round" stroke-linejoin="round" opacity="1"></path><path d="M600.12 745.96H701.72L717.96 745.96C756.5 745.96 787.71 777.17 787.71 815.72V831.95 995.04H701.72V835.62H600.12V745.96Z" fill="#48466d" stroke="#333333" stroke-width="2" stroke-linecap="round" stroke-linejoin="round" opacity="1"></path><path d="M518.1 745.96H619.71 635.1C669.14 745.96 697.95 771.2 702.45 805.03L727.49 995.04H641.49L619.71 835.51 581.06 835.51C546.28 835.51 518.1 803.67 518.1 768.9V745.96Z" fill="#48466d" stroke="#333333" stroke-width="2" stroke-linecap="round" stroke-linejoin="round" opacity="1"></path><path d="M648.51 557.52H584.62C552.15 557.52 524.28 580.78 518.52 612.83L504.7 689.81C500.3 714.32 513.39 738.73 536.22 748.68L663.28 803.98 688.21 745.64V726.79C699.31 737.89 716.49 740.09 730 732.03L822.38 676.62 790.23 617.86 711.88 664.68 691.77 590.52C686.43 571.03 668.73 557.52 648.51 557.52Z" fill="#ffffff" stroke="#333333" stroke-width="2" stroke-linecap="round" stroke-linejoin="round" opacity="1"></path><path d="M653.75 521.81C653.75 521.81 618.66 498.45 587.44 524.42 580.95 529.77 567.96 546.42 576.34 569.46 585.35 584.86 602.84 594.18 621.7 591.67 654.69 587.27 671.97 549.77 653.75 521.81Z" fill="#ffffff" stroke="#333333" stroke-width="2" stroke-linecap="round" stroke-linejoin="round" opacity="1"></path><path d="M638.66 542.02L640.34 554.8" stroke="#333333" stroke-width="2" stroke-linecap="round" stroke-linejoin="round" opacity="1" fill="none"></path><path d="M628.29 556.37C628.71 559.72 631.86 562.03 635.1 561.61 638.45 561.19 640.76 558.05 640.34 554.8" stroke="#333333" stroke-width="2" stroke-linecap="round" stroke-linejoin="round" opacity="1" fill="none"></path><path d="M609.65 501.49C584.83 504.73 567.23 527.57 570.58 552.6 571.31 558.36 573.2 564.12 576.34 569.46 587.34 568 595.09 557.94 593.62 546.94L591.42 530.08 653.85 521.81C644.43 507.56 627.56 499.08 609.65 501.49Z" fill="#48466d" stroke="#333333" stroke-width="2" stroke-linecap="round" stroke-linejoin="round" opacity="1"></path><path d="M688.21 745.75L566.71 693.79" stroke="#333333" stroke-width="2" stroke-linecap="round" stroke-linejoin="round" opacity="1" fill="none"></path><path d="M566.71 693.79C582 693.79 594.36 681.43 594.36 666.14" stroke="#333333" stroke-width="2" stroke-linecap="round" stroke-linejoin="round" opacity="1" fill="none"></path><path d="M688.21 662.27V651.48" stroke="#333333" stroke-width="2" stroke-linecap="round" stroke-linejoin="round" opacity="1" fill="none"></path><path d="M688.21 726.79V671.07" stroke="#333333" stroke-width="2" stroke-linecap="round" stroke-linejoin="round" opacity="1" fill="none"></path></g><g><path d="M462.19 995.35L137.96 995.35" stroke="#333333" stroke-width="2" stroke-linecap="round" stroke-linejoin="round" opacity="1" fill="none"></path><path d="M1462.04 995.35L532.19 995.35" stroke="#333333" stroke-width="2" stroke-linecap="round" stroke-linejoin="round" opacity="1" fill="none"></path></g><g><path d="M971.81 270.53C976.68 240.53 956.31 212.27 926.3 207.39 896.32 202.53 868.06 222.89 863.18 252.9 858.32 282.89 878.68 311.16 908.69 316.02 938.68 320.89 966.95 300.52 971.81 270.53Z" fill="#abedd8" stroke="#333333" stroke-width="2" stroke-linecap="round" stroke-linejoin="round" opacity="1"></path><path d="M917.47 261.62C910.79 264.21 903.19 260.71 900.75 253.72 898.17 246.73 901.67 239.43 908.66 237 915.35 234.42 922.95 237.91 925.38 244.9" stroke="#333333" stroke-width="2" stroke-linecap="round" stroke-linejoin="round" opacity="1" fill="none"></path><path d="M917.47 261.62C924.16 259.04 931.76 262.53 934.19 269.53 936.78 276.21 933.28 283.81 926.29 286.25 919.6 288.83 912 285.33 909.57 278.34" stroke="#333333" stroke-width="2" stroke-linecap="round" stroke-linejoin="round" opacity="1" fill="none"></path><path d="M908.66 237L929.94 295.52" stroke="#333333" stroke-width="2" stroke-linecap="round" stroke-linejoin="round" opacity="1" fill="none"></path><path d="M905.16 227.88L908.66 237" stroke="#333333" stroke-width="2" stroke-linecap="round" stroke-linejoin="round" opacity="1" fill="none"></path></g></svg>