<svg width="19" height="19" viewBox="0 0 19 19" fill="none" xmlns="http://www.w3.org/2000/svg">
<g id="akar-icons:instagram-fill" clip-path="url(#clip0_2_1858)">
<g id="Group">
<path id="Vector" fill-rule="evenodd" clip-rule="evenodd" d="M5.90987 0.843998C6.8385 0.801248 7.13458 0.791748 9.50008 0.791748C11.8656 0.791748 12.1617 0.80204 13.0895 0.843998C14.0173 0.885956 14.6507 1.034 15.2048 1.24854C15.7851 1.46783 16.3116 1.81062 16.747 2.25396C17.1903 2.68858 17.5323 3.21425 17.7508 3.79533C17.9662 4.3495 18.1134 4.98283 18.1562 5.90908C18.1989 6.83929 18.2084 7.13537 18.2084 9.50008C18.2084 11.8656 18.1981 12.1617 18.1562 13.0903C18.1142 14.0165 17.9662 14.6499 17.7508 15.204C17.5323 15.7852 17.1898 16.3117 16.747 16.747C16.3116 17.1903 15.7851 17.5323 15.2048 17.7508C14.6507 17.9662 14.0173 18.1134 13.0911 18.1562C12.1617 18.1989 11.8656 18.2084 9.50008 18.2084C7.13458 18.2084 6.8385 18.1981 5.90987 18.1562C4.98362 18.1142 4.35029 17.9662 3.79612 17.7508C3.21498 17.5323 2.68844 17.1897 2.25316 16.747C1.81013 16.3121 1.46729 15.7858 1.24854 15.2048C1.034 14.6507 0.886748 14.0173 0.843998 13.0911C0.801248 12.1609 0.791748 11.8648 0.791748 9.50008C0.791748 7.13458 0.80204 6.8385 0.843998 5.91066C0.885956 4.98283 1.034 4.3495 1.24854 3.79533C1.46761 3.21431 1.81072 2.68804 2.25396 2.25316C2.68861 1.81023 3.21462 1.46739 3.79533 1.24854C4.3495 1.034 4.98283 0.886748 5.90908 0.843998H5.90987ZM13.019 2.4115C12.1007 2.36954 11.8252 2.36083 9.50008 2.36083C7.17496 2.36083 6.89946 2.36954 5.98112 2.4115C5.13166 2.45029 4.67091 2.592 4.36375 2.71154C3.95762 2.86987 3.66708 3.0575 3.36229 3.36229C3.07337 3.64337 2.85102 3.98555 2.71154 4.36375C2.592 4.67091 2.45029 5.13166 2.4115 5.98112C2.36954 6.89946 2.36083 7.17496 2.36083 9.50008C2.36083 11.8252 2.36954 12.1007 2.4115 13.019C2.45029 13.8685 2.592 14.3292 2.71154 14.6364C2.85087 15.014 3.07333 15.3568 3.36229 15.6379C3.64333 15.9268 3.98612 16.1493 4.36375 16.2886C4.67091 16.4082 5.13166 16.5499 5.98112 16.5887C6.89946 16.6306 7.17416 16.6393 9.50008 16.6393C11.826 16.6393 12.1007 16.6306 13.019 16.5887C13.8685 16.5499 14.3292 16.4082 14.6364 16.2886C15.0425 16.1303 15.3331 15.9427 15.6379 15.6379C15.9268 15.3568 16.1493 15.014 16.2886 14.6364C16.4082 14.3292 16.5499 13.8685 16.5887 13.019C16.6306 12.1007 16.6393 11.8252 16.6393 9.50008C16.6393 7.17496 16.6306 6.89946 16.5887 5.98112C16.5499 5.13166 16.4082 4.67091 16.2886 4.36375C16.1303 3.95762 15.9427 3.66708 15.6379 3.36229C15.3568 3.07339 15.0146 2.85104 14.6364 2.71154C14.3292 2.592 13.8685 2.45029 13.019 2.4115ZM8.38779 12.1846C9.00898 12.4432 9.70067 12.4781 10.3447 12.2834C10.9888 12.0886 11.5453 11.6763 11.9191 11.1169C12.2929 10.5574 12.461 9.88552 12.3945 9.21596C12.3279 8.54639 12.031 7.92068 11.5545 7.44571C11.2506 7.14208 10.8833 6.9096 10.4788 6.76499C10.0744 6.62038 9.64292 6.56724 9.21547 6.6094C8.78803 6.65156 8.37524 6.78797 8.00684 7.00881C7.63844 7.22965 7.32359 7.52942 7.08495 7.88655C6.8463 8.24367 6.68981 8.64927 6.62674 9.07413C6.56366 9.499 6.59558 9.93256 6.72017 10.3436C6.84477 10.7547 7.05896 11.133 7.34732 11.4513C7.63567 11.7697 7.99103 12.0201 8.38779 12.1846ZM6.335 6.335C6.75064 5.91935 7.24408 5.58965 7.78715 5.3647C8.33022 5.13976 8.91227 5.02398 9.50008 5.02398C10.0879 5.02398 10.6699 5.13975 11.213 5.3647C11.7561 5.58965 12.2495 5.91935 12.6652 6.335C13.0808 6.75064 13.4105 7.24408 13.6355 7.78715C13.8604 8.33022 13.9762 8.91227 13.9762 9.50008C13.9762 10.0879 13.8604 10.6699 13.6355 11.213C13.4105 11.7561 13.0808 12.2495 12.6652 12.6652C11.8257 13.5046 10.6872 13.9762 9.50008 13.9762C8.31294 13.9762 7.17443 13.5046 6.335 12.6652C5.49557 11.8257 5.02398 10.6872 5.02398 9.50008C5.02398 8.31294 5.49557 7.17443 6.335 6.335ZM14.9689 5.69058C15.0719 5.59342 15.1544 5.47658 15.2114 5.34698C15.2684 5.21738 15.2989 5.07765 15.301 4.93607C15.303 4.79449 15.2767 4.65393 15.2234 4.52272C15.1702 4.39151 15.0912 4.27232 14.991 4.1722C14.8909 4.07207 14.7717 3.99306 14.6405 3.93982C14.5093 3.88659 14.3688 3.86023 14.2272 3.86229C14.0856 3.86436 13.9459 3.89481 13.8163 3.95184C13.6867 4.00887 13.5698 4.09133 13.4727 4.19433C13.2837 4.39465 13.1802 4.66072 13.1843 4.93607C13.1883 5.21142 13.2994 5.47436 13.4942 5.66908C13.6889 5.8638 13.9518 5.97497 14.2272 5.97898C14.5025 5.983 14.7686 5.87954 14.9689 5.69058Z" fill="#F79E0E"/>
</g>
</g>
<defs>
<clipPath id="clip0_2_1858">
<rect width="19" height="19" fill="white"/>
</clipPath>
</defs>
</svg>
