<svg width="1440" height="724" viewBox="0 0 1440 724" fill="none" xmlns="http://www.w3.org/2000/svg">
<rect width="1440" height="724" fill="#0F124D"/>
<circle cx="94.5" cy="110.5" r="2.5" fill="white" fill-opacity="0.9"/>
<circle opacity="0.3" cx="240.5" cy="18.5" r="2.5" fill="white" fill-opacity="0.5"/>
<circle cx="382.5" cy="146.5" r="2.5" fill="white" fill-opacity="0.9"/>
<circle cx="504.5" cy="109.5" r="2.5" fill="white" fill-opacity="0.5"/>
<circle cx="670.5" cy="182.5" r="2.5" fill="white" fill-opacity="0.9"/>
<circle cx="792.5" cy="145.5" r="2.5" fill="white" fill-opacity="0.5"/>
<circle opacity="0.3" cx="816.5" cy="90.5" r="2.5" fill="white" fill-opacity="0.5"/>
<circle cx="1135.5" cy="380.5" r="2.5" fill="white" fill-opacity="0.9"/>
<circle cx="1257.5" cy="343.5" r="2.5" fill="white" fill-opacity="0.5"/>
<circle opacity="0.3" cx="1281.5" cy="288.5" r="2.5" fill="white" fill-opacity="0.5"/>
<circle cx="543.5" cy="288.5" r="2.5" fill="white" fill-opacity="0.5"/>
<circle opacity="0.3" cx="567.5" cy="233.5" r="2.5" fill="white" fill-opacity="0.5"/>
<circle cx="392.5" cy="718.5" r="2.5" fill="white" fill-opacity="0.9"/>
<circle cx="514.5" cy="681.5" r="2.5" fill="white" fill-opacity="0.5"/>
<circle opacity="0.3" cx="538.5" cy="626.5" r="2.5" fill="white" fill-opacity="0.5"/>
<circle cx="1236.5" cy="583.5" r="2.5" fill="white" fill-opacity="0.9"/>
<circle cx="1358.5" cy="546.5" r="2.5" fill="white" fill-opacity="0.5"/>
<circle opacity="0.3" cx="1382.5" cy="491.5" r="2.5" fill="white" fill-opacity="0.5"/>
<circle cx="1246.5" cy="254.5" r="2.5" fill="white" fill-opacity="0.9"/>
<circle cx="1368.5" cy="217.5" r="2.5" fill="white" fill-opacity="0.5"/>
<circle opacity="0.3" cx="1392.5" cy="162.5" r="2.5" fill="white" fill-opacity="0.5"/>
<circle cx="615.5" cy="464.5" r="2.5" fill="white" fill-opacity="0.9"/>
<circle cx="737.5" cy="427.5" r="2.5" fill="white" fill-opacity="0.5"/>
<circle opacity="0.3" cx="761.5" cy="372.5" r="2.5" fill="white" fill-opacity="0.5"/>
<circle cx="853.5" cy="583.5" r="2.5" fill="white" fill-opacity="0.9"/>
<circle cx="975.5" cy="546.5" r="2.5" fill="white" fill-opacity="0.5"/>
<circle opacity="0.3" cx="999.5" cy="491.5" r="2.5" fill="white" fill-opacity="0.5"/>
<circle cx="898.5" cy="385.5" r="2.5" fill="white" fill-opacity="0.9"/>
<circle cx="1020.5" cy="348.5" r="2.5" fill="white" fill-opacity="0.5"/>
<circle opacity="0.3" cx="1044.5" cy="293.5" r="2.5" fill="white" fill-opacity="0.5"/>
<circle cx="943.5" cy="187.5" r="2.5" fill="white" fill-opacity="0.9"/>
<circle cx="1065.5" cy="150.5" r="2.5" fill="white" fill-opacity="0.5"/>
<circle opacity="0.3" cx="1089.5" cy="95.5" r="2.5" fill="white" fill-opacity="0.5"/>
</svg>
