<svg width="612" height="368" viewBox="0 0 612 368" fill="none" xmlns="http://www.w3.org/2000/svg">
<path d="M525.227 367.77L310.975 366.468H312.392C312.824 366.468 313.253 366.453 313.677 366.426H430.259C434.634 366.426 438.181 362.879 438.181 358.503V158.312C438.181 153.935 434.634 150.389 430.259 150.389H331.943V87.0287H417.349C421.776 87.0287 425.363 83.43 425.363 78.9905V68.4345C438.459 65.0635 451.72 62.2714 463.005 62.2714C468.872 62.2714 474.207 63.0263 478.708 64.8482C504.754 75.3894 494.343 107.481 506.942 120.412C516.056 129.763 525.235 132.45 534.682 132.45C541.069 132.45 547.58 131.224 554.279 129.995C560.976 128.767 567.862 127.539 574.999 127.539C583.643 127.539 592.657 129.342 602.152 135.125C638.925 157.526 563.64 366.602 525.227 367.77ZM101.144 365.192L87.0909 365.108L55.6498 362.282C55.6498 362.282 -31.3232 314.723 30.8925 270.851C72.9584 241.185 42.6898 219.642 38.1151 206.062C32.9551 190.748 21.0415 164.2 71.2299 144.323C72.2231 145.599 73.4407 146.695 74.0163 149.479C74.7442 152.999 75.8324 165.737 79.5628 172.09C83.2925 178.445 91.4952 192.511 91.4952 192.511L99.8257 189.023C99.8257 189.023 89.7888 170.973 87.3472 167.134C84.9055 163.299 78.5451 148.05 78.3174 147.45C78.1545 147.018 80.4709 143.197 81.4215 140.971H147.866V334.288C137.646 337.559 108.602 359.484 101.144 365.192ZM78.5917 142.746C78.5295 142.746 78.4673 142.733 78.405 142.706C78.2233 142.624 77.9825 142.29 77.7058 141.788C78.3469 141.518 78.9757 141.247 79.5956 140.971H80.1606C80.1425 141 80.1253 141.032 80.1073 141.061C79.6046 141.904 79.0945 142.746 78.5917 142.746ZM147.866 63.5905H111.017C108.277 45.7267 108.127 5.26325 187.333 0.666504C195.08 0.217801 202.861 0 210.602 0C253.212 0 294.755 6.62573 324.202 17.899H289.234C284.809 17.899 281.22 21.5001 281.22 25.9396V29.9329H167.414C167.077 29.9329 166.742 29.9411 166.409 29.9575C165.742 29.991 165.085 30.0582 164.437 30.1589C164.114 30.2072 163.793 30.2661 163.475 30.3308C155.203 32.029 148.834 38.9708 147.966 47.542C147.899 48.2028 147.866 48.8709 147.866 49.5481V63.5905Z" fill="#F5F9FE"/>
<path d="M80.8385 272.61C70.7599 257.587 68.3199 239.094 68.048 226.226C67.7525 212.258 69.8756 201.715 69.8969 201.61L69.1993 201.385C69.1772 201.49 67.036 212.111 67.3316 226.172C67.6051 239.166 70.0721 257.847 80.2752 273.058L80.8385 272.61Z" fill="#3C8F7C"/>
<path d="M72.1527 198.973C72.0315 202.14 70.7706 204.838 68.8775 206.536C67.131 204.396 66.0878 201.417 66.2098 198.248C66.331 195.08 67.592 192.383 69.485 190.687C71.2315 192.825 72.2747 195.806 72.1527 198.973Z" fill="#3C8F7C"/>
<path d="M65.9716 206.496C67.6861 209.172 68.2986 212.267 67.8769 214.988C65.3796 214.468 62.9199 212.765 61.2053 210.091C59.4916 207.414 58.8791 204.32 59.3 201.599C61.7981 202.119 64.2578 203.822 65.9716 206.496Z" fill="#3C8F7C"/>
<path d="M62.6292 215.209C65.1994 216.807 66.9942 219.347 67.7459 222.066C65.3853 222.854 62.5727 222.534 60.0017 220.936C57.4315 219.341 55.6367 216.8 54.885 214.079C57.2456 213.293 60.0582 213.614 62.6292 215.209Z" fill="#3C8F7C"/>
<path d="M64.1808 227.12C66.2156 228.388 67.5297 230.635 67.9555 233.154C65.9175 234.139 63.5831 234.112 61.5476 232.844C59.512 231.577 58.1987 229.329 57.7721 226.809C59.8109 225.824 62.1453 225.851 64.1808 227.12Z" fill="#3C8F7C"/>
<path d="M71.8883 212.664C74.0794 211.353 76.5775 211.193 78.7498 212.006C78.2692 214.411 76.842 216.605 74.6517 217.919C72.4614 219.232 69.9633 219.391 67.7902 218.578C68.2708 216.174 69.6988 213.979 71.8883 212.664Z" fill="#3C8F7C"/>
<path d="M71.9357 220.928C74.126 219.615 76.6242 219.457 78.7965 220.27C78.3167 222.674 76.8887 224.869 74.6984 226.181C72.5081 227.495 70.0099 227.654 67.8376 226.84C68.3183 224.436 69.7455 222.242 71.9357 220.928Z" fill="#3C8F7C"/>
<path d="M70.4545 346.396C49.3279 338.702 34.551 320.356 25.8741 306.317C16.4555 291.081 11.9897 277.487 11.9455 277.351L11.0121 277.722C11.0563 277.858 15.5523 291.554 25.0324 306.896C33.7911 321.072 48.7228 339.606 70.1115 347.393L70.4545 346.396Z" fill="#96D9C9"/>
<path d="M12.7708 272.415C14.695 276.037 15.0291 280.156 13.9999 283.726C10.6411 282.906 7.52806 280.531 5.60469 276.907C3.68051 273.283 3.34644 269.163 4.37568 265.594C7.73439 266.414 10.8475 268.791 12.7708 272.415Z" fill="#96D9C9"/>
<path d="M10.7017 286.272C14.3732 287.714 17.0761 290.603 18.3714 293.999C15.219 295.646 11.3412 295.951 7.6697 294.508C3.99738 293.066 1.29534 290.177 0 286.782C3.15238 285.134 7.03022 284.83 10.7017 286.272Z" fill="#96D9C9"/>
<path d="M12.6029 298.92C16.5381 298.4 20.212 299.623 22.8281 301.97C20.6804 304.947 17.3028 307.098 13.3685 307.617C9.43415 308.137 5.7602 306.915 3.14331 304.567C5.29184 301.591 8.66858 299.44 12.6029 298.92Z" fill="#96D9C9"/>
<path d="M20.0516 311.04C23.986 310.52 27.6599 311.74 30.2768 314.088C28.1291 317.065 24.7516 319.218 20.8172 319.735C16.8829 320.255 13.2089 319.035 10.592 316.687C12.7398 313.709 16.1173 311.558 20.0516 311.04Z" fill="#96D9C9"/>
<path d="M19.4563 292.164C19.67 288.339 21.2659 284.884 23.6134 282.529C25.7021 284.805 26.9148 288.21 26.7011 292.037C26.4873 295.862 24.8907 299.317 22.5432 301.672C20.4544 299.396 19.2418 295.992 19.4563 292.164Z" fill="#96D9C9"/>
<path d="M27.2341 304.708C27.3913 300.88 28.9372 297.396 31.2511 294.997C33.3735 297.233 34.6369 300.612 34.4789 304.441C34.3216 308.269 32.7757 311.753 30.4618 314.151C28.3387 311.915 27.0761 308.535 27.2341 304.708Z" fill="#96D9C9"/>
<path d="M32.7537 323.571C34.2537 322.778 35.9044 322.753 37.2956 323.357C36.8698 324.919 35.8316 326.315 34.3307 327.107C32.8307 327.902 31.1808 327.924 29.7888 327.323C30.2146 325.759 31.2537 324.363 32.7537 323.571Z" fill="#96D9C9"/>
<path d="M121.117 326.05C121.117 326.05 137.541 289.787 132.051 281.697C124.463 270.516 115.028 304.827 114.567 301.813C110.222 273.331 111.131 237.41 90.8058 231.966C79.2526 228.87 91.5706 258.793 90.1352 266.502C88.7007 274.213 69.4802 246.687 57.6428 232.125C45.8054 217.561 38.5574 225.596 45.4197 243.264C52.0545 260.347 76.0912 280.365 70.7108 282.078C65.3297 283.791 35.1585 259.993 30.6117 268.763C25.0365 279.516 71.5141 298.499 66.851 300.641C62.188 302.783 40.0468 292.714 40.0468 301.281C40.0468 309.847 70.6412 311.988 69.8454 315.692C68.5574 321.689 49.3385 306.335 47.8377 314.656C46.3024 323.167 73.9271 323.812 72.9617 330.47C72.4074 334.295 65.4501 330.291 64.1916 335.55C61.3217 347.545 104.852 364.349 104.852 364.349L121.117 326.05Z" fill="#3C8F7C"/>
<path d="M150.807 334.037C157.416 337.133 155.633 344.821 155.633 344.821C155.633 344.821 173.552 330.83 180.25 338.996C186.949 347.161 183.43 363.169 175.572 365.772C167.715 368.373 99.3802 366.55 99.3802 366.55C99.3802 366.55 144.863 331.251 150.807 334.037Z" fill="#96D9C9"/>
<path d="M103.987 353.761L104.619 353.221C90.2638 335.733 84.1327 313.809 81.5174 298.497C78.6795 281.884 79.2543 269.248 79.26 269.122L78.3888 268.965C78.3831 269.092 77.8033 281.812 80.6552 298.527C83.2909 313.968 89.4778 336.085 103.987 353.761Z" fill="#50BFA5"/>
<path d="M81.1807 266.344C81.6057 270.117 80.6288 273.381 78.7415 275.476C76.3392 272.998 74.6008 269.495 74.1751 265.72C73.7501 261.947 74.7269 258.685 76.6143 256.589C79.0166 259.067 80.7549 262.57 81.1807 266.344Z" fill="#50BFA5"/>
<path d="M75.5801 275.136C78.0414 278.25 79.3024 281.908 79.3008 285.164C76.3187 284.644 73.1679 282.719 70.7074 279.602C68.2461 276.488 66.9852 272.83 66.9868 269.574C69.9689 270.094 73.1188 272.021 75.5801 275.136Z" fill="#50BFA5"/>
<path d="M73.2687 285.637C76.5284 287.436 79.0577 290.385 80.4144 293.592C77.8229 294.623 74.5117 294.355 71.2528 292.559C67.9932 290.762 65.4631 287.811 64.1072 284.603C66.6979 283.573 70.0099 283.841 73.2687 285.637Z" fill="#50BFA5"/>
<path d="M79.0953 302.926C80.5028 303.579 81.6426 304.744 82.3025 306.054C81.2586 306.575 79.8756 306.571 78.4689 305.92C77.0614 305.268 75.9208 304.104 75.2609 302.793C76.3048 302.27 77.6878 302.274 79.0953 302.926Z" fill="#50BFA5"/>
<path d="M80.8631 309.374C82.2706 310.026 83.4104 311.189 84.0704 312.501C83.0264 313.021 81.6434 313.017 80.2359 312.365C78.8284 311.713 77.6886 310.55 77.0287 309.238C78.0727 308.716 79.4556 308.722 80.8631 309.374Z" fill="#50BFA5"/>
<path d="M83.5266 282.24C85.8267 280.587 88.6884 280.301 91.347 281.181C91.2209 284.059 89.9616 286.729 87.6616 288.379C85.3624 290.031 82.5007 290.321 79.842 289.438C79.9681 286.56 81.2275 283.889 83.5266 282.24Z" fill="#50BFA5"/>
<path d="M85.057 292.07C87.357 290.419 90.2188 290.131 92.8774 291.012C92.7513 293.89 91.492 296.561 89.1928 298.21C86.8928 299.862 84.0311 300.149 81.3724 299.268C81.4985 296.39 82.7578 293.72 85.057 292.07Z" fill="#50BFA5"/>
<path d="M86.0633 306.265C87.5601 305.192 89.4228 305.003 91.1538 305.575C91.0711 307.45 90.2515 309.187 88.7547 310.262C87.2579 311.336 85.3952 311.524 83.665 310.953C83.7469 309.076 84.5665 307.341 86.0633 306.265Z" fill="#50BFA5"/>
<path d="M114.813 366.886C114.813 366.886 93.8255 339.94 85.0512 335.811C75.703 331.413 83.8091 346.656 83.8091 346.656C83.8091 346.656 63.8197 327.019 59.1247 331.922C54.4297 336.825 59.4424 341.414 59.4424 341.414C59.4424 341.414 42.7045 338.305 40.2637 344.574C36.5136 354.208 64.0441 359.001 64.0441 359.001C64.0441 359.001 50.8548 356.107 53.4938 362.073C57.474 371.069 114.813 366.886 114.813 366.886Z" fill="#50BFA5"/>
<path d="M40.2637 344.574C42.7045 338.305 59.4424 341.414 59.4424 341.414C59.4424 341.414 54.4297 336.825 59.1247 331.922C63.8197 327.019 79.467 338.598 79.467 338.598C79.467 338.598 77.0426 327.956 88.7964 336.328C97.1924 342.306 113.396 364.611 113.396 364.611L40.2637 344.574Z" fill="#96D9C9"/>
<path d="M99.3802 366.481C99.3802 366.481 132.823 368.845 139.337 362.856C145.85 356.87 139.388 346.02 139.388 346.02C139.388 346.02 150.865 336.949 150.685 331.025C150.506 325.101 143.03 328.107 143.03 328.107C143.03 328.107 155.701 311.791 152.696 308.686C147.097 302.907 132.446 319.867 132.446 319.867C132.446 319.867 136.795 311.799 132.207 310.519C125.29 308.585 120.202 328.484 120.202 328.484C120.202 328.484 121.492 320.626 116.724 321.67C108.169 323.542 99.3802 366.481 99.3802 366.481Z" fill="#50BFA5"/>
<path d="M127.153 366.85H124.354L134.785 312.646L137.112 313.088L127.153 366.85Z" fill="#0E2E35"/>
<path d="M440.103 274.28L442.802 267.735C444.898 262.919 450.258 260.62 454.776 262.599C466.159 267.586 471.109 281.464 465.831 293.596L461.972 302.469C460.28 306.356 460.869 310.629 463.149 313.646C465.219 316.384 465.558 320.19 464.122 323.489L462.087 328.168C459.884 333.23 455.598 336.98 450.515 338.527C447.542 339.432 444.916 341.671 443.528 344.862L440.646 351.485C437.461 358.805 429.312 362.301 422.443 359.293L418.525 357.577C411.656 354.568 408.669 346.195 411.856 338.873C417.005 330.119 416.595 323.586 414.769 319.155C412.086 312.638 412.118 305.142 415.02 298.468L415.427 297.532C418.491 290.49 424.409 285.231 431.455 282.979C434.565 281.983 437.808 279.557 440.103 274.28Z" fill="#50BFA5"/>
<path d="M391.039 366.246C396.562 359.059 427.26 320.888 447.012 314.472C468.816 307.389 448.267 335.519 448.267 335.519C448.267 335.519 486.945 293.081 501.14 296.906C514.151 300.413 501.14 326.719 501.14 326.719C501.14 326.719 515.794 312.151 533.565 312.151C550.86 312.151 521.556 365.114 519.972 367.881L391.039 366.246Z" fill="#96D9C9"/>
<path d="M507.573 284.558C491.768 309.323 480.256 338.062 473.662 367.288L472.096 367.269C478.663 338.655 490.582 309.693 506.358 284.954C510.023 279.204 513.983 272.384 520.85 270.14C520.982 270.099 521.032 270.3 520.907 270.348C514.635 272.719 511.003 279.182 507.573 284.558Z" fill="#3C8F7C"/>
<path d="M477.255 367.34C494.915 343.243 516.58 320.718 542.109 301.35C542.363 301.157 542.707 301.604 542.45 301.801C518.238 320.475 496.896 342.432 478.87 367.353L477.255 367.34Z" fill="#3C8F7C"/>
<path d="M509.017 269.2C509.424 269.801 510.981 271.367 511.438 273.423C512.052 275.375 511.569 277.817 511.516 277.731C511.398 277.781 513.317 276.152 513.916 273.561C514.694 271.078 514.151 267.634 513.184 266.491C511.516 263.911 508.602 263.649 508.039 264.9C507.437 266.143 508.198 267.835 509.017 269.2Z" fill="#3C8F7C"/>
<path d="M512.797 291.306C512.208 290.886 510.678 289.293 508.638 288.792C506.706 288.138 504.262 288.576 504.345 288.63C504.295 288.748 505.955 286.853 508.548 286.304C511.038 285.575 514.461 286.186 515.578 287.178C518.117 288.901 518.32 291.83 517.062 292.372C515.811 292.95 514.142 292.155 512.797 291.306Z" fill="#3C8F7C"/>
<path d="M507.091 300.993C506.502 300.574 504.971 298.981 502.933 298.482C500.999 297.826 498.555 298.264 498.64 298.318C498.589 298.436 500.249 296.543 502.842 295.992C505.332 295.263 508.755 295.875 509.873 296.866C512.411 298.591 512.614 301.518 511.356 302.06C510.107 302.639 508.437 301.843 507.091 300.993Z" fill="#3C8F7C"/>
<path d="M527.443 323.466C526.853 323.047 525.323 321.454 523.281 320.955C521.351 320.299 518.907 320.737 518.991 320.791C518.94 320.909 520.601 319.016 523.193 318.465C525.684 317.736 529.106 318.347 530.224 319.339C532.762 321.062 532.965 323.99 531.708 324.533C530.457 325.111 528.788 324.315 527.443 323.466Z" fill="#3C8F7C"/>
<path d="M537.839 314.277C537.25 313.855 535.72 312.263 533.68 311.763C531.748 311.107 529.304 311.548 529.387 311.6C529.337 311.717 530.997 309.824 533.59 309.273C536.08 308.544 539.504 309.158 540.62 310.148C543.159 311.872 543.363 314.801 542.105 315.344C540.855 315.92 539.185 315.124 537.839 314.277Z" fill="#3C8F7C"/>
<path d="M501.033 280.162C501.53 280.69 503.313 281.99 504.09 283.95C505.001 285.78 504.907 288.268 504.842 288.192C504.733 288.259 506.372 286.348 506.558 283.696C506.934 281.12 505.857 277.804 504.723 276.829C502.671 274.545 499.752 274.748 499.392 276.072C498.993 277.393 500.01 278.944 501.033 280.162Z" fill="#3C8F7C"/>
<path d="M492.644 291.15C493.351 291.526 495.816 292.207 497.057 294.06C498.461 295.707 498.64 298.526 498.547 298.47C498.415 298.591 500.303 295.751 500.222 292.71C500.398 289.672 498.599 286.436 497.015 285.838C494.082 284.172 490.33 285.658 490.022 287.293C489.668 288.941 491.173 290.23 492.644 291.15Z" fill="#3C8F7C"/>
<path d="M483.814 307.791C484.572 308.043 487.119 308.299 488.651 309.914C490.312 311.302 490.961 314.053 490.859 314.011C490.75 314.153 492.138 311.034 491.546 308.052C491.208 305.026 488.894 302.14 487.232 301.817C484.063 300.671 480.613 302.769 480.581 304.431C480.51 306.117 482.21 307.133 483.814 307.791Z" fill="#3C8F7C"/>
<path d="M509.944 319.385C510.495 319.731 512.463 320.424 513.369 322.003C514.417 323.425 514.402 325.728 514.329 325.675C514.213 325.766 515.914 323.565 516.02 321.087C516.335 318.626 515.057 315.891 513.8 315.312C511.509 313.791 508.372 314.784 508.028 316.096C507.646 317.417 508.799 318.553 509.944 319.385Z" fill="#3C8F7C"/>
<path d="M523.546 273.096C523.217 272.822 522.38 271.813 521.196 271.428C520.081 270.954 518.615 271.107 518.663 271.143C518.628 271.21 519.693 270.162 521.25 269.95C522.755 269.629 524.753 270.14 525.371 270.776C526.799 271.907 526.79 273.65 526.023 273.916C525.258 274.201 524.304 273.656 523.546 273.096Z" fill="#3C8F7C"/>
<path d="M520.378 266.024C520.393 266.456 520.68 267.735 520.261 268.912C519.953 270.086 518.938 271.157 518.938 271.097C518.865 271.083 520.34 270.879 521.46 269.769C522.631 268.77 523.447 266.868 523.323 265.991C523.303 264.166 521.923 263.108 521.244 263.556C520.55 263.989 520.399 265.078 520.378 266.024Z" fill="#3C8F7C"/>
<path d="M545.327 304.913C544.998 304.639 544.161 303.631 542.977 303.244C541.862 302.773 540.396 302.924 540.444 302.959C540.409 303.026 541.474 301.981 543.031 301.769C544.536 301.446 546.534 301.958 547.152 302.595C548.58 303.725 548.571 305.466 547.804 305.733C547.039 306.02 546.085 305.473 545.327 304.913Z" fill="#3C8F7C"/>
<path d="M541.505 297.78C541.555 298.208 541.945 299.461 541.623 300.668C541.413 301.863 540.488 303.014 540.484 302.955C540.411 302.95 541.866 302.62 542.888 301.425C543.977 300.331 544.632 298.371 544.438 297.504C544.268 295.688 542.806 294.747 542.168 295.25C541.511 295.738 541.449 296.837 541.505 297.78Z" fill="#3C8F7C"/>
<path d="M524.303 338.854C524.407 339.518 525.097 341.446 524.671 343.352C524.42 345.23 523.051 347.085 523.042 346.993C522.923 346.987 525.172 346.383 526.694 344.45C528.32 342.675 529.219 339.573 528.859 338.233C528.478 335.41 526.138 334.037 525.172 334.863C524.179 335.666 524.154 337.384 524.303 338.854Z" fill="#3C8F7C"/>
<path d="M510.086 343.96C510.191 344.624 510.881 346.553 510.455 348.459C510.204 350.338 508.834 352.194 508.825 352.101C508.707 352.095 510.956 351.489 512.478 349.557C514.104 347.781 515.004 344.679 514.643 343.339C514.26 340.518 511.922 339.145 510.956 339.969C509.963 340.774 509.937 342.493 510.086 343.96Z" fill="#3C8F7C"/>
<path d="M495.64 350.42C495.747 351.084 496.436 353.014 496.01 354.919C495.757 356.799 494.391 358.654 494.38 358.562C494.262 358.555 496.512 357.952 498.034 356.017C499.66 354.243 500.56 351.139 500.199 349.8C499.815 346.978 497.476 345.606 496.51 346.43C495.518 347.234 495.493 348.953 495.64 350.42Z" fill="#3C8F7C"/>
<path d="M528.545 352.181C528.253 351.632 527.69 349.825 526.314 348.659C525.084 347.416 523.045 346.815 523.088 346.888C523.007 346.958 525 346.144 527.195 346.716C529.381 347.115 531.771 348.897 532.25 350.085C533.538 352.38 532.578 354.703 531.406 354.636C530.228 354.598 529.253 353.347 528.545 352.181Z" fill="#3C8F7C"/>
<path d="M513.759 357.432C513.467 356.885 512.901 355.076 511.528 353.91C510.298 352.667 508.258 352.065 508.302 352.139C508.219 352.21 510.212 351.395 512.409 351.97C514.595 352.366 516.985 354.149 517.462 355.338C518.749 357.631 517.79 359.954 516.62 359.887C515.442 359.851 514.465 358.597 513.759 357.432Z" fill="#3C8F7C"/>
<path d="M539.807 346.775C539.552 346.469 538.958 345.409 537.944 344.859C537.007 344.241 535.646 344.134 535.685 344.174C535.64 344.229 536.785 343.455 538.239 343.522C539.665 343.482 541.401 344.285 541.858 344.968C542.969 346.239 542.671 347.823 541.926 347.936C541.182 348.069 540.405 347.412 539.807 346.775Z" fill="#3C8F7C"/>
<path d="M538.101 339.799C538.043 340.194 538.09 341.409 537.51 342.411C537.034 343.428 535.932 344.234 535.942 344.18C535.877 344.155 537.257 344.216 538.462 343.392C539.696 342.68 540.757 341.084 540.791 340.262C541.073 338.596 539.994 337.402 539.3 337.697C538.598 337.974 538.277 338.942 538.101 339.799Z" fill="#3C8F7C"/>
<path d="M462.796 154.133C463.663 154.239 464.401 153.273 464.185 152.461C463.837 151.158 463.511 149.848 463.175 148.54C462.437 145.649 462.318 145.559 462.521 145.316C463.005 144.734 464.171 145.411 464.577 145.701C465.478 146.343 466.222 147.219 467.25 147.674C469.254 148.557 471.241 147.417 470.916 145.125C470.619 143.027 470.197 140.931 469.765 138.847C471.859 139.967 473.926 141.149 476.035 142.239C476.783 142.624 477.54 142.082 477.437 141.252C477.212 139.407 476.55 133.949 476.332 132.148C476.276 131.683 475.756 129.545 476.226 129.306C476.649 129.09 478.053 129.971 478.388 130.125C480.246 130.985 480.913 131.264 487.014 133.921C487.741 134.238 488.681 133.396 488.417 132.634C485.834 125.136 486.773 124.806 485.454 123.47C485.159 123.17 484.753 123.311 484.589 123.659C484.172 124.545 484.134 124.787 484.922 128.231C485.128 129.122 485.354 130.006 485.601 130.884C478.252 127.516 476.479 126.491 474.928 127.903C473.853 128.885 474.104 129.312 475.387 139.641C473.251 138.353 471.048 137.202 468.853 136.001C468.021 135.544 467.116 136.189 467.254 137.124C468.359 144.633 468.692 144.784 468.613 145.471C468.61 145.49 468.983 145.701 468.399 145.469C467.407 145.075 465.971 143.034 463.953 142.679C462.175 142.366 460.123 143.283 459.955 145.27C459.857 146.425 460.148 146.93 461.108 151.17C458.976 150.97 456.828 151.024 454.547 151.347C453.558 151.487 452.925 151.705 452.145 152.338C451.508 152.856 451.747 154.07 452.562 154.264C454.872 154.811 456.384 153.344 462.796 154.133Z" fill="#F7CC7F"/>
<path d="M497.678 184.371C497.967 182.352 498.379 180.459 499.038 178.445C499.161 178.066 499.306 177.332 499.765 177.209C500.868 176.909 501.785 178.923 505.131 180.772C506.584 181.573 509.516 183.359 510.82 181.474C511.487 180.508 511.663 179.091 511.989 177.98C512.237 177.138 512.517 176.303 512.779 175.466C518.104 178.835 517.672 179.078 519.16 178.896C519.546 178.848 519.879 178.378 519.773 177.996C519.372 176.576 519.425 176.961 512.752 172.646C512.145 172.251 511.187 172.47 510.967 173.228C510.631 174.371 509.395 179.621 509.141 180.242C509.092 180.183 508.799 180.154 508.739 180.133C506.339 179.325 504.559 177.839 502.626 176.276C501.044 174.995 498.597 174.251 497.346 176.393C496.667 177.554 496.024 180.179 495.617 182.225C492.416 180.04 489.228 177.829 486.015 175.666C485.386 175.243 484.234 175.461 484.044 176.307C483.514 178.663 482.904 180.994 482.277 183.323C480.401 182.019 478.735 180.426 477.334 178.609C476.303 177.269 474.083 178.613 476.917 181.814C478.446 183.656 480.262 185.209 482.333 186.469C483.019 186.886 484.053 186.677 484.31 185.826C484.998 183.539 485.582 181.218 486.121 178.89C489.339 181.028 492.577 183.132 495.793 185.271C496.583 185.796 497.549 185.268 497.678 184.371Z" fill="#F47458"/>
<path d="M496.122 234.374C495.925 235.083 496.241 235.666 496.87 235.984C499.946 237.537 503.073 238.795 506.502 239.213C508.286 239.428 508.433 236.72 506.718 236.406C504.033 235.911 501.302 235.261 498.773 234.142C499.419 232.207 500.245 230.35 501.287 228.603C501.683 227.939 501.496 226.832 500.646 226.606C498.531 226.038 490.456 224.137 490.362 224.202C490.372 224.189 490.402 224.137 490.418 223.988C490.515 223.097 491.989 220.415 492.315 219.085C492.68 217.593 490.884 216.475 489.733 216.01C487.4 215.063 484.22 216.004 482.157 214.375C480.175 212.807 483.757 210.03 482.763 206.731C481.998 204.188 479.401 204.112 475.387 203.714C474.402 203.616 473.439 203.532 472.698 204.307C472.513 204.5 472.394 204.827 472.547 205.085C473.372 206.488 474.886 206.416 478.527 206.875C478.99 206.934 479.814 206.895 480.109 207.338C481.094 208.814 478.288 211.233 479.089 214.214C479.713 216.538 482.024 217.618 484.151 217.98C485.816 218.266 488.079 217.922 489.54 218.987C489.035 220.357 488.486 221.729 488.089 223.126C487.655 224.657 488.116 225.948 489.613 226.531C491.267 227.176 493.101 227.468 494.816 227.894C495.971 228.18 497.124 228.472 498.281 228.748C497.392 230.549 496.661 232.419 496.122 234.374Z" fill="#3CB4C5"/>
<path d="M429.016 117.874C422.154 107.726 415.534 113.048 417.228 116.918C417.953 118.574 419.909 119.274 421.357 118.075C422.022 117.523 421.682 116.189 420.747 116.201C419.976 116.213 420.047 115.36 420.89 115.272C422.026 115.155 423.034 116.261 423.768 116.983C425.482 118.666 427.727 120.823 427.315 123.477C426.696 127.434 421.63 130.31 416.555 126.383C409.237 120.722 413.66 107.307 423.099 107.671C428.234 107.869 432.76 111.424 434.519 116.22C434.862 117.156 436.151 116.564 436.072 115.702C435.468 109.179 428.69 104.743 422.46 105.039C416.071 105.341 411.374 110.583 410.483 116.735C409.548 123.187 413.303 129.905 419.95 131.165C427.239 132.546 433.814 124.968 429.016 117.874Z" fill="#3CB4C5"/>
<path d="M485.891 253.768C484.717 252.292 481.852 250.745 480.256 252.466C479.514 253.265 479.428 254.5 480.413 255.181C481.375 255.847 482.539 255.571 483.069 256.801C483.524 257.857 482.738 258.945 481.867 259.511C479.214 261.238 475.24 259.283 473.274 257.302C470.155 254.156 471.092 248.628 475.871 247.272C477.368 246.849 478.88 247.111 480.399 247.201C481.239 247.251 481.988 246.121 481.281 245.454C478.571 242.893 474.016 243.79 471.319 245.941C468.487 248.198 467.357 252.28 468.333 255.732C469.423 259.587 473.087 262.435 476.831 263.504C484.608 265.726 489.691 258.551 485.891 253.768Z" fill="#3C8F7C"/>
<path d="M129.131 186.962C129.337 181.971 128.607 177.039 126.391 172.392C124.483 168.392 119.764 166.122 115.461 166.118C101.796 166.099 100.058 184.294 91.3601 191.311C88.7023 193.456 85.7309 195.202 83.2155 197.516C73.9287 206.056 78.112 221.862 86.6398 229.348C92.5572 234.544 101.858 237.496 109.151 233.433C112.958 231.314 115.849 227.79 117.907 223.93C120.83 218.45 122.714 212.126 124.793 206.286C127.004 200.071 128.858 193.598 129.131 186.962Z" fill="#0E2E35"/>
<path d="M99.8257 189.023C99.8257 189.023 89.7888 170.973 87.3471 167.134C84.9055 163.299 78.545 148.05 78.3174 147.45C78.0898 146.849 82.698 139.632 81.6688 139.386C81.1685 139.265 80.642 140.161 80.1073 141.061C79.5423 142.006 78.9684 142.954 78.405 142.706C77.3078 142.222 74.1022 132.469 73.4775 132.954C72.3074 133.857 75.2052 139.003 74.5812 139.327C74.266 139.491 73.6257 138.041 72.9125 136.59C72.2157 135.173 71.4485 133.756 70.8434 133.842C69.6185 134.018 73.1729 139.327 72.8298 139.797C72.6677 140.019 71.7531 139.011 70.764 138.003C69.6676 136.885 68.4812 135.769 68.1299 136.33C67.7672 136.908 71.523 140.696 70.8016 141.051C70.4618 141.218 69.5423 140.766 68.6277 140.313C67.5977 139.801 66.5734 139.292 66.3859 139.665C66.0321 140.371 69.4752 141.336 70.5052 143.237C71.5345 145.138 73.2883 145.959 74.0163 149.479C74.7442 152.999 75.8324 165.737 79.5628 172.09C83.2924 178.445 91.4952 192.511 91.4952 192.511L99.8257 189.023Z" fill="#F79C8D"/>
<path d="M152.935 255.449L137.33 243.505C137.33 243.505 135.76 232.363 133.659 222.472C131.025 223.219 128.649 225.292 126.013 226.015L129.981 248.159L150.433 258.746L156.21 266.195L157.524 258.547L152.935 255.449Z" fill="#F48C7F"/>
<path d="M131.363 211.139C127.095 198.147 122.322 198.7 122.322 198.7L126.013 226.015C128.649 225.292 132.081 223.682 134.714 222.936C133.841 218.829 132.415 214.34 131.363 211.139Z" fill="#F7CC7F"/>
<path d="M86.4154 347.699C86.4154 347.699 85.4533 354.414 83.7969 356.581C83.2401 357.308 82.2256 358.228 81.5583 359.543C80.5208 361.59 81.0948 364.636 81.8596 366.313C82.2526 367.175 81.8326 367.172 82.7267 367.451C85.3763 368.273 88.1946 366.887 89.3221 364.337C89.9526 362.911 90.5053 361.01 90.6167 358.614C90.8991 352.516 92.7848 349.416 92.7848 349.416L86.4154 347.699Z" fill="#F7A491"/>
<path d="M115.392 350.77C115.392 350.77 115.986 358.344 115.503 360.805C115.245 362.121 113.807 364.835 114.467 366.074C115.127 367.315 115.881 367.625 115.881 367.625L132.985 367.902C133.917 367.917 133.301 367.315 132.55 366.76C131.32 365.85 130.328 365.248 126.4 363.337C126.144 363.213 125.212 362.616 124.875 362.41C124.022 361.886 123.166 361.062 122.429 360.236C121.2 358.862 121.093 352.192 121.093 352.192L115.392 350.77Z" fill="#F7A491"/>
<path d="M128.76 250.11C128.76 250.11 130.915 262.403 129.5 270.465C128.086 278.527 121.298 353.244 121.298 353.244L113.754 353.671C113.754 353.671 112.174 322.46 112.456 318.119C112.739 313.78 114.978 306.517 114.978 306.517L114.227 281.317L123.746 248.211L128.76 250.11Z" fill="#13375B"/>
<path d="M106.591 247.523C106.591 247.523 100.651 256.514 99.237 263.955C97.8229 271.396 100.275 294.263 97.5544 304.014C96.0822 309.292 90.5004 317.442 89.6521 324.263C88.803 331.084 85.4746 348.951 85.4746 348.951L93.0141 350.454L110.537 305.833L124.282 265.504L127.803 244.734L106.591 247.523Z" fill="#355389"/>
<path d="M111.399 196.37C111.399 196.37 103.535 195.864 100.423 199.275C97.312 202.685 107.325 229.662 107.891 234.003C108.456 238.345 105.007 249.884 105.007 249.884C105.007 249.884 123.481 253.623 128.76 250.11C128.76 250.11 129.326 218.899 128.76 215.798C128.195 212.698 123.481 200.088 122.349 198.849C121.218 197.608 111.399 196.37 111.399 196.37Z" fill="#FAE0B2"/>
<path d="M114.016 185.8C114.016 185.8 113.976 186.033 113.903 186.429C113.552 188.331 112.202 194.64 111.29 196.374C110.188 198.467 115.064 205.152 119.757 204.336C121.154 204.093 118.576 198.195 118.7 197.571C118.937 196.375 119.258 194.743 119.588 193.07C119.773 192.127 119.962 191.169 120.138 190.27C120.64 187.715 121.05 185.624 121.05 185.624L114.016 185.8Z" fill="#F7A491"/>
<path d="M113.903 186.429C113.976 186.033 114.016 185.8 114.016 185.8L121.05 185.624C121.05 185.624 120.64 187.715 120.138 190.27C119.962 191.164 119.776 192.117 119.591 193.055C118.505 192.894 117.371 192.364 116.233 191.362C114.993 190.27 114.18 188.958 113.69 187.558C113.776 187.111 113.848 186.725 113.903 186.429Z" fill="#F47458"/>
<path d="M118.75 169.723C118.75 169.723 115.435 169.34 113.357 172.042C111.28 174.744 109.04 183.104 114.201 187.645C119.363 192.19 124.463 187.046 125.219 181.594C125.976 176.14 126.27 169.529 118.75 169.723Z" fill="#F7A491"/>
<path d="M126.746 181.512C126.131 182.717 125.096 183.384 124.436 183.003C123.777 182.621 123.742 181.334 124.358 180.13C124.974 178.925 126.009 178.259 126.668 178.64C127.327 179.022 127.363 180.309 126.746 181.512Z" fill="#F7A491"/>
<path d="M119.121 168.83C119.121 168.83 114.693 176.779 111.525 177.146C108.356 177.513 107.94 181.736 107.94 181.736C107.94 181.736 109.073 172.004 112.209 170.128C115.345 168.252 119.121 168.83 119.121 168.83Z" fill="#0E2E35"/>
<path d="M89.8364 362.995C85.7268 363.747 82.9929 361.331 81.5698 359.521C80.5258 361.572 80.0157 364.63 80.7846 366.313C81.4609 367.797 83.4383 367.755 84.9948 367.814C86.6414 367.875 87.9147 366.955 88.7318 365.513C89.1134 364.84 89.5064 364.001 89.8364 362.995Z" fill="#B75742"/>
<path d="M124.873 362.408C120.349 363.575 117.005 362.781 115.135 362.025C114.653 363.398 114.013 365.123 114.352 366.119C114.767 367.336 115.358 367.61 115.881 367.625C120.012 367.734 131.016 367.883 134.166 367.923C134.607 367.93 134.849 367.414 134.567 367.072C133.785 366.135 125.21 362.616 124.873 362.408Z" fill="#B75742"/>
<path d="M112.355 179.144C112.613 180.555 112.095 181.85 111.197 182.034C110.301 182.219 109.365 181.225 109.108 179.815C108.85 178.401 109.368 177.108 110.265 176.924C111.161 176.737 112.097 177.731 112.355 179.144Z" fill="#F7A491"/>
<path d="M97.0475 183.175C97.0475 183.175 108.15 195.179 109.8 200.017C111.45 204.857 108.191 211.776 103.69 212.08C99.1879 212.382 89.1707 190.771 89.1707 190.771L97.0475 183.175Z" fill="#F7CC7F"/>
<path d="M292.198 150.389H430.259C434.634 150.389 438.181 153.935 438.181 158.312V358.503C438.181 362.879 434.634 366.426 430.259 366.426H292.198C287.823 366.426 284.277 362.879 284.277 358.503V158.312C284.277 153.935 287.823 150.389 292.198 150.389Z" fill="#F7CC7F"/>
<path d="M298.134 201.115H425.774V168.159H298.134V201.115Z" fill="#3CB4C5"/>
<path d="M331.943 172.904H425.774V168.159H331.943V172.904Z" fill="#2599AE"/>
<path d="M334.15 222.389H298.744C298.407 222.389 298.134 222.116 298.134 221.781V211.126C298.134 210.789 298.407 210.516 298.744 210.516H334.15C334.487 210.516 334.76 210.789 334.76 211.126V221.781C334.76 222.116 334.487 222.389 334.15 222.389Z" fill="#F47458"/>
<path d="M379.656 222.389H344.251C343.916 222.389 343.643 222.116 343.643 221.781V211.126C343.643 210.789 343.916 210.516 344.251 210.516H379.656C379.995 210.516 380.266 210.789 380.266 211.126V221.781C380.266 222.116 379.995 222.389 379.656 222.389Z" fill="#F47458"/>
<path d="M425.166 222.389H389.758C389.422 222.389 389.15 222.116 389.15 221.781V211.126C389.15 210.789 389.422 210.516 389.758 210.516H425.166C425.501 210.516 425.774 210.789 425.774 211.126V221.781C425.774 222.116 425.501 222.389 425.166 222.389Z" fill="#F47458"/>
<path d="M325.114 258.409H299.501C298.746 258.409 298.134 257.797 298.134 257.042V233.157C298.134 232.402 298.746 231.79 299.501 231.79H325.114C325.866 231.79 326.478 232.402 326.478 233.157V257.042C326.478 257.797 325.866 258.409 325.114 258.409Z" fill="#F47458"/>
<path d="M358.211 258.409H332.598C331.844 258.409 331.234 257.797 331.234 257.042V233.157C331.234 232.402 331.844 231.79 332.598 231.79H358.211C358.966 231.79 359.576 232.402 359.576 233.157V257.042C359.576 257.797 358.966 258.409 358.211 258.409Z" fill="#FAE0B2"/>
<path d="M391.309 258.409H365.697C364.944 258.409 364.332 257.797 364.332 257.042V233.157C364.332 232.402 364.944 231.79 365.697 231.79H391.309C392.064 231.79 392.676 232.402 392.676 233.157V257.042C392.676 257.797 392.064 258.409 391.309 258.409Z" fill="#FAE0B2"/>
<path d="M325.114 291.221H299.501C298.746 291.221 298.134 290.61 298.134 289.857V265.969C298.134 265.217 298.746 264.604 299.501 264.604H325.114C325.866 264.604 326.478 265.217 326.478 265.969V289.857C326.478 290.61 325.866 291.221 325.114 291.221Z" fill="#F47458"/>
<path d="M358.211 291.221H332.598C331.844 291.221 331.234 290.61 331.234 289.857V265.969C331.234 265.217 331.844 264.604 332.598 264.604H358.211C358.966 264.604 359.576 265.217 359.576 265.969V289.857C359.576 290.61 358.966 291.221 358.211 291.221Z" fill="#FAE0B2"/>
<path d="M391.309 291.221H365.697C364.944 291.221 364.332 290.61 364.332 289.857V265.969C364.332 265.217 364.944 264.604 365.697 264.604H391.309C392.064 264.604 392.676 265.217 392.676 265.969V289.857C392.676 290.61 392.064 291.221 391.309 291.221Z" fill="#FAE0B2"/>
<path d="M420.001 231.79H403.204C400.017 231.79 397.432 234.385 397.432 237.583V285.427C397.432 288.629 400.017 291.221 403.204 291.221H420.001C423.189 291.221 425.774 288.629 425.774 285.427V237.583C425.774 234.385 423.189 231.79 420.001 231.79Z" fill="#FAE0B2"/>
<path d="M325.114 324.036H299.501C298.746 324.036 298.134 323.425 298.134 322.67V298.784C298.134 298.029 298.746 297.418 299.501 297.418H325.114C325.866 297.418 326.478 298.029 326.478 298.784V322.67C326.478 323.425 325.866 324.036 325.114 324.036Z" fill="#F47458"/>
<path d="M358.211 324.036H332.598C331.844 324.036 331.234 323.425 331.234 322.67V298.784C331.234 298.029 331.844 297.418 332.598 297.418H358.211C358.966 297.418 359.576 298.029 359.576 298.784V322.67C359.576 323.425 358.966 324.036 358.211 324.036Z" fill="#FAE0B2"/>
<path d="M391.309 324.036H365.697C364.944 324.036 364.332 323.425 364.332 322.67V298.784C364.332 298.029 364.944 297.418 365.697 297.418H391.309C392.064 297.418 392.676 298.029 392.676 298.784V322.67C392.676 323.425 392.064 324.036 391.309 324.036Z" fill="#FAE0B2"/>
<path d="M424.409 324.036H398.797C398.042 324.036 397.432 323.425 397.432 322.67V298.784C397.432 298.029 398.042 297.418 398.797 297.418H424.409C425.164 297.418 425.774 298.029 425.774 298.784V322.67C425.774 323.425 425.164 324.036 424.409 324.036Z" fill="#FAE0B2"/>
<path d="M325.114 356.849H299.501C298.746 356.849 298.134 356.237 298.134 355.485V331.597C298.134 330.842 298.746 330.232 299.501 330.232H325.114C325.866 330.232 326.478 330.842 326.478 331.597V355.485C326.478 356.237 325.866 356.849 325.114 356.849Z" fill="#F47458"/>
<path d="M358.211 356.849H332.598C331.844 356.849 331.234 356.237 331.234 355.485V331.597C331.234 330.842 331.844 330.232 332.598 330.232H358.211C358.966 330.232 359.576 330.842 359.576 331.597V355.485C359.576 356.237 358.966 356.849 358.211 356.849Z" fill="#FAE0B2"/>
<path d="M391.309 356.849H365.697C364.944 356.849 364.332 356.237 364.332 355.485V331.597C364.332 330.842 364.944 330.232 365.697 330.232H391.309C392.064 330.232 392.676 330.842 392.676 331.597V355.485C392.676 356.237 392.064 356.849 391.309 356.849Z" fill="#FAE0B2"/>
<path d="M424.409 356.849H398.797C398.042 356.849 397.432 356.237 397.432 355.485V331.597C397.432 330.842 398.042 330.232 398.797 330.232H424.409C425.164 330.232 425.774 330.842 425.774 331.597V355.485C425.774 356.237 425.164 356.849 424.409 356.849Z" fill="#E87B50"/>
<path d="M317.158 303.733V305.079L310.614 318.813H308.51L315.031 305.473V305.426H307.678V303.733H317.158Z" fill="white"/>
<path d="M342.941 307.353C342.941 308.861 344.073 309.671 345.806 310.137C347.102 309.695 348.095 308.768 348.095 307.399C348.095 306.192 347.378 304.941 345.553 304.941C343.865 304.941 342.941 306.054 342.941 307.353ZM348.535 314.893C348.535 313.059 347.263 312.178 345.23 311.598C343.471 312.11 342.524 313.268 342.524 314.707C342.454 316.239 343.61 317.584 345.53 317.584C347.356 317.584 348.535 316.446 348.535 314.893ZM340.442 314.985C340.442 313.082 341.576 311.736 343.425 310.948L343.402 310.879C341.738 310.09 341.02 308.791 341.02 307.491C341.02 305.102 343.033 303.478 345.668 303.478C348.581 303.478 350.039 305.312 350.039 307.189C350.039 308.466 349.414 309.835 347.565 310.718V310.786C349.437 311.529 350.594 312.851 350.594 314.683C350.594 317.306 348.351 319.069 345.484 319.069C342.34 319.069 340.442 317.189 340.442 314.985Z" fill="white"/>
<path d="M342.454 343.752C342.454 347.674 343.658 349.9 345.507 349.9C347.588 349.9 348.581 347.464 348.581 343.614C348.581 339.902 347.634 337.466 345.53 337.466C343.75 337.466 342.454 339.646 342.454 343.752ZM350.617 343.522C350.617 348.649 348.72 351.479 345.391 351.479C342.454 351.479 340.465 348.718 340.42 343.729C340.42 338.674 342.593 335.887 345.645 335.887C348.812 335.887 350.617 338.72 350.617 343.522Z" fill="white"/>
<path d="M376.121 308.699C376.121 310.577 377.255 311.9 379.011 311.9C380.375 311.9 381.438 311.227 381.971 310.321C382.086 310.137 382.155 309.904 382.155 309.579C382.155 307.005 381.208 305.033 379.08 305.033C377.347 305.033 376.121 306.563 376.121 308.699ZM375.381 317.374C375.821 317.421 376.33 317.374 377.022 317.306C378.202 317.142 379.311 316.655 380.168 315.842C381.161 314.939 381.879 313.616 382.155 311.83H382.086C381.254 312.851 380.051 313.455 378.548 313.455C375.844 313.455 374.111 311.411 374.111 308.838C374.111 305.984 376.167 303.478 379.241 303.478C382.317 303.478 384.214 305.984 384.214 309.835C384.214 313.153 383.103 315.472 381.625 316.912C380.468 318.047 378.873 318.743 377.255 318.93C376.515 319.046 375.867 319.069 375.381 319.046V317.374Z" fill="white"/>
<path d="M313.69 279.651V274.616C313.69 273.827 313.713 273.037 313.759 272.249H313.69C313.228 273.132 312.857 273.78 312.442 274.475L308.765 279.602V279.651H313.69ZM313.69 285.356V281.25H306.707V279.904L313.413 270.277H315.61V279.651H317.712V281.25H315.61V285.356H313.69Z" fill="white"/>
<path d="M349.598 271.993H343.865L343.287 275.867C343.635 275.821 343.958 275.775 344.513 275.775C345.668 275.775 346.825 276.031 347.75 276.588C348.928 277.261 349.9 278.558 349.9 280.462C349.9 283.409 347.565 285.612 344.303 285.612C342.662 285.612 341.274 285.149 340.558 284.684L341.067 283.131C341.692 283.501 342.918 283.965 344.28 283.965C346.2 283.965 347.842 282.713 347.842 280.695C347.819 278.745 346.523 277.353 343.517 277.353C342.662 277.353 341.992 277.446 341.438 277.514L342.408 270.277H349.598V271.993Z" fill="white"/>
<path d="M382.201 280.416C382.201 278.259 380.977 276.959 379.104 276.959C377.879 276.959 376.746 277.724 376.19 278.815C376.051 279.047 375.96 279.348 375.96 279.72C376.005 282.202 377.137 284.034 379.265 284.034C381.023 284.034 382.201 282.573 382.201 280.416ZM382.78 271.715C382.363 271.692 381.833 271.715 381.254 271.809C378.064 272.341 376.376 274.685 376.028 277.167H376.097C376.814 276.215 378.064 275.427 379.728 275.427C382.386 275.427 384.26 277.353 384.26 280.301C384.26 283.061 382.386 285.612 379.265 285.612C376.051 285.612 373.947 283.108 373.947 279.186C373.947 276.215 375.011 273.874 376.492 272.388C377.739 271.16 379.405 270.392 381.3 270.162C381.902 270.067 382.409 270.044 382.78 270.044V271.715Z" fill="white"/>
<path d="M311.818 240.118H311.771L309.158 241.533L308.766 239.977L312.048 238.214H313.782V253.294H311.818V240.118Z" fill="white"/>
<path d="M340.629 253.294V252.042L342.224 250.487C346.062 246.823 347.795 244.874 347.819 242.6C347.819 241.07 347.079 239.655 344.836 239.655C343.471 239.655 342.34 240.351 341.645 240.929L340.998 239.491C342.037 238.608 343.517 237.961 345.253 237.961C348.49 237.961 349.854 240.187 349.854 242.344C349.854 245.129 347.842 247.378 344.675 250.442L343.471 251.554V251.6H350.223V253.294H340.629Z" fill="white"/>
<path d="M374.687 250.952C375.265 251.323 376.607 251.902 378.017 251.902C380.629 251.902 381.438 250.232 381.415 248.98C381.392 246.869 379.498 245.964 377.532 245.964H376.399V244.432H377.532C379.011 244.432 380.885 243.667 380.885 241.88C380.885 240.675 380.12 239.606 378.248 239.606C377.045 239.606 375.89 240.141 375.242 240.604L374.71 239.12C375.496 238.539 377.022 237.961 378.64 237.961C381.599 237.961 382.942 239.723 382.942 241.556C382.942 243.111 382.017 244.432 380.168 245.105V245.153C382.017 245.524 383.52 246.916 383.52 249.027C383.52 251.439 381.646 253.55 378.041 253.55C376.353 253.55 374.873 253.017 374.134 252.529L374.687 250.952Z" fill="white"/>
<path d="M314.119 349.236C314.119 350.24 313.308 351.053 312.306 351.053C311.306 351.053 310.493 350.24 310.493 349.236C310.493 348.232 311.306 347.416 312.306 347.416C313.308 347.416 314.119 348.232 314.119 349.236Z" fill="white"/>
<path d="M422.369 262.467H412.83V252.894H410.375V262.467H400.836V264.928H410.375V274.5H412.83V264.928H422.369V262.467Z" fill="white"/>
<path d="M384.853 349.207L379.804 344.139L384.853 339.069L383.556 337.768L378.504 342.834L373.452 337.768L372.155 339.069L377.204 344.139L372.155 349.207L373.452 350.51L378.504 345.442L383.556 350.51L384.853 349.207Z" fill="white"/>
<path d="M419.001 312.658H403.024V310.204H419.001V312.658Z" fill="white"/>
<path d="M419.59 341.032H403.614V338.577H419.59V341.032Z" fill="white"/>
<path d="M419.59 347.213H403.614V344.757H419.59V347.213Z" fill="white"/>
<path d="M319.045 31.1005L319.003 31.0858C318.611 30.9433 318.213 30.8172 317.808 30.7018C317.67 30.6625 317.534 30.6199 317.396 30.5822C317.248 30.5446 317.102 30.511 316.954 30.4758C316.805 30.4398 316.656 30.4046 316.505 30.371C316.362 30.339 316.22 30.312 316.075 30.285C315.914 30.2531 315.754 30.2261 315.591 30.199C315.454 30.1761 315.316 30.1548 315.178 30.1335C315.002 30.109 314.826 30.0877 314.65 30.0664C314.522 30.0525 314.394 30.0377 314.264 30.0246C314.062 30.0058 313.859 29.9911 313.656 29.9788C313.549 29.9706 313.443 29.9616 313.335 29.9558C313.023 29.9411 312.709 29.9329 312.392 29.9329H167.414C167.077 29.9329 166.742 29.9411 166.409 29.9575C165.742 29.9911 165.085 30.0582 164.437 30.1589C164.114 30.2072 163.793 30.2662 163.475 30.3309C155.203 32.0291 148.834 38.9708 147.966 47.542C147.899 48.2028 147.866 48.871 147.866 49.5481V346.853C147.866 355.342 153.241 362.57 160.762 365.301C160.795 365.314 160.829 365.323 160.862 365.334C161.236 365.468 161.615 365.588 161.997 365.699C162.136 365.739 162.273 365.781 162.412 365.816C162.558 365.856 162.706 365.89 162.854 365.925C163.003 365.961 163.153 365.996 163.303 366.03C163.446 366.06 163.589 366.087 163.732 366.116C163.893 366.146 164.054 366.175 164.216 366.202C164.354 366.225 164.492 366.246 164.631 366.267C164.806 366.292 164.982 366.313 165.158 366.334C165.286 366.349 165.415 366.363 165.544 366.376C165.745 366.395 165.948 366.41 166.152 366.422C166.259 366.429 166.365 366.439 166.472 366.443C166.785 366.457 167.098 366.468 167.414 366.468H312.392C313.067 366.468 313.733 366.433 314.392 366.366C323.592 365.428 330.907 358.09 331.842 348.857C331.907 348.198 331.943 347.53 331.943 346.853V49.5481C331.943 41.0588 326.566 33.8312 319.045 31.1005Z" fill="#F47458"/>
<path d="M157.342 339.732H322.466V56.6683H157.342V339.732Z" fill="#F3FCFF"/>
<path d="M275.186 47.7729H204.892C204.791 47.7729 204.71 47.691 204.71 47.5903V44.406C204.71 44.3061 204.791 44.2242 204.892 44.2242H275.186C275.284 44.2242 275.366 44.3061 275.366 44.406V47.5903C275.366 47.691 275.284 47.7729 275.186 47.7729Z" fill="white"/>
<path d="M239.809 361.507C235.33 361.507 231.699 357.866 231.699 353.37C231.699 348.875 235.33 345.232 239.809 345.232C244.287 345.232 247.919 348.875 247.919 353.37C247.919 357.866 244.287 361.507 239.809 361.507Z" fill="#EC9988"/>
<path d="M157.342 339.732H322.466V327.855H157.342V339.732Z" fill="#CEEEF3"/>
<path d="M281.22 71.6892H199.557C199.107 67.1432 195.283 63.5904 190.632 63.5904H157.342V56.6683H281.22V71.6892Z" fill="#CEEEF3"/>
<path d="M79.5956 140.971H77.2898C75.9388 138.155 74.0736 132.934 73.5274 132.934C73.5086 132.934 73.4922 132.94 73.4775 132.953C72.3074 133.857 75.2052 139.003 74.5812 139.327C74.5649 139.336 74.5477 139.34 74.5296 139.34C74.1989 139.34 73.5888 137.964 72.9125 136.59C72.2362 135.215 71.4935 133.838 70.8966 133.838C70.8786 133.838 70.8606 133.839 70.8434 133.842C69.6185 134.018 73.1729 139.327 72.8298 139.797C72.8151 139.818 72.7922 139.828 72.7643 139.828C72.4933 139.828 71.6589 138.917 70.764 138.003C69.8699 137.091 68.9143 136.179 68.4026 136.179C68.2871 136.179 68.1946 136.227 68.1299 136.33C67.786 136.879 71.1513 140.319 70.8778 140.971H70.0868C69.6709 140.828 69.1485 140.571 68.6277 140.313C67.845 139.925 67.0655 139.537 66.6544 139.537C66.5242 139.537 66.4309 139.577 66.3859 139.665C66.2123 140.011 66.9525 140.419 67.8736 140.971H47.2276C42.2738 140.971 38.2584 136.942 38.2584 131.972V72.5906C38.2584 67.6189 42.2738 63.5904 47.2276 63.5904H111.017C111.52 66.8664 112.11 69.3818 112.313 70.7778C113.559 79.3155 126.025 118.857 81.7768 139.966C81.853 139.636 81.8309 139.424 81.6688 139.386C81.6385 139.378 81.6082 139.374 81.5771 139.374C81.1873 139.374 80.782 139.948 80.3702 140.623C80.1122 140.74 79.8568 140.856 79.5956 140.971Z" fill="#F4FAFD"/>
<path d="M147.866 140.971H81.4215C81.5902 140.576 81.7155 140.233 81.7769 139.966C126.025 118.857 113.559 79.3155 112.313 70.7778C112.11 69.3818 111.52 66.8664 111.017 63.5904H147.866V140.971ZM80.1606 140.971H79.5956C79.8568 140.856 80.1122 140.74 80.3702 140.623C80.3006 140.736 80.2302 140.853 80.1606 140.971Z" fill="#EAF4FC"/>
<path d="M81.4215 140.971H80.1606C80.2302 140.853 80.3006 140.736 80.3702 140.623C80.782 139.948 81.1873 139.374 81.5771 139.374C81.6082 139.374 81.6385 139.378 81.6688 139.386C81.8309 139.424 81.853 139.636 81.7769 139.967C81.7155 140.233 81.5902 140.577 81.4215 140.971ZM77.2898 140.971H70.8778C71.1513 140.319 67.786 136.879 68.1299 136.33C68.1946 136.227 68.2871 136.179 68.4026 136.179C68.9143 136.179 69.8699 137.091 70.764 138.003C71.6589 138.917 72.4933 139.828 72.7643 139.828C72.7922 139.828 72.8151 139.818 72.8298 139.797C73.1729 139.327 69.6185 134.018 70.8434 133.842C70.8606 133.84 70.8786 133.838 70.8966 133.838C71.4935 133.838 72.2362 135.215 72.9125 136.59C73.5889 137.965 74.1989 139.34 74.5297 139.34C74.5477 139.34 74.5649 139.336 74.5812 139.327C75.2052 139.003 72.3074 133.857 73.4775 132.954C73.4922 132.941 73.5086 132.934 73.5274 132.934C74.0736 132.934 75.9388 138.155 77.2898 140.971ZM70.0868 140.971H67.8736C66.9525 140.419 66.2123 140.011 66.3859 139.665C66.4309 139.577 66.5242 139.537 66.6544 139.537C67.0655 139.537 67.845 139.925 68.6277 140.313C69.1485 140.571 69.6709 140.828 70.0868 140.971Z" fill="#EC998C"/>
<path d="M147.866 140.971H157.342V63.5904H147.866V140.971Z" fill="#E97257"/>
<path d="M173.715 158.826C172.984 158.826 164.699 147.368 160.13 140.971H157.342V63.5904V71.6891H199.557C199.587 71.9847 199.602 72.2869 199.602 72.5906V131.972C199.602 136.942 195.585 140.971 190.632 140.971H172.153C173.081 148.003 174.4 158.826 173.715 158.826Z" fill="#E8F7FD"/>
<path d="M199.557 71.6891H157.342V63.5904H190.632C195.283 63.5904 199.107 67.1432 199.557 71.6891Z" fill="#C5E9F1"/>
<path d="M184.711 48.188H41.3069C36.3532 48.188 32.3378 52.2165 32.3378 57.1867V116.568C32.3378 121.538 36.3532 125.569 41.3069 125.569H154.209C158.779 131.966 167.063 143.424 167.794 143.424C168.479 143.424 167.161 132.601 166.231 125.569H184.711C189.666 125.569 193.68 121.538 193.68 116.568V57.1867C193.68 52.2165 189.666 48.188 184.711 48.188Z" fill="#9BC1F9"/>
<path d="M117.671 71.3601H47.3685C47.2579 71.3601 47.1678 71.2725 47.1678 71.1595V67.6419C47.1678 67.5306 47.2579 67.4405 47.3685 67.4405H117.671C117.782 67.4405 117.872 67.5306 117.872 67.6419V71.1595C117.872 71.2725 117.782 71.3601 117.671 71.3601Z" fill="white"/>
<path d="M77.425 81.7072H47.3685C47.2579 81.7072 47.1678 81.6171 47.1678 81.5058V77.9866C47.1678 77.8752 47.2579 77.7852 47.3685 77.7852H77.425C77.5363 77.7852 77.6264 77.8752 77.6264 77.9866V81.5058C77.6264 81.6171 77.5363 81.7072 77.425 81.7072Z" fill="white"/>
<path d="M175.652 81.7072H81.261C81.1496 81.7072 81.0596 81.6171 81.0596 81.5058V77.9866C81.0596 77.8752 81.1496 77.7852 81.261 77.7852H175.652C175.764 77.7852 175.854 77.8752 175.854 77.9866V81.5058C175.854 81.6171 175.764 81.7072 175.652 81.7072Z" fill="white"/>
<path d="M175.939 71.3601H125.299C125.188 71.3601 125.098 71.2725 125.098 71.1595V67.6419C125.098 67.5306 125.188 67.4405 125.299 67.4405H175.939C176.05 67.4405 176.14 67.5306 176.14 67.6419V71.1595C176.14 71.2725 176.05 71.3601 175.939 71.3601Z" fill="white"/>
<path d="M175.939 101.983H47.3685C47.2579 101.983 47.1678 101.895 47.1678 101.783V98.2642C47.1678 98.1528 47.2579 98.0627 47.3685 98.0627H175.939C176.05 98.0627 176.14 98.1528 176.14 98.2642V101.783C176.14 101.895 176.05 101.983 175.939 101.983Z" fill="white"/>
<path d="M113.594 92.0513H47.3685C47.2579 92.0513 47.1678 91.9612 47.1678 91.8499V88.3331C47.1678 88.2218 47.2579 88.1317 47.3685 88.1317H113.594C113.704 88.1317 113.795 88.2218 113.795 88.3331V91.8499C113.795 91.9612 113.704 92.0513 113.594 92.0513Z" fill="white"/>
<path d="M175.939 92.0513H117.865C117.753 92.0513 117.663 91.9612 117.663 91.8499V88.3331C117.663 88.2218 117.753 88.1317 117.865 88.1317H175.939C176.05 88.1317 176.14 88.2218 176.14 88.3331V91.8499C176.14 91.9612 176.05 92.0513 175.939 92.0513Z" fill="white"/>
<path d="M302.362 31.2575H346.081C346.18 31.2575 346.261 31.1773 346.261 31.079V27.9348C346.261 27.8366 346.18 27.7563 346.081 27.7563H302.362C302.261 27.7563 302.182 27.8366 302.182 27.9348V31.079C302.182 31.1773 302.261 31.2575 302.362 31.2575Z" fill="white"/>
<path d="M374.19 80.0468C365.129 80.0468 360.848 76.1313 364.894 64.628C369.694 50.9819 362.049 38.7424 346.261 28.6794V27.9351C346.261 27.8368 346.18 27.7566 346.081 27.7566H344.777C338.896 24.1702 331.97 20.8729 324.202 17.899H417.349C421.776 17.899 425.363 21.5001 425.363 25.9397V68.4346C421.94 69.3164 418.525 70.2368 415.163 71.1596C398.931 75.6032 383.847 80.0468 374.19 80.0468Z" fill="#F4FAFD"/>
<path d="M417.349 87.0287H331.942V49.5481C331.942 41.2185 326.767 34.1039 319.466 31.2578H346.081C346.18 31.2578 346.261 31.1775 346.261 31.0793V28.6794C362.049 38.7424 369.694 50.9819 364.893 64.628C360.848 76.1313 365.128 80.0468 374.19 80.0468C383.847 80.0468 398.931 75.6032 415.163 71.1596C418.525 70.2368 421.94 69.3164 425.363 68.4346V78.9906C425.363 83.4301 421.776 87.0287 417.349 87.0287ZM302.182 29.933H281.22V25.9397C281.22 21.5001 284.809 17.899 289.234 17.899H324.202C331.969 20.8729 338.896 24.1702 344.777 27.7566H302.362C302.261 27.7566 302.182 27.8368 302.182 27.9351V29.933Z" fill="#EAF4FC"/>
<path d="M331.942 87.0287H322.466V56.6684H281.22V29.9329H302.182V31.0792C302.182 31.1775 302.261 31.2577 302.362 31.2577H319.466C326.767 34.1039 331.942 41.2184 331.942 49.5481V87.0287Z" fill="#E97257"/>
<path d="M304.347 102.98C303.735 102.98 304.913 93.3128 305.743 87.0286H289.234C284.809 87.0286 281.22 83.4299 281.22 78.9904V71.6891H322.466V87.0286H316.486C312.403 92.7454 305.001 102.98 304.347 102.98Z" fill="#E8F7FD"/>
<path d="M281.22 71.6892H322.466V56.6675H281.22V71.6892Z" fill="#C5E9F1"/>
<path d="M346.081 31.2575H302.362C302.261 31.2575 302.182 31.1773 302.182 31.079V27.9348C302.182 27.8366 302.261 27.7563 302.362 27.7563H346.081C346.18 27.7563 346.261 27.8366 346.261 27.9348V31.079C346.261 31.1773 346.18 31.2575 346.081 31.2575Z" fill="#F4FAFD"/>
<path d="M294.525 4.13751H422.64C427.065 4.13751 430.654 7.7386 430.654 12.1781V65.229C430.654 69.6694 427.065 73.268 422.64 73.268H321.775C317.693 78.9841 310.292 89.2199 309.638 89.2199C309.026 89.2199 310.203 79.5523 311.034 73.268H294.525C290.098 73.268 286.511 69.6694 286.511 65.229V12.1781C286.511 7.7386 290.098 4.13751 294.525 4.13751Z" fill="#9BC1F9"/>
<path d="M375.221 24.8408H414.029C414.128 24.8408 414.209 24.7613 414.209 24.6606V21.5189C414.209 21.4198 414.128 21.3387 414.029 21.3387H375.221C375.123 21.3387 375.041 21.4198 375.041 21.5189V24.6606C375.041 24.7613 375.123 24.8408 375.221 24.8408Z" fill="white"/>
<path d="M387.932 36.282H414.029C414.128 36.282 414.209 36.2001 414.209 36.1019V32.9577C414.209 32.8586 414.128 32.7792 414.029 32.7792H387.932C387.831 32.7792 387.752 32.8586 387.752 32.9577V36.1019C387.752 36.2001 387.831 36.282 387.932 36.282Z" fill="white"/>
<path d="M352.178 36.282H384.377C384.476 36.282 384.558 36.2001 384.558 36.1019V32.9577C384.558 32.8586 384.476 32.7792 384.377 32.7792H352.178C352.08 32.7792 351.998 32.8586 351.998 32.9577V36.1019C351.998 36.2001 352.08 36.282 352.178 36.282Z" fill="white"/>
<path d="M302.552 36.282H347.695C347.795 36.282 347.876 36.2001 347.876 36.1019V32.9577C347.876 32.8586 347.795 32.7792 347.695 32.7792H302.552C302.454 32.7792 302.372 32.8586 302.372 32.9577V36.1019C302.372 36.2001 302.454 36.282 302.552 36.282Z" fill="white"/>
<path d="M302.362 24.8408H367.694C367.795 24.8408 367.875 24.7613 367.875 24.6606V21.5189C367.875 21.4182 367.795 21.3387 367.694 21.3387H302.362C302.261 21.3387 302.182 21.4182 302.182 21.5189V24.6606C302.182 24.7613 302.261 24.8408 302.362 24.8408Z" fill="white"/>
<path d="M302.362 58.6875H414.029C414.128 58.6875 414.209 58.6056 414.209 58.5074V55.3648C414.209 55.2641 414.128 55.1847 414.029 55.1847H302.362C302.261 55.1847 302.182 55.2641 302.182 55.3648V58.5074C302.182 58.6056 302.261 58.6875 302.362 58.6875Z" fill="white"/>
<path d="M356.516 47.6157H414.029C414.128 47.6157 414.209 47.5363 414.209 47.4355V44.293C414.209 44.1947 414.128 44.1129 414.029 44.1129H356.516C356.417 44.1129 356.335 44.1947 356.335 44.293V47.4355C356.335 47.5363 356.417 47.6157 356.516 47.6157Z" fill="white"/>
<path d="M302.362 47.6157H353.285C353.384 47.6157 353.466 47.5363 353.466 47.4355V44.293C353.466 44.1923 353.384 44.1129 353.285 44.1129H302.362C302.261 44.1129 302.182 44.1923 302.182 44.293V47.4355C302.182 47.5363 302.261 47.6157 302.362 47.6157Z" fill="white"/>
<path d="M198.65 163.98C198.65 163.98 166.646 168.6 171.536 199.488C176.095 228.285 203.542 222.437 210.589 220.993C217.639 219.551 198.65 163.98 198.65 163.98Z" fill="#F7CC7F"/>
<path d="M210.589 220.993C213.872 220.322 211.509 207.915 208.047 194.846C196.264 197.156 183.139 199.734 171.996 201.933C177.69 227.946 203.748 222.395 210.589 220.993Z" fill="#E8BA70"/>
<path d="M217.062 226.334C217.062 226.334 224.093 251.432 222.241 270.933C220.514 289.119 223.105 292.15 229.865 291.573C236.625 290.995 253.023 286.954 253.312 280.46C253.6 273.964 250.579 240.623 239.216 222.726C227.851 204.827 217.062 226.334 217.062 226.334Z" fill="#96D9C9"/>
<path d="M227.987 215.865C223.48 218.895 217.062 226.334 217.062 226.334C217.062 226.334 224.093 251.432 222.241 270.933C220.514 289.119 223.105 292.15 229.865 291.573C232.345 291.362 236.12 290.682 239.922 289.591C242.62 244.893 231.089 220.924 227.987 215.865Z" fill="#50BFA5"/>
<path d="M295.602 103.144C295.602 103.144 242.524 141.788 225.369 153.481L215.337 168.42L222.457 211.937L239.61 220.381L323.437 236.942L321.495 227.524L306.284 185.306L298.516 137.244L296.249 107.69L295.602 103.144Z" fill="#96D9C9"/>
<path d="M306.284 185.306L304.247 172.706L219.418 193.364L222.457 211.938L239.611 220.381L323.437 236.942L321.495 227.524L306.284 185.306Z" fill="#50BFA5"/>
<path d="M225.369 153.481C225.369 153.481 218.358 190.393 239.611 220.381C239.611 220.381 240.797 223.158 238.208 224.892L222.386 228.932C222.386 228.932 215.05 231.53 208.865 220.993C202.679 210.458 191.745 186.786 198.22 160.662C198.22 160.662 199.8 153.59 208.432 152.29L219.94 150.125C219.94 150.125 225.047 149.33 225.369 153.481Z" fill="#3C8F7C"/>
<path d="M295.602 103.144C295.602 103.144 309.412 92.9674 317.396 93.1852C325.38 93.4014 333.362 104.01 338.541 112.669C343.719 121.33 357.312 155.321 358.608 178.269C359.9 201.22 359.687 233.911 348.467 237.807C337.246 241.707 323.437 236.942 323.437 236.942C323.437 236.942 305.311 221.355 294.74 172.857C284.168 124.361 295.602 103.144 295.602 103.144Z" fill="#256653"/>
<path d="M340.518 239.108C340.518 239.108 353.426 222.33 346.848 177.029C336.491 105.704 310.384 94.9171 310.384 94.9171C310.384 94.9171 291.06 109.642 309.521 178.569C324.732 235.366 340.518 239.108 340.518 239.108Z" fill="#3C8F7C"/>
<path d="M303.341 149.565C304.595 157.962 306.575 167.572 309.521 178.569C310.994 184.071 312.474 189.072 313.943 193.623C321.97 190.835 334.952 183.847 329.408 166.12C324.27 149.695 310.898 148.691 303.341 149.565Z" fill="#F7CC7F"/>
<path d="M309.521 178.569C310.994 184.071 312.474 189.072 313.943 193.623C321.858 190.873 334.592 184.038 329.626 166.848L307.808 171.893C308.34 174.061 308.908 176.284 309.521 178.569Z" fill="#E8BA70"/>
<path d="M220.165 229.216H220.29V229.213H220.165V229.216Z" fill="#3EA68B"/>
<path d="M220.292 229.216C221.585 229.216 222.386 228.932 222.386 228.932L232.705 226.296L222.386 228.932C222.386 228.932 221.585 229.216 220.292 229.216Z" fill="#3EA68B"/>
<path d="M209.015 221.248C208.964 221.164 208.914 221.079 208.865 220.993C208.743 220.787 208.621 220.577 208.498 220.362C208.621 220.577 208.743 220.787 208.865 220.993C208.914 221.079 208.964 221.164 209.015 221.248Z" fill="#B3A15E"/>
<path d="M239.61 220.381C239.6 220.364 239.587 220.345 239.574 220.329C239.587 220.348 239.597 220.362 239.61 220.381Z" fill="#3EA68B"/>
<path d="M208.488 220.348C208.484 220.342 208.483 220.336 208.479 220.33C208.483 220.336 208.487 220.342 208.488 220.348Z" fill="#B3A15E"/>
<path d="M239.563 220.315C239.558 220.304 239.547 220.288 239.539 220.278C239.547 220.29 239.555 220.303 239.563 220.315Z" fill="#3EA68B"/>
<path d="M208.463 220.301L208.459 220.299C208.463 220.301 208.459 220.299 208.463 220.301Z" fill="#B3A15E"/>
<path d="M239.526 220.261C239.518 220.25 239.51 220.236 239.502 220.225C239.51 220.237 239.518 220.248 239.526 220.261Z" fill="#3EA68B"/>
<path d="M239.491 220.211C239.48 220.194 239.468 220.177 239.455 220.161C239.468 220.177 239.478 220.194 239.491 220.211ZM239.453 220.158C239.443 220.142 239.432 220.125 239.42 220.108C239.43 220.125 239.443 220.142 239.453 220.158ZM239.409 220.095C239.401 220.08 239.392 220.071 239.384 220.058C239.392 220.071 239.401 220.083 239.409 220.095ZM239.373 220.043C239.363 220.028 239.354 220.018 239.346 220.003C239.354 220.016 239.363 220.028 239.373 220.043ZM239.335 219.99C239.312 219.955 239.29 219.922 239.264 219.888C239.29 219.922 239.312 219.955 239.335 219.99ZM239.256 219.876C239.248 219.863 239.237 219.848 239.229 219.836C239.237 219.848 239.248 219.863 239.256 219.876ZM239.22 219.823C239.21 219.809 239.199 219.794 239.189 219.779C239.199 219.794 239.21 219.809 239.22 219.823ZM239.185 219.771C239.159 219.737 239.135 219.701 239.111 219.666C239.135 219.701 239.159 219.737 239.185 219.771ZM239.105 219.656C239.095 219.642 239.082 219.626 239.073 219.614C239.084 219.628 239.095 219.642 239.105 219.656ZM239.068 219.603C239.057 219.588 239.046 219.571 239.036 219.556C239.046 219.574 239.057 219.588 239.068 219.603ZM239.032 219.551C239.006 219.515 238.982 219.479 238.958 219.443C238.982 219.479 239.006 219.515 239.032 219.551ZM238.954 219.439C238.944 219.423 238.931 219.406 238.92 219.389C238.931 219.406 238.944 219.423 238.954 219.439ZM238.916 219.385C238.881 219.33 238.843 219.274 238.806 219.222C238.843 219.276 238.881 219.33 238.916 219.385ZM238.803 219.219C238.793 219.203 238.78 219.181 238.768 219.165C238.78 219.184 238.791 219.2 238.803 219.219Z" fill="#3EA68B"/>
<path d="M226.882 191.546C226.878 191.53 226.877 191.513 226.872 191.496C226.877 191.513 226.881 191.53 226.882 191.546Z" fill="#73BCAA"/>
<path d="M238.768 219.165C232.63 210.134 228.985 200.537 226.882 191.546C228.985 200.537 232.63 210.134 238.768 219.165Z" fill="#3EA68B"/>
<path d="M220.29 229.216C220.248 229.216 220.206 229.216 220.165 229.213C217.549 229.176 213.052 227.966 209.015 221.248C208.964 221.165 208.914 221.079 208.864 220.993C208.742 220.787 208.621 220.578 208.498 220.362C208.493 220.357 208.491 220.353 208.489 220.349C208.487 220.343 208.483 220.337 208.479 220.33C208.472 220.32 208.466 220.311 208.462 220.301C208.459 220.299 208.462 220.301 208.459 220.299C208.447 220.278 208.436 220.257 208.424 220.234C205.389 214.947 201.402 206.756 198.83 196.808L226.872 191.496C226.876 191.513 226.878 191.53 226.882 191.546C228.985 200.537 232.63 210.135 238.768 219.165C238.78 219.181 238.792 219.203 238.803 219.219C238.806 219.219 238.806 219.219 238.806 219.222C238.843 219.274 238.881 219.331 238.916 219.385C238.919 219.385 238.919 219.387 238.92 219.389C238.931 219.406 238.944 219.423 238.954 219.439C238.956 219.439 238.956 219.442 238.958 219.444C238.982 219.48 239.006 219.515 239.032 219.551C239.032 219.552 239.034 219.555 239.036 219.557C239.046 219.571 239.057 219.588 239.068 219.603C239.069 219.607 239.072 219.609 239.073 219.614C239.082 219.626 239.095 219.642 239.105 219.656C239.107 219.66 239.109 219.664 239.111 219.666C239.135 219.701 239.159 219.737 239.185 219.771C239.185 219.773 239.187 219.777 239.189 219.779C239.199 219.794 239.21 219.809 239.22 219.823C239.222 219.828 239.225 219.832 239.229 219.836C239.237 219.848 239.248 219.863 239.256 219.876C239.26 219.88 239.262 219.884 239.264 219.888C239.289 219.922 239.312 219.955 239.335 219.99C239.339 219.995 239.342 219.999 239.346 220.004C239.354 220.018 239.363 220.028 239.373 220.043C239.375 220.048 239.38 220.052 239.384 220.058C239.392 220.071 239.401 220.081 239.409 220.095C239.413 220.1 239.416 220.104 239.42 220.108C239.432 220.125 239.443 220.142 239.453 220.158C239.455 220.158 239.455 220.158 239.455 220.161C239.468 220.177 239.48 220.194 239.491 220.211C239.495 220.215 239.499 220.221 239.502 220.225C239.51 220.236 239.518 220.251 239.526 220.261C239.53 220.267 239.534 220.274 239.539 220.278C239.547 220.289 239.558 220.305 239.564 220.316C239.568 220.32 239.57 220.324 239.574 220.329C239.587 220.345 239.6 220.364 239.61 220.381C239.61 220.381 239.882 221.016 239.882 221.869C239.882 222.8 239.558 223.988 238.208 224.892L232.705 226.296L222.386 228.933C222.386 228.933 221.585 229.216 220.292 229.216H220.29Z" fill="#2E7C69"/>
<path d="M510.116 72.1299L509.987 86.0331L518.798 77.7395L546.567 58.8784L523.902 63.8207C523.902 63.8207 512.575 68.1137 512.012 68.7654C511.451 69.4172 510.116 72.1299 510.116 72.1299Z" fill="#DD513A"/>
<path d="M498.948 65.1267L546.567 58.8784L510.116 72.1299L498.948 65.1267Z" fill="#F47458"/>
<path d="M527.128 83.9959L513.403 75.4755L546.567 58.8784L527.128 83.9959Z" fill="#F47458"/>
<path d="M485.983 89.0938C487.354 87.0124 489.026 85.1447 490.955 83.5415L491.676 84.4152C489.833 85.948 488.234 87.7313 486.926 89.721L485.983 89.0938ZM472.857 94.9965C474.056 94.4602 476.245 93.5292 477.431 93.3262C478.35 93.1665 479.2 93.0511 480.023 92.9757L480.126 94.1057C479.334 94.1794 478.514 94.2899 477.622 94.443C476.844 94.5773 475.273 95.1578 473.316 96.0323L472.857 94.9965ZM487.272 94.7599L487.121 94.7091L487.474 93.6316L487.636 93.6864C490.091 94.5249 492.232 96.1576 493.51 98.1661L492.558 98.7777C491.414 96.9813 489.488 95.5181 487.272 94.7599ZM482.585 101.164C482.451 100.084 482.451 98.9538 482.587 97.805C482.661 97.1893 482.776 96.5563 482.927 95.9234L484.027 96.1895C483.885 96.7782 483.78 97.3669 483.71 97.9417C483.585 98.9964 483.583 100.034 483.709 101.023C483.796 101.723 483.958 102.421 484.186 103.098L483.118 103.465C482.862 102.717 482.684 101.941 482.585 101.164ZM461.072 103.811C462.703 102.029 464.493 100.311 466.394 98.6959L467.124 99.5622C465.26 101.145 463.504 102.832 461.907 104.58L461.072 103.811ZM488.148 109.395C488.077 109.362 488.007 109.328 487.939 109.292L488.445 108.28C488.507 108.309 488.567 108.341 488.62 108.363C488.62 108.363 488.653 108.377 488.737 108.386C489.364 108.462 490.971 108.261 491.806 107.611C492.508 107.064 493.034 106.293 493.367 105.32L494.437 105.691C494.036 106.858 493.366 107.833 492.499 108.506C491.342 109.41 489.391 109.606 488.603 109.512C488.417 109.489 488.268 109.452 488.148 109.395ZM452.833 116.048C453.816 113.872 455.042 111.703 456.475 109.598L457.408 110.239C456.012 112.29 454.82 114.403 453.862 116.518L452.833 116.048ZM449.728 129.518C449.738 128.411 449.81 127.288 449.944 126.174C450.066 125.15 450.242 124.11 450.468 123.087L451.572 123.332C451.355 124.319 451.185 125.322 451.067 126.308C450.939 127.379 450.868 128.463 450.86 129.53C450.856 129.842 450.858 130.155 450.864 130.467L449.734 130.492C449.728 130.163 449.726 129.834 449.728 129.518Z" fill="#6DB1B5"/>
<path d="M497.761 80.7345C498.902 80.2629 500.064 79.8895 501.222 79.6259L500.97 78.5189C499.752 78.7956 498.528 79.1895 497.33 79.684L497.761 80.7345Z" fill="#6DB1B5"/>
<path d="M380.057 217.703L379.479 218.223C379.181 218.49 378.732 218.48 378.479 218.199L368.204 206.865C367.948 206.582 367.981 206.137 368.281 205.871L368.86 205.349C369.157 205.083 369.606 205.093 369.86 205.375L380.135 216.71C380.39 216.991 380.355 217.436 380.057 217.703Z" fill="#13375B"/>
<path d="M414.895 208.495C413.52 207.374 402.901 212.051 403.035 213.679C403.169 215.306 395.623 231.088 395.623 231.088L382.583 220.655L382.579 220.657C382.463 220.28 381.227 216.224 381.166 215.497C381.103 214.735 378.9 213.402 377.877 213.6C376.852 213.797 378.751 215.083 378.877 215.321C379.217 215.964 377.904 216.205 377.904 216.205C377.904 216.205 374.135 214.13 374.056 212.91C373.976 211.69 373.199 209.133 372.383 209.667C371.964 209.944 371.968 211.759 372.098 212.619C371.857 211.642 371.513 210.539 371.18 210.429C370.57 210.229 370.268 211.007 370.379 211.391C370.49 211.772 371.473 215.92 371.773 216.388C372.065 216.845 378.15 221.762 379.026 222.831C379.026 222.831 395.893 242.178 397.094 242.684C398.147 243.128 401.905 236.46 405.454 232.035C409.005 227.608 419.186 211.997 414.895 208.495Z" fill="#F7A491"/>
<path d="M448.928 350.755C448.928 350.755 451.243 353.026 451.298 353.858C451.351 354.692 451.501 363.613 450.556 364.446C449.611 365.28 446.832 365.869 447.724 366.805C448.4 367.514 453.596 367.363 457.04 367.172C458.044 367.118 459.304 359.071 459.702 357.887C460.28 356.17 461.686 352.3 461.161 351.103C460.905 350.521 459.679 349.322 457.953 348.202C456.137 347.025 454.398 344.405 454.398 344.405L448.928 350.755Z" fill="#F48C7F"/>
<path d="M424.918 356.04L426.994 361.934C427.149 362.867 427.757 365.169 427.757 366.015C427.757 369.195 413.459 363.313 416.662 361.905C416.953 361.777 417.863 360.758 417.958 359.674C418.104 358.006 416.754 355.914 416.754 355.914L424.918 356.04Z" fill="#F7A491"/>
<path d="M402.488 246.561C402.488 246.561 401.446 257.101 401.446 257.258C401.446 274.308 398.078 307.611 398.719 310.816C400.28 318.635 417.1 358.518 417.1 358.518L426.189 357.428L414.343 309.676L418.703 290.456L424.872 252.462L402.488 246.561Z" fill="#355389"/>
<path d="M432.995 255.883L434.72 265.873L439.388 306.985L457.159 347.167C457.159 347.167 454.66 353.014 450.971 353.835L422.686 312.581L405.116 259.792L405.733 248.064L432.995 255.883Z" fill="#13375B"/>
<path d="M398.864 221.464L411.468 222.756C411.468 222.756 412.046 212.388 412.046 207.442C412.046 201.442 411.536 193.712 410.813 193.879C408.787 194.345 406.058 195.468 404.433 197.709C398.809 205.463 398.864 221.464 398.864 221.464Z" fill="#86B1F2"/>
<path d="M405.056 206.383C404.791 208.213 399.946 257.952 399.946 257.952C422.896 269.073 435.561 259.932 435.561 259.932C435.561 259.932 434.81 225.005 435.709 220.251C436.304 217.107 437.049 196.206 435.018 195.621C432.41 194.87 429.421 194.072 426.164 193.732C423.382 193.443 412.58 193.275 410.648 193.927C410.648 193.927 406.164 198.69 405.056 206.383Z" fill="#9BC1F9"/>
<path d="M457.841 348.146C457.841 348.146 452.5 363.238 450.407 363.966C449.852 364.161 447.188 364.651 446.684 365.833C446.534 366.19 446.684 367.378 446.684 367.378H457.819C457.819 367.378 459.228 360.729 459.785 357.807C459.785 357.807 462.733 350.668 462.405 350.02C462.077 349.37 457.841 348.146 457.841 348.146Z" fill="#184655"/>
<path d="M428.57 367.063L426.931 361.875C426.931 361.875 423.493 363.334 421.774 363.091C420.055 362.848 416.697 361.875 416.697 361.875C409.835 364.142 404.213 365.24 405.236 367.063H428.57Z" fill="#184655"/>
<path d="M397.094 242.684C397.042 242.662 396.855 242.516 396.749 242.426C397.155 237.552 397.082 232.832 395.558 231.234C395.594 231.159 395.927 230.448 396.275 229.711C398.042 231.081 398.88 234.725 398.551 240.636C398.531 241.042 398.413 241.352 398.319 241.86C397.807 242.424 397.342 242.788 397.094 242.684Z" fill="#F7A491"/>
<path d="M458.291 258.478C458.306 258.371 458.308 258.264 458.297 258.157C457.96 254.713 455.109 225.788 454.629 224.56C454.195 223.449 441.413 205.104 441.413 205.104L435.129 213.694L447.423 230.149C447.7 231.193 452.134 250.718 452.134 250.718C452.134 250.718 453.045 254.277 453.451 256.409C453.264 256.922 453.083 257.409 452.92 257.807C452.514 258.656 452.034 259.354 451.596 259.943C451.047 260.681 450.139 262.295 450.026 262.729C449.896 263.23 449.662 264.274 449.529 264.905C449.395 265.534 449.214 266.267 449.183 266.609C449.165 266.819 448.951 267.234 448.787 267.527C448.542 267.963 448.959 268.478 449.435 268.319C449.881 268.17 450.227 267.591 450.444 267.23C451.047 266.208 451.37 264.347 451.52 264.446C451.672 264.544 452.201 267.705 452.286 268.061C452.369 268.42 453.005 272.09 453.363 272.761C453.721 273.432 454.198 273.318 454.323 272.899C454.432 272.536 453.927 267.401 453.927 267.401C453.927 267.401 453.864 266.747 454.149 266.95C454.436 267.156 454.904 271.817 455.102 272.499C455.302 273.182 455.755 273.542 456.138 272.996C456.608 272.329 455.803 267.384 455.803 267.384C455.803 267.384 455.712 266.762 455.977 266.82C456.241 266.877 456.572 270.851 456.779 271.195C456.985 271.539 457.505 271.663 457.752 271.089C458.044 270.413 457.289 266.005 457.289 266.005C457.289 266.005 457.325 265.655 457.49 265.772C457.656 265.888 458.18 269.254 458.522 269.566C458.807 269.828 459.046 269.575 459.046 269.575C459.672 269.145 458.713 265.942 458.723 264.351C458.731 262.758 457.995 260.968 458.216 259.073C458.228 258.954 458.268 258.662 458.291 258.478Z" fill="#F8A492"/>
<path d="M451.399 216.723L440.48 224.08C440.48 224.08 434.326 214.891 431.022 211.619C426.882 207.521 432.53 194.965 435.196 195.675C441.159 197.265 451.399 216.723 451.399 216.723Z" fill="#9BC1F9"/>
<path d="M425.361 182.979L426.994 193.781C426.994 193.781 421.031 206.642 417.469 205.527C414.482 204.59 416.32 193.211 416.32 193.211C416.32 193.211 417.947 187.1 417.458 184.042C416.972 180.984 425.361 182.979 425.361 182.979Z" fill="#F7A491"/>
<path d="M417.458 184.042C416.972 180.984 425.361 182.979 425.361 182.979L425.497 183.876C425.251 184.476 424.95 184.988 424.587 185.381C422.713 187.405 419.783 188.62 417.251 188.712C417.505 187.062 417.659 185.295 417.458 184.042Z" fill="#F47458"/>
<path d="M426.738 167.699C426.975 167.613 428.639 180.001 425.481 183.409C422.323 186.817 416.173 187.934 413.966 185.249C411.527 182.279 411.65 168.964 416.557 165.457C421.466 161.951 426.738 167.699 426.738 167.699Z" fill="#F7A491"/>
<path d="M418.427 158.83C422.221 159.607 424.677 161.934 425.58 162.926C427.304 163.129 429.645 164.085 432.062 168.101C435.034 173.04 432.84 178.512 429.379 181.197C425.919 183.883 425.966 186.983 425.966 186.983L425.419 185.38C425.015 184.164 424.852 182.874 424.985 181.6C425.067 180.835 425.231 180.009 425.545 179.33C426.377 177.536 423.757 176.345 423.023 174.852C422.458 173.704 422.431 171.078 421.537 169.178L420.474 167.728C420.474 167.728 418.018 165.812 415.616 166.353C413.213 166.894 413.557 157.834 418.427 158.83Z" fill="#184655"/>
<path d="M423.185 177.057C423.16 178.569 423.843 179.806 424.713 179.822C425.583 179.837 426.308 178.624 426.333 177.112C426.358 175.601 425.676 174.362 424.805 174.347C423.936 174.332 423.21 175.547 423.185 177.057Z" fill="#F7A491"/>
<path d="M418.058 180.549L413.299 180.302C413.299 180.302 413.314 182.122 415.404 182.292C417.953 182.497 418.058 180.549 418.058 180.549Z" fill="white"/>
<path d="M204.334 366.606L206.661 366.164L196.606 312.646L194.279 313.088L204.334 366.606Z" fill="#0E2E35"/>
<path d="M178.4 366.85H175.601L186.033 312.646L188.36 313.088L178.4 366.85Z" fill="#0E2E35"/>
<path d="M152.657 366.85L154.93 366.877L144.929 312.889L142.602 313.331L152.657 366.85Z" fill="#0E2E35"/>
<path d="M162.81 239.648C153.596 240.637 141.67 241.684 129.697 262.068C116.613 284.348 123.501 317.631 133.828 326.878C144.156 336.127 177.886 347.546 206.239 330.451C206.239 330.451 223.361 320.091 214.574 302.897C201.054 276.438 202.963 270.918 196.918 260.549C190.873 250.18 182.371 237.545 162.81 239.648Z" fill="#FAE0B2"/>
<path d="M129.697 262.068C137.869 248.155 146.018 243.252 153.299 241.224C150.483 244.151 147.628 247.911 144.77 252.778C131.685 275.058 138.573 308.34 148.901 317.589C158.06 325.791 185.622 335.695 211.52 325.91C208.858 328.868 206.239 330.451 206.239 330.451C177.886 347.546 144.156 336.126 133.828 326.878C123.501 317.631 116.613 284.348 129.697 262.068Z" fill="#F7CC7F"/>
<path d="M192.397 273.513L194.766 280.642L187.546 277.794L192.397 273.513Z" fill="#F79C8D"/>
<path d="M184.954 252.296C185.435 252.315 186.754 252.757 188.683 256.401C191.146 261.054 194.744 275.113 194.744 275.113L184.002 279.114L182.62 276.18L180.348 253.59C180.348 253.59 184.821 252.29 184.954 252.296Z" fill="#DD513A"/>
<path d="M170.753 250.27C173.826 250.274 181.426 251.169 184.954 252.296C184.954 252.296 187.546 274.572 182.62 291.498C181.518 295.288 183.532 307.207 183.532 307.207L151.7 306.785C151.7 306.785 155.471 277.974 154.051 273.321C152.629 268.665 152.596 252.447 152.596 252.447C152.596 252.447 152.814 252.412 159.748 251.215C162.982 250.655 167.473 250.265 170.753 250.27Z" fill="#F47458"/>
<path d="M167.044 348.55C167.044 348.55 167.749 356.677 169.043 358.929C170.338 361.179 168.975 365.007 168.907 365.531C168.839 366.057 166.181 366.808 161.955 366.358C157.73 365.906 157.798 364.932 158.139 363.356C158.481 361.779 160.729 359.755 160.865 358.254C161.002 356.753 159.57 351.351 159.57 351.351L167.044 348.55Z" fill="#F7A491"/>
<path d="M179.942 300.497C179.942 300.497 201.915 299.276 206.822 302.249C211.729 305.219 205.936 311.324 205.936 311.324C205.936 311.324 188.046 319.1 158.096 320.829C151.004 321.238 150.392 302.337 151.719 300.773C153.045 299.208 179.942 300.497 179.942 300.497Z" fill="#256653"/>
<path d="M161.429 366.988C157.078 366.525 157.616 364.387 157.966 362.765C158.187 361.748 159.434 360.551 160.179 359.419C160.568 359.727 161.2 360.274 163.09 360.834C165.051 361.412 167.741 360.266 169.455 359.547C170.066 361.821 170.094 364.72 170.037 365.16C169.967 365.701 165.779 367.451 161.429 366.988Z" fill="#184655"/>
<path d="M163.83 316.218C164.708 322.861 169.055 355.934 169.055 355.934L158.969 357.182C158.969 357.182 146.566 314.017 147.201 307.414C147.838 300.811 152.48 300.256 152.48 300.256C152.48 300.256 161.507 298.631 163.83 316.218Z" fill="#3C8F7C"/>
<path d="M152.249 254.923C155.226 253.805 156.682 280.623 157.083 291.662C162.353 292.168 171.54 291.666 173.828 291.494C174.904 291.412 177.384 290.505 178.454 290.364C179.552 290.221 180.545 290.146 181.084 290.24C181.282 290.274 186.775 292.521 187.245 293.013C187.83 293.623 189.404 295.166 189.137 295.833C188.871 296.499 186.108 293.976 186.108 293.976L184.757 293.217C186.438 294.86 189.646 297.023 189.184 297.812C188.733 298.58 185.841 296.384 183.777 294.888C185.547 296.484 187.744 299.346 187.238 299.791C186.784 300.191 184.283 296.881 181.612 295.928C180.621 295.575 179.633 296.554 178.856 296.671C178.283 296.757 177.4 296.942 176.838 296.782L173.946 295.963C172.96 296.053 172.936 296.636 171.94 296.847C170.785 297.093 168.89 297.352 167.418 297.711C158.947 299.782 156.122 300.742 153.528 300.74C145.671 300.736 145.215 257.562 152.249 254.923Z" fill="#F7A491"/>
<path d="M146.601 280.099C146.044 268.793 146.125 254.857 152.463 252.479C154.964 251.542 159.373 257.182 158.58 280.33C155.196 280.609 150.229 280.833 146.601 280.099Z" fill="#DD513A"/>
<path d="M182.061 275.241H181.415L171.702 299.109L172.371 299.009L182.061 275.241Z" fill="#F79C8D"/>
<path d="M196.537 355.504C196.537 355.504 195.659 358.325 197.233 360.19C198.809 362.056 205.358 363.888 206.217 364.899C207.076 365.909 207.012 366.768 207.012 366.768L188.632 366.263L188.833 360.712L189.68 356.724L196.537 355.504Z" fill="#F7A491"/>
<path d="M198.377 361.121C198.377 361.121 193.655 363.031 191.374 361.901C189.091 360.769 189.161 360.456 188.5 360.878C187.84 361.299 187.605 366.502 187.605 366.502L208.271 367.11C209.709 367.076 210.437 366.018 209.267 365.11C208.466 364.49 207.541 364.072 207.016 363.77C205.397 362.844 198.377 361.121 198.377 361.121Z" fill="#184655"/>
<path d="M195.841 305.706C197.262 302.716 200.492 298.824 206.177 301.168C211.598 303.404 213.054 308.898 211.341 314.524C209.632 320.152 198.371 353.227 197.979 357.776L188.989 357.835C188.989 357.835 190.622 331.645 191.022 325.315C191.408 319.223 193.382 310.879 195.841 305.706Z" fill="#3C8F7C"/>
<path d="M210.438 275.241H180.382C179.588 275.241 178.871 275.723 178.569 276.462L169.315 299.109H152.745C152.281 299.109 151.906 299.486 151.906 299.95C151.906 300.415 152.281 300.792 152.745 300.792H199.904C201.201 300.792 202.376 300.027 202.907 298.841L212.224 278.014C212.807 276.712 211.86 275.241 210.438 275.241Z" fill="black"/>
<path d="M194.256 288.429C194.053 289.446 193.168 290.127 192.28 289.949C191.393 289.771 190.838 288.802 191.041 287.784C191.244 286.767 192.129 286.086 193.015 286.264C193.904 286.443 194.459 287.413 194.256 288.429Z" fill="white"/>
<path d="M177.896 223.062C176.99 222.758 176.099 222.414 175.237 221.999C174.264 221.529 173.003 220.978 172.205 220.857C170.528 220.596 167.647 220.771 166.055 222.496C164.073 224.646 160.55 222.883 161.259 234.148C162.063 246.897 169.152 245.496 169.324 245.281C169.496 245.065 175.646 237.125 175.646 237.125C175.646 237.125 177.797 241.828 177.797 241.657C177.797 241.489 188.777 226.727 177.896 223.062Z" fill="#0E2E35"/>
<path d="M172.515 246.224L173.126 250.779C173.126 250.779 174.497 257.342 172.733 258.607C170.97 259.872 165.234 250.592 165.234 250.592L165.84 239.049L172.515 246.224Z" fill="#F7A491"/>
<path d="M165.644 242.788C167.101 246.727 170.57 249.145 173.033 250.085L172.515 246.224L165.84 239.049L165.644 242.788Z" fill="#F47458"/>
<path d="M172.152 226.487C175.889 225.883 179.242 228.889 179.147 232.63C179.108 234.257 178.973 236.286 178.636 238.472C177.824 243.732 174.236 248.362 171.863 247.949C169.491 247.536 163.522 243 164.573 235.515C165.222 230.895 168.231 227.12 172.152 226.487Z" fill="#F7A491"/>
<path d="M166.219 236.407C166.019 237.564 165.092 238.369 164.15 238.204C163.207 238.041 162.606 236.969 162.806 235.815C163.006 234.658 163.933 233.853 164.875 234.018C165.818 234.182 166.42 235.253 166.219 236.407Z" fill="#F7A491"/>
<path d="M164.875 234.018C164.875 234.018 167.744 234.73 168.808 232.886C169.872 231.039 173.678 227.059 178.517 228.711C183.356 230.36 174.26 224.697 173.872 224.697C173.485 224.697 168.84 224.665 168.84 224.665C168.84 224.665 165.259 227.61 165.131 227.933C165.001 228.255 163.97 231.786 163.97 231.786L164.875 234.018Z" fill="#0E2E35"/>
<path d="M170.123 241.715L175.342 242.713C175.342 242.713 174.844 244.679 172.536 244.305C169.722 243.853 170.123 241.715 170.123 241.715Z" fill="white"/>
<path d="M116.191 183.575L121.41 184.572C121.41 184.572 120.912 186.538 118.604 186.166C115.79 185.711 116.191 183.575 116.191 183.575Z" fill="white"/>
<path d="M538.835 343.742C534.28 344.152 529.779 344.991 525.356 346.153C517.289 348.273 509.529 351.405 501.893 354.734C498.139 356.371 494.359 357.985 490.676 359.779C488.955 360.618 487.222 361.459 485.637 362.534C483.499 363.982 480.162 366.886 479.757 367.344L481.51 367.396C482.709 366.42 487.107 362.706 493.213 359.764C507.68 352.795 522.709 345.647 538.845 343.874C538.929 343.863 538.919 343.733 538.835 343.742Z" fill="#3C8F7C"/>
</svg>
