<svg xmlns="http://www.w3.org/2000/svg" height="1200" width="1600" version="1.1" xmlns:xlink="http://www.w3.org/1999/xlink" xmlns:svgjs="http://svgjs.com/svgjs"><rect fill="#f3ebe9" width="1600" height="1200"></rect><g><path d="M570.1 672.6V763.5C570.1 776.5 559.6 787 546.6 787H531.3C518.3 787 507.8 797.5 507.8 810.5V846.1C507.8 859.1 518.3 869.6 531.3 869.6H900.7C913.7 869.6 924.2 880.1 924.2 893.1V922.8C924.2 935.8 934.7 946.3 947.7 946.3H966.5C979.5 946.3 990 935.8 990 922.8V857.5C990 844.5 1000.5 834 1013.5 834H1316.5C1329.5 834 1340 823.5 1340 810.5V703.9" stroke="#231f20" stroke-width="4" stroke-linecap="round" stroke-linejoin="round" opacity="1" fill="none"></path></g><g><path d="M382.71 347.71C408.23 322.19 408.23 280.81 382.71 255.3 357.18 229.77 315.81 229.77 290.29 255.3 264.77 280.81 264.77 322.19 290.29 347.71 315.81 373.23 357.18 373.23 382.71 347.71Z" fill="#ffa0dc" opacity="1" stroke-width="4" stroke="none"></path><path d="M299.93 299.68C299.93 299.68 309.55 277.65 337.41 277.65 363.54 277.65 373.15 299.68 373.15 299.68" stroke="#000000" stroke-width="4" stroke-linecap="round" stroke-linejoin="round" opacity="1" fill="none"></path><path d="M316.51 314.15C316.51 314.15 320.6 298.47 337.41 298.47 352.18 298.47 356.5 314.15 356.5 314.15" stroke="#000000" stroke-width="4" stroke-linecap="round" stroke-linejoin="round" opacity="1" fill="none"></path><path d="M330.45 326.64C330.45 326.64 336.5 316.95 342.56 326.64" stroke="#000000" stroke-width="4" stroke-linecap="round" stroke-linejoin="round" opacity="1" fill="none"></path></g><g><path d="M707.21 418.08L645.1 398.65V367.99H624.06L515.35 464.97 624.06 574.38H645.1V543.72L707.21 524.29V418.08Z" fill="#3c2c5b" opacity="1" stroke-width="4" stroke="none"></path><path d="M652.21 400.85L645.1 398.65V543.72L669.44 536.11 652.21 400.85Z" fill="#000000" opacity="0.3" stroke-width="4" stroke="none"></path><path d="M581.98 553.34H474.77V626.48H581.98V553.34Z" fill="#f3ebe9" opacity="1" stroke-width="4" stroke="none"></path><path d="M552.92 553.34H445.72V626.48H552.92V553.34Z" fill="#3c2c5b" opacity="1" stroke-width="4" stroke="none"></path><path d="M604.02 612.45H709.22V681.58H604.02L538.69 650.52 604.02 612.45Z" fill="#3c2c5b" opacity="1" stroke-width="4" stroke="none"></path><path d="M604.02 612.45H354.55V681.58H604.02V612.45Z" fill="#ff4f32" opacity="1" stroke-width="4" stroke="none"></path><path d="M624.06 367.99H374.58V574.38H624.06V367.99Z" fill="#ff4f32" opacity="1" stroke-width="4" stroke="none"></path><path d="M594 398.05H404.64V544.32H594V398.05Z" fill="#f3ebe9" opacity="1" stroke-width="4" stroke="none"></path><path d="M588.99 627.48H502.83V645.51H588.99V627.48Z" fill="#000000" opacity="1" stroke-width="4" stroke="none"></path><path d="M645.1 398.65V543.72" stroke="#000000" stroke-width="4" stroke-linecap="round" stroke-linejoin="round" opacity="1" fill="none"></path><path d="M431.69 427.1H499.82" stroke="#ff4f32" stroke-width="4" stroke-linecap="round" stroke-linejoin="round" opacity="1" fill="none"></path><path d="M431.69 447.14H463.75" stroke="#ff4f32" stroke-width="4" stroke-linecap="round" stroke-linejoin="round" opacity="1" fill="none"></path><path d="M431.69 477.2H481.79" stroke="#ff4f32" stroke-width="4" stroke-linecap="round" stroke-linejoin="round" opacity="1" fill="none"></path></g><g><path d="M1415.57 248.64L1457.78 670.72C1461.03 703.28 1431.09 729.73 1390.7 729.84L781.22 731.43C740.98 731.53 705.76 705.25 702.51 672.69L660.3 250.61C657.04 218.05 686.99 191.6 727.23 191.5L1336.7 189.91C1376.94 189.8 1412.31 216.08 1415.57 248.64Z" fill="#ffffff" opacity="1" stroke-width="4" stroke="none"></path></g><g><path d="M769.43 281.91H984.56C998.24 281.91 1010.61 293.05 1012.12 306.73 1013.63 320.41 1003.72 331.56 990.04 331.56H774.91C761.23 331.56 748.86 320.41 747.34 306.73 745.83 293.05 755.75 281.91 769.43 281.91Z" fill="#ffa0dc" opacity="1" stroke-width="4" stroke="none"></path><path d="M780.76 384.51H906.53C920.21 384.51 932.58 395.65 934.09 409.33 935.6 423.01 925.69 434.16 912.01 434.16H786.24C772.56 434.16 760.19 423.01 758.68 409.33 757.17 395.65 767.08 384.51 780.76 384.51Z" fill="#f0dbe8" opacity="1" stroke-width="4" stroke="none"></path><path d="M989.27 384.51H1028.98C1042.66 384.51 1055.04 395.65 1056.55 409.33 1058.06 423.01 1048.15 434.16 1034.47 434.16H994.75C981.07 434.16 968.7 423.01 967.19 409.33 965.68 395.65 975.59 384.51 989.27 384.51Z" fill="#3c2c5b" opacity="1" stroke-width="4" stroke="none"></path><path d="M792.09 487.11H822.98C836.66 487.11 849.03 498.25 850.54 511.93 852.05 525.61 842.14 536.76 828.46 536.76H797.57C783.89 536.76 771.52 525.61 770.01 511.93 768.5 498.25 778.41 487.11 792.09 487.11Z" fill="#f0dbe8" opacity="1" stroke-width="4" stroke="none"></path><path d="M905.72 487.11H1091.07C1104.75 487.11 1117.12 498.25 1118.63 511.93 1120.14 525.61 1110.23 536.76 1096.55 536.76H911.21C897.53 536.76 885.15 525.61 883.64 511.93 882.13 498.25 892.04 487.11 905.72 487.11Z" fill="#3c2c5b" opacity="1" stroke-width="4" stroke="none"></path><path d="M1173.81 487.11H1332.67C1346.35 487.11 1358.73 498.25 1360.24 511.93 1361.75 525.61 1351.84 536.76 1338.16 536.76H1179.29C1165.61 536.76 1153.24 525.61 1151.73 511.93 1150.22 498.25 1160.13 487.11 1173.81 487.11Z" fill="#ffffff" opacity="1" stroke-width="4" stroke="none"></path><path d="M803.42 589.71H902.71C916.39 589.71 928.77 600.85 930.28 614.53 931.79 628.21 921.87 639.36 908.19 639.36H808.9C795.22 639.36 782.85 628.21 781.34 614.53 779.83 600.85 789.74 589.71 803.42 589.71Z" fill="#030303" opacity="1" stroke-width="4" stroke="none"></path><path d="M985.45 589.71H1007.52C1021.2 589.71 1033.57 600.85 1035.08 614.53 1036.59 628.21 1026.68 639.36 1013 639.36H990.94C977.26 639.36 964.88 628.21 963.37 614.53 961.86 600.85 971.77 589.71 985.45 589.71Z" fill="#f0dbe8" opacity="1" stroke-width="4" stroke="none"></path><path d="M1090.26 589.71H1221.55C1235.23 589.71 1247.6 600.85 1249.11 614.53 1250.62 628.21 1240.71 639.36 1227.03 639.36H1095.74C1082.06 639.36 1069.69 628.21 1068.18 614.53 1066.67 600.85 1076.58 589.71 1090.26 589.71Z" fill="#ffa0dc" opacity="1" stroke-width="4" stroke="none"></path></g><g><path d="M1047.47 478.89L1047.91 472.79C1028.64 452.89 1015.55 440.87 1009 436.98 989.82 425.57 964.08 417.08 953.82 417.08 950.82 417.08 949.14 417.79 948.96 419.29 948.17 425.57 968.77 435.21 971.78 436.53 965.76 439.72 967.18 447.15 967.44 448.21 960.81 454.13 964.52 460.06 965.14 460.94 964.35 461.82 959.31 468.1 966.2 475 970.45 479.25 974.52 480.13 977.08 480.13 978.67 480.13 979.73 479.78 980.09 479.69 986.81 491.01 999.37 494.54 1000.51 494.81 1000.78 495.43 1002.64 499.67 1005.64 505.77L1011.75 507.19 1047.47 478.89Z" fill="#e59763" opacity="1" stroke-width="4" stroke="none"></path><path d="M1220.17 442.46V442.28C1222.83 430.7 1226.8 412.57 1230.7 392.23 1233.97 374.81 1231.76 360.49 1224.15 350.76 1217.34 342 1206.55 337.14 1192.14 336.17 1190.73 336.08 1189.4 336.08 1188.07 336.08 1160.04 336.08 1149.96 355.09 1144.21 371.72 1143.33 374.37 1142.36 377.02 1141.56 379.67 1140.5 379.76 1133.6 380.47 1132.72 383.92 1131.83 387.28 1136.43 392.14 1137.14 392.85 1133.87 403.73 1132.89 410.09 1132.63 413.63 1132.45 416.28 1132.54 422.92 1137.4 428.22 1141.74 432.91 1148.63 435.21 1157.92 435.21 1160.48 435.21 1163.22 435.03 1166.05 434.68L1164.64 442.9 1220.17 442.46Z" fill="#e59763" opacity="1" stroke-width="4" stroke="none"></path><path d="M1177.37 431.85C1177.37 431.85 1171.36 433.79 1167.47 434.41L1166.05 434.68 1164.73 442.55 1169.06 447.85 1177.37 431.85Z" fill="#030202" opacity="0.2" stroke-width="4" stroke="none"></path><path d="M1254.84 618.43C1274.73 616.31 1288.62 603.49 1291.89 583.95 1294.89 566.17 1284.2 516.3 1263.77 486.32 1244.23 457.67 1220.26 452.27 1217.87 451.83 1218.05 451.04 1218.93 447.59 1220.17 442.28L1220.26 442.1 1164.82 441.93 1163.49 449.27C1151.37 449.89 1139.61 452.45 1128.29 456.87 1110.87 463.77 1080.37 501.97 1078.07 504.8 1076.56 503.12 1062.95 488.18 1047.91 472.7L1047.82 472.61 1005.56 505.6 1005.64 505.77C1016.17 527.09 1043.58 576.61 1070.2 577.58 1070.82 577.58 1071.52 577.58 1072.14 577.58 1089.47 577.58 1105.21 568.91 1115.38 561.66 1125.29 554.59 1131.92 547.42 1133.25 546.01L1150.31 617.37 1254.84 618.43Z" fill="#ffc930" opacity="1" stroke-width="4" stroke="none"></path><path d="M1254.84 618.43C1261.29 617.81 1267.57 615.87 1273.14 612.6L1273.41 612.42 1273.14 612.24C1258.37 601.72 1255.54 586.95 1253.24 575.01 1251.65 566.61 1250.33 559.45 1245.11 556.09L1244.93 555.91 1235.29 601.1 1254.84 618.43Z" fill="#505050" opacity="0.2" stroke-width="4" stroke="none"></path><path d="M1143.5 534.78L1133.25 546.01 1150.31 617.55 1177.28 618.43 1143.5 534.78Z" fill="#505050" opacity="0.2" stroke-width="4" stroke="none"></path><path d="M1299.23 477.65C1301.7 444.4 1284.02 432.38 1266.95 420.62 1253.78 411.6 1241.31 403.11 1238.21 385.6 1231.85 350.05 1221.06 338.29 1192.05 335.02 1190.11 334.84 1188.16 334.66 1186.22 334.66 1163.93 334.66 1153.67 349.52 1149.61 358.54 1149.61 358.54 1151.2 369.15 1166.94 369.15 1168.09 369.15 1169.33 369.06 1169.18 369.21 1168.09 376.76 1169.66 384.94 1174.19 391.88L1174.24 391.97 1174.46 391.89C1174.45 391.88 1183.83 388.43 1192.23 388.43 1199.21 388.43 1203.55 390.73 1205.14 395.33 1209.74 409.03 1188.6 423.27 1188.43 423.45H1188.34V423.53C1188.25 423.8 1181.35 453.07 1191.88 477.56L1191.96 477.65H1299.23V477.65Z" fill="#010005" opacity="1" stroke-width="4" stroke="none"></path><path d="M1247.32 357.57C1226.95 357.57 1210.45 341.06 1210.45 320.69 1210.45 300.33 1226.95 283.82 1247.32 283.82 1267.69 283.82 1284.2 300.33 1284.2 320.69 1284.2 341.06 1267.69 357.57 1247.32 357.57Z" fill="#010005" opacity="1" stroke-width="4" stroke="none"></path><path d="M1190.28 432.73C1184.82 432.73 1180.38 428.3 1180.38 422.83 1180.38 417.35 1184.82 412.92 1190.28 412.92 1195.76 412.92 1200.19 417.35 1200.19 422.83 1200.19 428.3 1195.76 432.73 1190.28 432.73Z" fill="#ffffff" opacity="1" stroke-width="4" stroke="none"></path><path d="M1146.25 600.57V600.39H1165.26L1235.38 600.39H1235.47C1281.45 636.12 1291.27 668.84 1301.7 703.5 1307.63 723.22 1313.73 743.56 1326.64 765.84 1333.1 777.07 1340.26 785.39 1348.57 795.11 1362.28 811.12 1379.34 831.1 1403.57 874.61 1404.19 875.76 1404.81 876.91 1405.43 878.06L1405.25 887.61 1335.93 918.65 1328.23 914.93C1319.21 900.79 1307.28 885.93 1295.69 871.52 1288.44 862.5 1280.92 853.12 1274.11 843.93L1273.76 843.4C1258.99 823.41 1246.26 806.17 1230.16 772.65 1229.81 777.34 1229.55 782.2 1229.46 787.15 1229.02 811.65 1231.93 825.62 1235.56 843.4 1239.18 861.26 1243.78 883.45 1246.26 924.22V924.93L1239.98 934.3 1170.65 933.33 1163.67 925.19C1161.19 904.85 1157.03 881.86 1152.97 859.58 1150.31 844.63 1147.75 830.4 1145.89 818.19 1138.2 766.46 1130.77 717.65 1146.25 600.57Z" fill="#61ccff" opacity="1" stroke-width="4" stroke="none"></path><path d="M1255.1 817.22C1255.01 817.04 1250.59 799.09 1249.71 766.82 1249.44 757.27 1249.44 748.69 1249.44 741.17 1249.44 715.79 1251.48 702.79 1241.93 693.95L1229.9 772.21C1242.46 797.94 1249.44 808.47 1249.44 808.47L1255.1 817.22Z" fill="#343434" opacity="0.2" stroke-width="4" stroke="none"></path><path d="M1242.55 683.96C1241.04 711.81 1232.2 739.85 1230.16 772.65" stroke="#343434" stroke-width="4" stroke-linecap="round" stroke-linejoin="round" opacity="1" fill="none"></path><path d="M1240.86 1019.63L1243.43 1015.3C1245.82 993.55 1248.29 960.21 1246.26 925.1V924.93H1163.58L1163.67 925.55C1167.03 953.22 1166.41 969.94 1161.81 977.37 1154.03 989.83 1145.45 996.91 1137.93 1003.1 1132.89 1007.17 1128.56 1010.7 1125.29 1015.21L1125.91 1020.96 1240.86 1019.63Z" fill="#ffc930" opacity="1" stroke-width="4" stroke="none"></path><path d="M1240.86 1034.84V1034.67C1240.86 1034.58 1242.1 1027.24 1243.43 1015.3V1015.12H1125.29L1125.2 1015.21C1121.22 1020.61 1119.36 1026.8 1119.36 1034.67V1034.84H1240.86V1034.84Z" fill="#271f0a" opacity="1" stroke-width="4" stroke="none"></path><path d="M1434.79 968.43L1436.12 962.33C1431.08 940.67 1421.7 908.39 1405.43 878.06L1405.34 877.88 1328.06 914.76 1328.14 914.93C1340.97 935.1 1346.01 950.93 1343.97 964.81 1341.94 978.87 1337.43 988.68 1333.45 997.35 1330.62 1003.45 1328.41 1008.93 1327.35 1014.51L1331.95 1018.22 1434.79 968.43Z" fill="#ffc930" opacity="1" stroke-width="4" stroke="none"></path><path d="M1440.27 982.49C1440.27 982.32 1439.03 974.54 1436.2 962.42L1436.12 962.24 1327.35 1014.42C1326.11 1021.14 1327.17 1027.68 1330.71 1034.84L1330.8 1035.02 1440.27 982.49Z" fill="#271f0a" opacity="1" stroke-width="4" stroke="none"></path><path d="M1142.36 402.58C1143.77 403.55 1148.19 403.73 1150.93 400.63" stroke="#030202" stroke-width="4" stroke-linecap="round" stroke-linejoin="round" opacity="1" fill="none"></path><path d="M1150.93 388.25C1152.44 388.25 1153.59 387.01 1153.59 385.6 1153.59 384.18 1152.35 382.95 1150.93 382.95 1149.43 382.95 1148.28 384.18 1148.28 385.6 1148.28 387.01 1149.52 388.25 1150.93 388.25Z" fill="#171314" opacity="1" stroke-width="4" stroke="none"></path><path d="M1165.61 434.85C1171.54 434.06 1176.22 432.73 1176.22 432.73" stroke="#030202" stroke-width="4" stroke-linecap="round" stroke-linejoin="round" opacity="1" fill="none"></path><path d="M1179.67 408.68L1187.63 405.14" stroke="#030202" stroke-width="4" stroke-linecap="round" stroke-linejoin="round" opacity="1" fill="none"></path><path d="M1247.32 547.51L1235.38 600.57 1146.51 600.57" stroke="#505050" stroke-width="4" stroke-linecap="round" stroke-linejoin="round" opacity="1" fill="none"></path><path d="M1254.84 578.46L1241.4 574.04" stroke="#505050" stroke-width="4" stroke-linecap="round" stroke-linejoin="round" opacity="1" fill="none"></path><path d="M1133.34 545.83C1139.88 539.55 1146.07 532.48 1146.07 532.48" stroke="#505050" stroke-width="4" stroke-linecap="round" stroke-linejoin="round" opacity="1" fill="none"></path><path d="M1078.07 505.15V520.54" stroke="#505050" stroke-width="4" stroke-linecap="round" stroke-linejoin="round" opacity="1" fill="none"></path><path d="M1047.82 472.88L1005.91 505.69" stroke="#505050" stroke-width="4" stroke-linecap="round" stroke-linejoin="round" opacity="1" fill="none"></path><path d="M1165.5 965.52L1182.32 967.55" stroke="#271f0a" stroke-width="4" stroke-linecap="round" stroke-linejoin="round" opacity="1" fill="none"></path><path d="M1161.91 977.93L1174.9 987.18" stroke="#271f0a" stroke-width="4" stroke-linecap="round" stroke-linejoin="round" opacity="1" fill="none"></path><path d="M1341.92 942.05L1360.07 937.48" stroke="#271f0a" stroke-width="4" stroke-linecap="round" stroke-linejoin="round" opacity="1" fill="none"></path><path d="M1345.35 959.67L1363.6 957.82" stroke="#271f0a" stroke-width="4" stroke-linecap="round" stroke-linejoin="round" opacity="1" fill="none"></path><path d="M1246.08 925.1H1163.84" stroke="#271f0a" stroke-width="4" stroke-linecap="round" stroke-linejoin="round" opacity="1" fill="none"></path><path d="M1328.41 914.85L1405.25 878.15" stroke="#271f0a" stroke-width="4" stroke-linecap="round" stroke-linejoin="round" opacity="1" fill="none"></path><path d="M972.31 436.53C977.88 436.27 983.36 436.98 988.67 438.74" stroke="#030202" stroke-width="4" stroke-linecap="round" stroke-linejoin="round" opacity="1" fill="none"></path><path d="M967.71 448.21C974.52 446.7 984.24 450.24 984.24 450.24" stroke="#030202" stroke-width="4" stroke-linecap="round" stroke-linejoin="round" opacity="1" fill="none"></path><path d="M965.41 460.94C972.75 459.97 980.71 462.62 980.71 462.62" stroke="#030202" stroke-width="4" stroke-linecap="round" stroke-linejoin="round" opacity="1" fill="none"></path></g><g><path d="M709.1 761H894.4V1032H709.1L684.9 906.6 709.1 761Z" fill="#ffc930" opacity="1" stroke-width="4" stroke="none"></path><path d="M709.1 761H605V1032H709.1V761Z" fill="#ff4f32" opacity="1" stroke-width="4" stroke="none"></path><path d="M688.5 790.3H625.6V817H688.5V790.3Z" fill="#3c2c5b" opacity="1" stroke-width="4" stroke="none"></path><path d="M657.6 975.7C660.91 975.7 663.6 973.01 663.6 969.7 663.6 966.39 660.91 963.7 657.6 963.7 654.29 963.7 651.6 966.39 651.6 969.7 651.6 973.01 654.29 975.7 657.6 975.7Z" fill="#1f0e0c" opacity="1" stroke-width="4" stroke="none"></path><path d="M657.6 999.5C660.91 999.5 663.6 996.81 663.6 993.5 663.6 990.19 660.91 987.5 657.6 987.5 654.29 987.5 651.6 990.19 651.6 993.5 651.6 996.81 654.29 999.5 657.6 999.5Z" fill="#1f0e0c" opacity="1" stroke-width="4" stroke="none"></path><path d="M672.8 834.9V849.6" stroke="#000000" stroke-width="4" stroke-linecap="round" stroke-linejoin="round" opacity="1" fill="none"></path><path d="M657 834.9V849.6" stroke="#000000" stroke-width="4" stroke-linecap="round" stroke-linejoin="round" opacity="1" fill="none"></path><path d="M641.3 834.9V849.6" stroke="#000000" stroke-width="4" stroke-linecap="round" stroke-linejoin="round" opacity="1" fill="none"></path><path d="M796 953H863.5" stroke="#000000" stroke-width="4" stroke-linecap="round" stroke-linejoin="round" opacity="1" fill="none"></path><path d="M796 975H863.5" stroke="#000000" stroke-width="4" stroke-linecap="round" stroke-linejoin="round" opacity="1" fill="none"></path><path d="M796 997H863.5" stroke="#000000" stroke-width="4" stroke-linecap="round" stroke-linejoin="round" opacity="1" fill="none"></path><path d="M657.6 946.3C666.27 946.3 673.3 939.27 673.3 930.6 673.3 921.93 666.27 914.9 657.6 914.9 648.93 914.9 641.9 921.93 641.9 930.6 641.9 939.27 648.93 946.3 657.6 946.3Z" fill="#3c2c5b" opacity="1" stroke-width="4" stroke="none"></path></g><g><path d="M1409.18 848.68L1392.58 753.04 1488.22 769.64 1466.03 791.82 1506.14 831.93 1471.47 866.6 1431.36 826.49 1409.18 848.68Z" fill="#ff4f32" opacity="1" stroke-width="4" stroke="none"></path></g><g><path d="M407.86 1014.35C406.22 1004.98 404.48 994.65 403.71 984.89H451.72C451.27 982.47 449.97 974.66 450.06 973.3 450.06 967.32 454.89 962.49 460.88 962.49L476.72 961.52C477.78 964.61 478.94 967.61 480.78 970.41 488.7 982.19 496.23 987.69 503.57 992.91 508.69 996.58 513.61 1000.15 517.96 1005.56 519.89 1008.07 521.44 1010.2 522.69 1013.09 522.69 1013.09 522.59 1013.67 521.82 1013.67 509.56 1013.77 407.86 1014.35 407.86 1014.35Z" fill="#cecece" opacity="1" stroke-width="4" stroke="none"></path><path d="M411.05 1029.22C409.89 1024.2 408.73 1018.99 407.76 1013.58V1013.38L522.69 1013.09 523.08 1013.77C526.65 1021.59 525.78 1027.97 525.59 1029.22 525.59 1029.42 525.39 1029.22 525.3 1029.22H411.05Z" fill="#323232" opacity="1" stroke-width="4" stroke="none"></path><path d="M492.08 740.94C484.45 740.94 470.54 733.12 467.45 731.38 469.28 734.37 470.44 740.26 464.36 739.97 449.29 738.91 413.85 717.47 412.98 717.28 412.79 717.37 427.56 679.9 427.85 680.58 432.29 682.99 437.9 681.54 443.79 680.97 461.94 688.69 481.26 701.92 493.43 711.97 500.67 718.15 503.18 722.4 501.35 725.78 503.09 728.48 503.57 730.8 502.8 732.73 501.64 735.53 498.16 736.5 497.39 736.69 497.19 739.59 495.36 740.94 492.08 740.94Z" fill="#e59763" opacity="1" stroke-width="4" stroke="none"></path><path d="M403.71 985.28C402.36 970.5 401.78 955.44 402.16 940.56 402.16 940.85 475.66 935.45 475.08 936.32 473.44 945.2 474.11 954.38 477.2 962.87H460.98C457.5 962.87 454.31 964.61 452.38 967.51 450.84 969.83 449.93 971.51 452.57 984.96L451.38 984.97H403.71Z" fill="#e59763" opacity="1" stroke-width="4" stroke="none"></path><path d="M403.71 985.28V985.09C402.36 970.41 426.21 934.29 426.21 934.29L460.21 934.87 430.07 985.47 403.71 985.28Z" fill="#030202" opacity="0.2" stroke-width="4" stroke="none"></path><path d="M487.54 979.29L475.66 985.18" stroke="#323232" stroke-width="4" stroke-linecap="round" stroke-linejoin="round" opacity="1" fill="none"></path><path d="M342.96 985.28C341.51 970.5 340.93 955.44 341.32 940.56 341.32 940.76 432.39 935.64 432 936.22 430.27 945.97 428.14 957.76 428.14 962.78H409.12C405.64 962.78 402.45 964.52 400.52 967.41 398.98 969.73 398.4 972.53 398.88 975.24L400.81 985.18C398.4 985.96 344.41 986.34 342.96 985.28Z" fill="#e59763" opacity="1" stroke-width="4" stroke="none"></path><path d="M263.57 543.34C262.9 528.76 262.03 507.22 261.45 492.93 261.45 491.96 261.84 491 262.51 490.32 271.69 481.92 273.81 459.8 275.36 445.9 275.55 443.77 277.77 442.42 279.8 443.19 288.1 446.38 294.87 446.57 303.94 446.57 313.31 446.57 324.22 441.36 332.05 445.61 347.31 453.82 348.18 461.16 352.23 481.34 352.43 482.5 353.39 483.56 354.55 483.85 363.05 486.46 361.21 490.42 356.58 495.83 355.9 496.79 355.71 497.56 356 499.01 360.25 522.48 355.23 535.62 334.27 536.39 330.6 536.39 326.83 535.81 323.93 534.65 323.65 534.55 323.55 534.75 323.55 534.94 323.55 535.13 323.45 542.38 323.45 542.96 321.23 545.37 267.44 546.63 263.57 543.34Z" fill="#e59763" opacity="1" stroke-width="4" stroke="none"></path><path d="M347.02 1013.58C345.37 1004.31 343.93 995.23 343.06 985.57 343.06 985.38 343.15 985.28 343.35 985.28L400.04 984.89C400.23 984.89 400.33 984.7 400.33 984.6 399.94 982.48 398.2 974.56 398.4 973.3 398.4 967.32 403.22 962.49 409.21 962.49H428.05C428.24 962.49 428.33 962.58 428.33 962.78 428.33 978.91 439.73 986.73 451.03 994.07 459.43 999.48 466.1 1004.5 470.06 1013 470.15 1013.19 470.06 1013.38 469.86 1013.38 464.74 1014.06 410.18 1021.88 408.63 1022.08 408.63 1022.08 408.63 1022.08 408.54 1022.08 406.89 1021.88 351.27 1014.45 347.4 1013.77 347.11 1013.77 347.02 1013.67 347.02 1013.58Z" fill="#cecece" opacity="1" stroke-width="4" stroke="none"></path><path d="M341.51 964.13C341.22 956.5 341.13 948.58 341.32 940.76V940.56L413.37 932.45 413.66 939.21 341.51 964.32V964.13Z" fill="#030202" opacity="0.2" stroke-width="4" stroke="none"></path><path d="M492.56 940.95C492.56 940.37 489.56 883.29 485.7 848.91 481.84 814.53 473.53 787.1 445.53 765.18 392.5 728.09 347.11 727.42 305.49 718.24 305.49 718.24 223.49 715.25 223.49 715.44 203.31 758.61 196.65 821.68 266.09 833.07H358.03C356.77 836.84 342.57 881.85 341.32 941.05 358.8 941.72 474.11 941.24 492.56 940.95Z" fill="#ffc930" opacity="1" stroke-width="4" stroke="none"></path><path d="M447.55 941.14C447.46 941.14 446.59 941.14 445.14 941.14 455.47 941.14 463.68 941.14 463.88 941.14 463.78 940.85 455.28 918.45 460.98 856.45 463.2 830.66 457.5 800.91 438.77 790.39 447.75 808.06 448.13 828.34 448.52 845.63 449.49 891.12 447.55 940.66 447.55 941.14Z" fill="#211800" opacity="0.2" stroke-width="4" stroke="none"></path><path d="M352.81 809.51C363.34 800.53 368.17 801.2 369.42 801.88 369.62 801.98 369.71 802.27 369.62 802.46 362.95 818.68 358.12 832.78 358.03 833.07H309.74C309.74 833.07 343.93 816.66 352.81 809.51Z" fill="#211800" opacity="0.2" stroke-width="4" stroke="none"></path><path d="M447.36 940.85C447.36 940.85 449.29 891.31 448.33 845.34 447.84 821.87 447.36 792.51 424.86 771.94 416.26 764.12 405.16 756.97 393.18 750.69" stroke="#211800" stroke-width="4" stroke-linecap="round" stroke-linejoin="round" opacity="1" fill="none"></path><path d="M340.64 502.97C341.8 506.16 346.24 507.22 348.66 506.74" stroke="#030202" stroke-width="4" stroke-linecap="round" stroke-linejoin="round" opacity="1" fill="none"></path><path d="M341.71 488.29C343.1 488.29 344.22 487.17 344.22 485.78 344.22 484.39 343.1 483.27 341.71 483.27 340.32 483.27 339.19 484.39 339.19 485.78 339.19 487.17 340.32 488.29 341.71 488.29Z" fill="#010005" opacity="1" stroke-width="4" stroke="none"></path><path d="M309.26 528.95C309.26 528.95 317.95 532.33 323.93 534.65" stroke="#030202" stroke-width="4" stroke-linecap="round" stroke-linejoin="round" opacity="1" fill="none"></path><path d="M358.03 832.88C361.31 822.64 369.62 802.46 369.62 802.46" stroke="#211800" stroke-width="4" stroke-linecap="round" stroke-linejoin="round" opacity="1" fill="none"></path><path d="M330.6 740.84C300.76 741.33 278.93 734.57 262.61 720.47 262.51 720.47 262.51 720.37 262.42 720.37 260.39 720.37 225.04 720.27 221.56 720.27 221.37 720.27 221.27 720.18 221.27 719.98V702.79C221.27 702.69 221.18 702.6 221.18 702.6 203.89 692.07 210.36 671.6 214.71 658.27 216.54 652.67 217.89 648.32 217.31 645.91 203.21 585.93 222.34 558.79 263.38 553 263.48 553 263.57 552.9 263.57 552.71 263.57 551.36 263.57 544.6 263.57 543.15 263.57 542.96 263.67 542.86 263.86 542.86H323.16C323.36 542.86 323.45 542.96 323.45 543.15V552.52C323.45 552.61 323.55 552.71 323.65 552.81 330.02 554.64 336.1 557.25 341.8 560.53 356.96 569.23 366.91 582.65 377.15 608.53 389.8 640.6 395.02 652.96 395.69 654.31 395.69 654.41 395.79 654.41 395.79 654.41 397.91 655.57 424.86 670.53 443.59 680.68 443.69 680.77 443.79 680.87 443.69 681.06L421.28 724.04C421.19 724.14 421.09 724.23 420.99 724.23L389.12 722.3C388.93 722.3 388.83 722.4 388.83 722.49 388.64 724.14 388.16 733.31 387.87 734.66 387.87 734.76 387.77 734.86 387.68 734.86 385.55 735.43 358.99 740.84 330.6 740.84Z" fill="#61ccff" opacity="1" stroke-width="4" stroke="none"></path><path d="M221.27 720.27V702.89C221.27 702.79 221.18 702.69 221.18 702.69 203.99 692.55 210.46 671.69 214.71 658.37 216.25 653.83 217.31 650.35 217.41 647.84 217.41 647.55 217.8 647.45 217.89 647.74 234.99 695.64 262.42 720.47 262.42 720.47L221.27 720.27Z" fill="#519cbf" opacity="0.2" stroke-width="4" stroke="none"></path><path d="M458.37 765.28C448.62 765.28 438.09 750.69 434.61 745.38 437.8 758.32 431.52 772.62 422.64 752.53 411.92 729.35 405.25 733.21 382.07 736.3L378.02 736.79 379.47 679.71C393.37 679.71 414.33 683.09 424.18 685.41 443.69 690.62 472.57 700.57 471.12 709.75 470.06 713.32 462.05 715.17 462.33 715.25 468.32 721.72 475.66 734.28 478.46 739.01 483.48 746.64 483.67 754.46 475.85 755.43 475.95 759.1 475.27 761.7 473.82 763.25 471.6 766.15 465.52 764.41 463.97 763.35 462.33 764.6 460.4 765.28 458.37 765.28Z" fill="#e59763" opacity="1" stroke-width="4" stroke="none"></path><path d="M475.75 755.33C463.39 733.79 446.39 716.22 446.39 716.22" stroke="#030202" stroke-width="4" stroke-linecap="round" stroke-linejoin="round" opacity="1" fill="none"></path><path d="M463.97 763.15C450.74 742.68 435.58 724.04 435.58 724.04" stroke="#030202" stroke-width="4" stroke-linecap="round" stroke-linejoin="round" opacity="1" fill="none"></path><path d="M434.61 745.38L426.6 731.28" stroke="#030202" stroke-width="4" stroke-linecap="round" stroke-linejoin="round" opacity="1" fill="none"></path><path d="M263.86 531.85C263.48 531.85 263.09 532.14 263.09 532.14L261.45 491.58C260.58 478.25 260.29 452.85 275.55 441.65 275.65 441.55 275.84 441.55 275.94 441.65 283.47 448.6 293.51 446.67 303.85 446.67 313.21 446.67 320.36 440.87 328.18 445.12 336.01 449.47 343.15 450.05 346.34 459.13 346.34 459.22 346.34 459.32 346.34 459.42 345.37 460.58 338.04 469.65 322.49 469.94 322.29 469.94 322.2 470.04 322.2 470.23 322.87 485.88 315.63 492.35 314.37 493.41 314.28 493.51 314.08 493.51 313.99 493.41 310.67 491.73 296.99 476.61 284.05 490.51 272.46 502.88 289.75 520.45 291.87 522.58 291.97 522.67 291.97 522.87 291.87 522.96 281.44 531.17 266.76 531.95 263.86 531.85Z" fill="#010005" opacity="1" stroke-width="4" stroke="none"></path><path d="M296.7 504.9L303.85 510.6" stroke="#030202" stroke-width="4" stroke-linecap="round" stroke-linejoin="round" opacity="1" fill="none"></path><path d="M439.34 985.38L427.47 991.27" stroke="#323232" stroke-width="4" stroke-linecap="round" stroke-linejoin="round" opacity="1" fill="none"></path><path d="M217.51 645.71C222.43 664.26 241.94 701.44 262.51 720.08" stroke="#519cbf" stroke-width="4" stroke-linecap="round" stroke-linejoin="round" opacity="1" fill="none"></path><path d="M221.37 702.5H245.8" stroke="#519cbf" stroke-width="4" stroke-linecap="round" stroke-linejoin="round" opacity="1" fill="none"></path><path d="M235.08 720.08V702.5" stroke="#519cbf" stroke-width="4" stroke-linecap="round" stroke-linejoin="round" opacity="1" fill="none"></path><path d="M379.47 679.71C357.06 678.84 311.77 676.81 311.77 676.81" stroke="#519cbf" stroke-width="4" stroke-linecap="round" stroke-linejoin="round" opacity="1" fill="none"></path><path d="M311.77 676.81L289.26 626.01" stroke="#519cbf" stroke-width="4" stroke-linecap="round" stroke-linejoin="round" opacity="1" fill="none"></path><path d="M350.88 678.26L353.78 652.09" stroke="#519cbf" stroke-width="4" stroke-linecap="round" stroke-linejoin="round" opacity="1" fill="none"></path><path d="M263.57 553C263.57 553 258.46 553.48 252.95 555.12" stroke="#519cbf" stroke-width="4" stroke-linecap="round" stroke-linejoin="round" opacity="1" fill="none"></path><path d="M261.16 491.29C261.16 490.51 261.26 488.87 261.26 488.29 261.26 488.2 261.35 488.1 261.45 488.1 263.38 487.33 277.96 480.37 279.8 479.5 279.9 479.41 279.99 479.31 279.99 479.22 278.93 473.42 274.78 459.13 264.83 459.22 264.44 459.13 264.25 458.84 264.35 458.45L265.51 455.07C269.08 447.25 270.62 444.93 275.84 441.26 283.57 435.95 293.51 433.05 303.94 433.05 325.58 433.05 344.31 444.06 348.85 465.6 348.85 465.69 348.85 465.89 348.76 465.89 345.86 467.43 307.32 488.2 307.32 488.2 307.03 488.29 306.74 488.39 306.55 488.2 303.56 486.75 300.08 485.59 296.7 485.69 288.97 485.4 283.57 488.58 280.48 497.66L262.7 506.35C262.42 506.55 262.03 506.35 262.03 505.97 261.74 503.55 261.26 494.86 261.16 491.29Z" fill="#cecece" opacity="1" stroke-width="4" stroke="none"></path><path d="M309.26 528.95C313.99 531.17 318.43 533.4 323.36 534.94 323.45 534.94 323.55 535.04 323.55 535.23 323.55 536.1 323.45 539.77 323.45 543.05 323.45 544.89 323.45 546.53 323.45 547.5 323.45 547.79 323.16 547.88 322.97 547.69L308.87 529.53C308.68 529.15 308.97 528.86 309.26 528.95Z" fill="#030202" opacity="0.2" stroke-width="4" stroke="none"></path><path d="M311.77 676.81L289.46 626.4C289.36 626.21 289.55 626.01 289.75 626.01 291.58 626.11 299.5 627.94 311.09 647.26 316.31 655.95 322.29 663.29 329.54 663.77 337.26 664.26 342.86 659.52 347.21 655.18 349.72 652.76 352.62 652.19 353.58 652.09 353.78 652.09 353.87 652.19 353.87 652.38L350.88 678.74 311.77 676.81Z" fill="#519cbf" opacity="0.2" stroke-width="4" stroke="none"></path><path d="M308.48 487.52L364.11 457.68" stroke="#cecece" stroke-width="4" stroke-linecap="round" stroke-linejoin="round" opacity="1" fill="none"></path><path d="M350.3 1029.22C349.24 1024.39 348.08 1019.28 347.11 1014.16 347.11 1013.96 347.21 1013.87 347.4 1013.87L469.96 1013.48C470.06 1013.48 470.15 1013.58 470.25 1013.67 473.73 1021.5 472.95 1028.06 472.86 1029.32 472.86 1029.42 472.76 1029.32 472.57 1029.32 466.77 1029.32 356.29 1029.32 350.69 1029.32 350.4 1029.22 350.3 1029.32 350.3 1029.22Z" fill="#323232" opacity="1" stroke-width="4" stroke="none"></path><path d="M466.68 701.92C469.57 704.14 471.41 706.65 471.31 709.17 471.02 714.38 462.43 715.25 462.43 715.25 462.43 715.25 471.5 726.07 476.91 736.21" stroke="#030202" stroke-width="4" stroke-linecap="round" stroke-linejoin="round" opacity="1" fill="none"></path><path d="M501.35 725.78L484.74 718.24" stroke="#030202" stroke-width="4" stroke-linecap="round" stroke-linejoin="round" opacity="1" fill="none"></path><path d="M497 736.21L480.49 728.77" stroke="#030202" stroke-width="4" stroke-linecap="round" stroke-linejoin="round" opacity="1" fill="none"></path></g><g><path d="M252.65 855.22C258 855.22 262.4 859.55 262.4 864.9L262.33 890.23V995.03C262.33 1000.38 258 1004.71 252.65 1004.71 247.3 1004.71 242.97 1000.38 242.97 995.03V864.9C242.89 859.55 247.22 855.22 252.65 855.22Z" fill="#ffffff" opacity="1" stroke-width="4" stroke="none"></path><path d="M252.65 855.22C247.22 855.22 242.89 859.55 242.97 864.9V899.04L262.33 890.23 262.4 864.9C262.33 859.55 258 855.22 252.65 855.22Z" fill="#2c2c2c" opacity="0.2" stroke-width="4" stroke="none"></path><path d="M320.55 1017.69C319.21 1016.51 253.2 958.84 253.2 958.84H252.02C252.02 958.84 186.01 1016.51 184.67 1017.69 183.02 1018.63 181.21 1023.27 183.81 1026.26 185.85 1028.78 189.47 1029.41 192.23 1027.6 192.38 1027.52 228.5 1002.74 250.13 987.87 251.63 986.85 253.51 986.85 255.01 987.87 276.64 1002.74 312.84 1027.52 312.91 1027.6 315.75 1029.41 319.44 1028.7 321.33 1026.26 324.01 1023.19 322.2 1018.63 320.55 1017.69Z" fill="#ff4f32" opacity="1" stroke-width="4" stroke="none"></path><path d="M236.91 955.06H268.3C270.19 955.06 271.69 956.56 271.69 958.44V975.28H233.45V958.44C233.53 956.56 235.03 955.06 236.91 955.06Z" fill="#3c2c5b" opacity="1" stroke-width="4" stroke="none"></path><path d="M233.53 849.09H271.77V875.28C271.77 876.62 270.67 877.8 269.25 877.8H235.97C234.63 877.8 233.53 876.7 233.53 875.28V849.09Z" fill="#3c2c5b" opacity="1" stroke-width="4" stroke="none"></path><path d="M196.08 833.51H309.14C316.69 833.51 322.75 839.64 322.75 847.12 322.75 854.67 316.61 860.73 309.14 860.73H196.08C188.53 860.73 182.47 854.59 182.47 847.12 182.47 839.64 188.61 833.51 196.08 833.51Z" fill="#ff4f32" opacity="1" stroke-width="4" stroke="none"></path></g></svg>