<svg xmlns="http://www.w3.org/2000/svg" height="1200" width="1600" version="1.1" xmlns:xlink="http://www.w3.org/1999/xlink" xmlns:svgjs="http://svgjs.com/svgjs"><rect fill="#f3ebe9" width="1600" height="1200"></rect><g><path d="M1098.81 579.6C1118.11 594.96 1137.54 590.66 1160.35 579.17 1160.35 579.17 1136.49 627.49 1160.35 633.08 1188.26 639.66 1233.81 600.56 1242.05 576.28 1250.17 552.3 1217.09 561.89 1198.46 590.91 1184.08 613.29 1170.49 651.52 1187.4 662.65 1213.16 679.56 1278.81 619.25 1287.24 557.83" stroke="#ff9edd" stroke-width="4" stroke-linecap="round" stroke-linejoin="round" opacity="1" fill="none"></path></g><g><path d="M462.24 811.7L472.14 789.82 478.73 812.29 505.77 800.71 489.66 824.58 510.03 838.09 483.48 840.04 486.88 865.71 468.46 847.53 451.35 860.97 455.03 839.98 431.46 838.12 452.62 824.45 440.77 802.01 462.24 811.7Z" stroke="#61ccff" stroke-width="4" stroke-linecap="round" stroke-linejoin="round" opacity="1" fill="none"></path></g><g><path d="M1052.12 172.3L1062 150.45 1068.59 172.89 1095.59 161.32 1079.5 185.17 1099.85 198.65 1073.32 200.61 1076.72 226.24 1058.33 208.09 1041.24 221.5 1044.91 200.54 1021.38 198.69 1042.51 185.03 1030.68 162.63 1052.12 172.3Z" stroke="#61ccff" stroke-width="4" stroke-linecap="round" stroke-linejoin="round" opacity="1" fill="none"></path></g><g><path d="M443.1 210.6H790.5C817.3 210.6 839 232.3 839 259.2V665.1C839 691.9 817.3 713.6 790.5 713.6H443.1C416.3 713.6 394.6 691.9 394.6 665.1V259.2C394.6 232.4 416.3 210.6 443.1 210.6Z" fill="#ff9edd" opacity="1" stroke-width="4" stroke="none"></path></g><g><path d="M1253.44 314.96C1253.49 314.91 1253.6 314.91 1253.6 314.96L1266.2 370.29C1268.44 380.12 1267.68 390.43 1263.91 399.81L1218.95 512.77C1216.49 518.88 1210.6 522.92 1204 522.92H1169.08L1253.44 314.96Z" fill="#ff9edd" opacity="1" stroke-width="4" stroke="none"></path><path d="M1185.17 522.92H1081.88C1074.08 522.92 1069.44 516.59 1071.57 508.78L1121.88 320.97C1123.95 313.16 1131.97 306.83 1139.77 306.83H1243.01C1250.82 306.83 1255.46 313.16 1253.33 320.97L1203.02 508.78C1201 516.59 1192.98 522.92 1185.17 522.92Z" fill="#ffc930" opacity="1" stroke-width="4" stroke="none"></path><path d="M1207.33 401.23H1124.93C1119.8 401.23 1116.8 397.09 1118.17 391.96L1129.13 350.98C1130.5 345.85 1135.74 341.7 1140.87 341.7H1223.32C1228.44 341.7 1231.45 345.85 1230.08 350.98L1219.06 391.96C1217.7 397.09 1212.46 401.23 1207.33 401.23Z" fill="#efe2c0" opacity="1" stroke-width="4" stroke="none"></path><path d="M1201.54 328.11H1169.9C1167.93 328.11 1166.79 326.53 1167.28 324.57 1167.88 322.55 1169.68 321.13 1171.75 321.02H1203.4C1205.36 321.02 1206.51 322.6 1206.02 324.57 1205.47 326.59 1203.67 328 1201.54 328.11Z" fill="#ff9edd" opacity="1" stroke-width="4" stroke="none"></path><path d="M1123.02 441.07H1114.24C1109.11 441.07 1106.11 436.92 1107.47 431.79L1109.11 425.73C1110.47 420.6 1115.71 416.46 1120.84 416.46H1129.63C1134.75 416.46 1137.76 420.6 1136.39 425.73L1134.75 431.79C1133.39 436.92 1128.1 441.07 1123.02 441.07Z" fill="#ff9edd" opacity="1" stroke-width="4" stroke="none"></path><path d="M1196.69 441.07H1187.9C1182.77 441.07 1179.77 436.92 1181.14 431.79L1182.77 425.73C1184.14 420.6 1189.38 416.46 1194.5 416.46H1203.29C1208.42 416.46 1211.42 420.6 1210.06 425.73L1208.42 431.79C1207.05 436.92 1201.76 441.07 1196.69 441.07Z" fill="#ff9edd" opacity="1" stroke-width="4" stroke="none"></path><path d="M1159.86 441.07H1151.07C1145.94 441.07 1142.94 436.92 1144.3 431.79L1145.94 425.73C1147.3 420.6 1152.54 416.46 1157.67 416.46H1166.46C1171.59 416.46 1174.59 420.6 1173.22 425.73L1171.59 431.79C1170.22 436.92 1164.93 441.07 1159.86 441.07Z" fill="#ff9edd" opacity="1" stroke-width="4" stroke="none"></path><path d="M1114.24 473.81H1105.45C1100.32 473.81 1097.32 469.66 1098.69 464.53L1100.32 458.47C1101.69 453.34 1106.93 449.2 1112.06 449.2H1120.84C1125.97 449.2 1128.97 453.34 1127.61 458.47L1125.97 464.53C1124.61 469.66 1119.37 473.81 1114.24 473.81Z" fill="#ff9edd" opacity="1" stroke-width="4" stroke="none"></path><path d="M1187.9 473.81H1179.12C1173.99 473.81 1170.99 469.66 1172.35 464.53L1173.99 458.47C1175.35 453.34 1180.59 449.2 1185.72 449.2H1194.5C1199.63 449.2 1202.64 453.34 1201.27 458.47L1199.63 464.53C1198.27 469.66 1193.03 473.81 1187.9 473.81Z" fill="#ff9edd" opacity="1" stroke-width="4" stroke="none"></path><path d="M1151.07 473.81H1142.28C1137.16 473.81 1134.15 469.66 1135.52 464.53L1137.16 458.47C1138.52 453.34 1143.76 449.2 1148.89 449.2H1157.67C1162.8 449.2 1165.8 453.34 1164.44 458.47L1162.8 464.53C1161.44 469.66 1156.2 473.81 1151.07 473.81Z" fill="#ff9edd" opacity="1" stroke-width="4" stroke="none"></path><path d="M1105.45 506.55H1096.67C1091.54 506.55 1088.54 502.4 1089.9 497.27L1091.54 491.21C1092.9 486.08 1098.14 481.94 1103.27 481.94H1112.06C1117.18 481.94 1120.19 486.08 1118.82 491.21L1117.18 497.27C1115.82 502.4 1110.58 506.55 1105.45 506.55Z" fill="#ff9edd" opacity="1" stroke-width="4" stroke="none"></path><path d="M1179.12 506.55H1170.33C1165.2 506.55 1162.2 502.4 1163.57 497.27L1165.2 491.21C1166.57 486.08 1171.81 481.94 1176.93 481.94H1185.72C1190.85 481.94 1193.85 486.08 1192.49 491.21L1190.85 497.27C1189.48 502.4 1184.25 506.55 1179.12 506.55Z" fill="#ff9edd" opacity="1" stroke-width="4" stroke="none"></path><path d="M1142.28 506.55H1133.5C1128.37 506.55 1125.37 502.4 1126.73 497.27L1128.37 491.21C1129.73 486.08 1134.97 481.94 1140.1 481.94H1148.89C1154.02 481.94 1157.02 486.08 1155.65 491.21L1154.02 497.27C1152.65 502.4 1147.41 506.55 1142.28 506.55Z" fill="#ff9edd" opacity="1" stroke-width="4" stroke="none"></path></g><g><path d="M796.41 856.8L750.93 842.57V820.12H735.52L655.92 891.13 735.52 971.24H750.93V948.79L796.41 934.56V856.8Z" fill="#cecdce" opacity="1" stroke-width="4" stroke="none"></path><path d="M756.13 844.18L750.93 842.57V948.79L768.75 943.22 756.13 844.18Z" fill="#141414" opacity="0.3" stroke-width="4" stroke="none"></path><path d="M704.71 955.84H626.21V1009.39H704.71V955.84Z" fill="#ffffff" opacity="1" stroke-width="4" stroke="none"></path><path d="M683.43 955.84H604.93V1009.39H683.43V955.84Z" fill="#cecdce" opacity="1" stroke-width="4" stroke="none"></path><path d="M720.85 999.12H797.88V1049.74H720.85L673.01 1027 720.85 999.12Z" fill="#cecdce" opacity="1" stroke-width="4" stroke="none"></path><path d="M720.85 999.12H538.17V1049.74H720.85V999.12Z" fill="#ffc930" opacity="1" stroke-width="4" stroke="none"></path><path d="M735.52 820.12H552.85V971.24H735.52V820.12Z" fill="#ffc930" opacity="1" stroke-width="4" stroke="none"></path><path d="M713.51 842.13H574.85V949.24H713.51V842.13Z" fill="#ffffff" opacity="1" stroke-width="4" stroke="none"></path><path d="M709.84 1010.13H646.75V1023.33H709.84V1010.13Z" fill="#000000" opacity="1" stroke-width="4" stroke="none"></path><path d="M750.93 842.57V948.79" stroke="#141414" stroke-width="4" stroke-linecap="round" stroke-linejoin="round" opacity="1" fill="none"></path><path d="M594.66 863.4H644.55" stroke="#ffc930" stroke-width="4" stroke-linecap="round" stroke-linejoin="round" opacity="1" fill="none"></path><path d="M594.66 878.07H618.14" stroke="#ffc930" stroke-width="4" stroke-linecap="round" stroke-linejoin="round" opacity="1" fill="none"></path><path d="M594.66 900.08H631.34" stroke="#ffc930" stroke-width="4" stroke-linecap="round" stroke-linejoin="round" opacity="1" fill="none"></path></g><g><path d="M519.37 273.83H720.72C736.25 273.83 748.84 286.42 748.84 301.96V503.23C748.84 518.77 736.25 531.35 720.72 531.35H519.37C503.83 531.35 491.25 518.77 491.25 503.23V301.88C491.25 286.42 503.83 273.83 519.37 273.83Z" stroke="#ffffff" stroke-width="4" stroke-linecap="round" stroke-linejoin="round" opacity="1" fill="none"></path><path d="M533.57 305.47V499.93" stroke="#ffffff" stroke-width="4" stroke-linecap="round" stroke-linejoin="round" opacity="1" fill="none"></path><path d="M717.48 488.96H522.46" stroke="#ffffff" stroke-width="4" stroke-linecap="round" stroke-linejoin="round" opacity="1" fill="none"></path><path d="M522.6 331.83H546.93C551.92 331.83 555.93 335.84 555.93 340.83 555.93 345.82 559.93 349.83 564.93 349.83H567.46C571.39 349.83 574.84 352.36 576.03 356.16L607.88 459.36C610.34 467.38 617.72 472.79 626.09 472.79 634.74 472.79 642.26 467.03 644.51 458.66L663.56 387.65C665.74 379.5 673.12 373.87 681.49 373.87H717.27" stroke="#231f20" stroke-width="4" stroke-linecap="round" stroke-linejoin="round" opacity="1" fill="none"></path><path d="M706.3 362.42L717.48 373.59 706.3 384.77" stroke="#231f20" stroke-width="4" stroke-linecap="round" stroke-linejoin="round" opacity="1" fill="none"></path><path d="M676.85 312.15L691.12 305.26 698.01 319.53" stroke="#ffc930" stroke-width="4" stroke-linecap="round" stroke-linejoin="round" opacity="1" fill="none"></path><path d="M522.6 410.99H553.75C560.57 410.99 567.03 414.16 571.18 419.57L574.21 423.51C579.97 430.96 588.9 435.32 598.39 435.32 612.31 435.32 624.47 425.9 627.99 412.4L642.54 355.88C643.95 350.53 648.73 346.81 654.21 346.81H667.22C673.82 346.81 679.59 342.52 681.56 336.19L690.98 305.4" stroke="#ffc930" stroke-width="4" stroke-linecap="round" stroke-linejoin="round" opacity="1" fill="none"></path></g><g><path d="M492.35 653.13C515.11 653.13 533.55 634.69 533.55 611.93 533.55 589.18 515.11 570.73 492.35 570.73 469.59 570.73 451.15 589.18 451.15 611.93 451.15 634.69 469.59 653.13 492.35 653.13Z" fill="#cecdce" opacity="1" stroke-width="4" stroke="none"></path><path d="M505.8 598.91C503.29 596.03 499.66 594.38 495.82 594.32 487.6 594.32 480.98 602.22 480.98 611.93 480.98 621.65 487.65 629.54 495.82 629.54 499.66 629.49 503.24 627.84 505.8 624.96" stroke="#ffffff" stroke-width="4" stroke-linecap="round" stroke-linejoin="round" opacity="1" fill="none"></path><path d="M474.58 607.13H496.99" stroke="#ffffff" stroke-width="4" stroke-linecap="round" stroke-linejoin="round" opacity="1" fill="none"></path><path d="M474.58 616.74H496.99" stroke="#ffffff" stroke-width="4" stroke-linecap="round" stroke-linejoin="round" opacity="1" fill="none"></path></g><g><path d="M620.81 653.15C643.56 653.15 662.01 634.7 662.01 611.95 662.01 589.19 643.56 570.75 620.81 570.75 598.05 570.75 579.61 589.19 579.61 611.95 579.61 634.7 598.05 653.15 620.81 653.15Z" fill="#cecdce" opacity="1" stroke-width="4" stroke="none"></path><path d="M613.87 631.05V600.58C613.87 595.51 618.56 592.2 623.37 592.95 627.16 593.53 630.04 596.74 630.04 600.58" stroke="#ffffff" stroke-width="4" stroke-linecap="round" stroke-linejoin="round" opacity="1" fill="none"></path><path d="M634.25 623.79V631.05H607.57" stroke="#ffffff" stroke-width="4" stroke-linecap="round" stroke-linejoin="round" opacity="1" fill="none"></path><path d="M607.3 621.13H620.86" stroke="#ffffff" stroke-width="4" stroke-linecap="round" stroke-linejoin="round" opacity="1" fill="none"></path></g><g><path d="M745.01 653.15C767.77 653.15 786.21 634.7 786.21 611.95 786.21 589.19 767.77 570.75 745.01 570.75 722.25 570.75 703.81 589.19 703.81 611.95 703.81 634.7 722.25 653.15 745.01 653.15Z" fill="#ffc930" opacity="1" stroke-width="4" stroke="none"></path><path d="M732.79 628.22V594.87L757.28 628.97V594.87" stroke="#ffffff" stroke-width="4" stroke-linecap="round" stroke-linejoin="round" opacity="1" fill="none"></path><path d="M725.42 607.84H732.79" stroke="#ffffff" stroke-width="4" stroke-linecap="round" stroke-linejoin="round" opacity="1" fill="none"></path><path d="M725.42 616H732.79" stroke="#ffffff" stroke-width="4" stroke-linecap="round" stroke-linejoin="round" opacity="1" fill="none"></path><path d="M757.28 607.84H764.65" stroke="#ffffff" stroke-width="4" stroke-linecap="round" stroke-linejoin="round" opacity="1" fill="none"></path><path d="M757.28 616H764.65" stroke="#ffffff" stroke-width="4" stroke-linecap="round" stroke-linejoin="round" opacity="1" fill="none"></path></g><g><path d="M266.51 482.33L426.13 423.38C426.32 423.38 426.52 423.38 426.32 423.57L371.68 584.75C371.68 584.95 371.49 584.95 371.29 584.75L350.73 538.14C350.73 537.95 350.53 537.95 350.34 538.14L313.52 575.94H313.32L276.5 540.3V540.1L313.32 502.3C313.32 502.11 313.32 502.11 313.32 501.91L266.51 482.91C266.51 482.72 266.51 482.52 266.51 482.33Z" fill="#0e232d" opacity="0.2" stroke-width="4" stroke="none"></path><path d="M266.51 441.98L426.13 383.03C426.32 383.03 426.52 383.03 426.32 383.23L371.68 544.41C371.68 544.6 371.49 544.6 371.29 544.41L350.73 497.8C350.73 497.6 350.53 497.6 350.34 497.8L313.52 535.6H313.32L276.5 499.95V499.76L313.32 461.96C313.32 461.76 313.32 461.76 313.32 461.57L266.51 442.57C266.51 442.18 266.51 441.98 266.51 441.98Z" fill="#61ccff" opacity="1" stroke-width="4" stroke="none"></path></g><g><path d="M920.12 359.4L922.09 345.16C918.48 346.26 914.76 346.92 911.03 346.81 900.85 346.81 892.2 343.3 888.04 337.5 881.14 328.08 880.92 317.13 887.38 297.09 886.72 296.22 881.8 289.98 882.78 285.92 883.33 283.63 886.72 281.98 892.75 281.11L893.29 279.14C897.13 267.75 900.3 257.78 904.79 250.23 909.5 242.34 919.03 248.04 928.77 244.31 936.22 241.36 939.39 241.36 947.39 241.36 962.72 241.36 963.81 240.81 974 249.79 990.09 264.35 987.68 281.44 984.84 296.33L986.15 301.58C984.84 309.36 992.17 328.41 989 344.62 988.45 347.57 987.46 350.75 986.92 353.38L982.86 360.28 920.12 359.4Z" fill="#9b594b" opacity="1" stroke-width="4" stroke="none"></path><path d="M922.09 345.16L920.12 359.4 930.2 359.73C930.2 359.73 947.72 334 938.96 338.38 933.48 341.11 927.9 343.41 922.09 345.16Z" fill="#000000" opacity="0.3" stroke-width="4" stroke="none"></path><path d="M981.88 345.05C973.01 345.05 956.48 343.3 946.51 331.81L946.07 331.37 946.51 331.15C947.28 330.82 964.25 322.06 967.21 310.45 968.19 306.4 967.32 302.24 964.91 298.96 962.5 295.56 958.56 293.81 953.08 293.81 943.55 293.81 932.71 299.06 932.6 299.17L932.39 299.39 932.17 299.17C926.03 292.06 930.74 281.76 933.15 277.49 933.37 277.16 933.04 276.84 932.71 276.95 929.65 277.82 926.47 278.26 923.08 278.48 919.79 278.48 917.82 277.6 917.06 275.96 915.85 273.33 917.71 268.73 922.86 262.16 923.19 261.83 922.86 261.18 922.42 261.29 921.33 261.4 920.23 261.4 919.03 261.4 914.1 261.4 910.38 260.08 907.97 257.56 906.11 255.7 904.9 253.07 904.79 250.45V250.23C909.5 242.23 916.73 236.1 925.27 233.04 932.6 230.08 940.49 228.66 948.81 228.66 964.03 228.66 978.7 233.91 989 243 1005.09 257.56 999.84 285.27 996.99 300.16L996.88 300.93C995.68 308.81 992.39 327.86 989.33 343.63L989.11 344.62 988.78 344.73C986.7 345.05 984.51 345.05 981.88 345.05Z" fill="#231f20" opacity="1" stroke-width="4" stroke="none"></path><path d="M706.27 495.29C702.87 495.29 700.46 494.3 699.04 492.44 696.85 489.49 697.51 485.32 697.84 484.34 693.35 483.9 690.17 482.48 688.31 479.85 686.67 477.22 686.12 474.16 686.89 471.09 678.78 465.83 682.07 456.85 682.51 455.65 681.74 454.66 676.26 446.34 681.52 440.1 686.67 433.97 709.01 429.81 712.84 429.15 710.43 427.4 699.37 419.19 699.04 412.73 698.93 410.97 699.81 409.33 701.12 408.35 702.11 407.58 703.86 407.14 706.38 407.14 716.78 407.14 739.88 414.26 763.76 424.77 769.23 427.18 774.92 429.81 780.95 432.76L781.6 434.19 758.5 491.35 750.29 491.68C747.66 488.94 745.8 487.08 743.94 485.43 742.07 486.2 721.38 494.19 707.91 495.29 707.36 495.18 706.82 495.29 706.27 495.29Z" fill="#9b594b" opacity="1" stroke-width="4" stroke="none"></path><path d="M894.83 310.12C899.21 310.78 904.02 308.26 906.43 306.4" stroke="#000000" stroke-width="4" stroke-linecap="round" stroke-linejoin="round" opacity="1" fill="none"></path><path d="M906.11 289.1C907.92 289.1 909.39 287.63 909.39 285.82 909.39 284 907.92 282.53 906.11 282.53 904.3 282.53 902.82 284 902.82 285.82 902.82 287.63 904.3 289.1 906.11 289.1Z" fill="#231f20" opacity="1" stroke-width="4" stroke="none"></path><path d="M937.86 316.48L948.26 310.23" stroke="#000000" stroke-width="4" stroke-linecap="round" stroke-linejoin="round" opacity="1" fill="none"></path><path d="M922.09 345.16C924.94 344.29 930.09 342.76 932.71 341.22" stroke="#000000" stroke-width="4" stroke-linecap="round" stroke-linejoin="round" opacity="1" fill="none"></path><path d="M682.51 455.65L702.44 448.97" stroke="#000000" stroke-width="4" stroke-linecap="round" stroke-linejoin="round" opacity="1" fill="none"></path><path d="M686.89 471.09L708.35 463.31" stroke="#000000" stroke-width="4" stroke-linecap="round" stroke-linejoin="round" opacity="1" fill="none"></path><path d="M697.84 484.34L714.15 479.63" stroke="#000000" stroke-width="4" stroke-linecap="round" stroke-linejoin="round" opacity="1" fill="none"></path><path d="M712.84 429.15L727.62 427.07" stroke="#000000" stroke-width="4" stroke-linecap="round" stroke-linejoin="round" opacity="1" fill="none"></path><path d="M1109.78 916.21L1108.79 915.99C1095.76 892.55 1077.91 867.59 1060.61 843.28 1048.89 826.75 1037.83 811.2 1028.85 796.96 1018.01 779.77 1008.16 761.92 999.18 743.63V743.53L1001.04 740.02 1103.1 737.83 1110.32 743.85C1111.53 745.93 1112.29 747.47 1113.61 749.55 1121.05 762.03 1129.59 772.54 1138.03 782.62 1142.52 787.98 1146.79 793.13 1150.62 798.38 1159.16 809.88 1166.17 819.52 1172.74 830.03 1182.15 845.25 1190.7 860.8 1198.14 877.01L1198.03 877.33 1184.24 961.76 1109.78 916.21Z" fill="#61ccff" opacity="1" stroke-width="4" stroke="none"></path><path d="M1001.04 740.02L999.18 743.53V743.63C1005.97 757.32 1013.09 770.79 1020.53 783.38L1073.42 739.15 1001.04 740.02Z" fill="#000000" opacity="0.3" stroke-width="4" stroke="none"></path><path d="M1103.53 1031.51C1104.19 1027.57 1105.5 1023.85 1107.37 1020.34 1108.13 1018.92 1109.01 1017.28 1109.88 1015.41 1114.37 1006.98 1121.16 994.17 1125.11 984.1 1131.02 968.88 1125.76 946.65 1108.79 915.99L1128.39 907.23C1135.62 904.05 1144.05 906.02 1149.2 912.05L1171.53 938C1172.3 938.87 1173.83 938.22 1173.72 937.01L1169.89 903.18C1169.01 895.29 1173.29 887.74 1180.62 884.67L1198.14 877.01C1198.14 877.01 1199.13 878.98 1199.24 879.41 1213.03 910.62 1223.76 943.36 1230.99 976.65L1230.55 977.31 1229.35 981.25 1104.19 1036.11 1103.53 1031.51Z" fill="#231f20" opacity="1" stroke-width="4" stroke="none"></path><path d="M912.89 930C909.06 902.74 904.13 870.22 900.3 844.59 897.13 823.13 894.28 803.2 892.75 792.36 890.56 776.7 888.91 760.61 887.71 743.85L888.37 741.01 990.64 737.72V737.94C988.45 748.89 988.45 765.86 989.43 777.03 991.3 798.49 995.57 816.78 999.73 834.52L1000.17 836.49C1003.45 850.4 1006.08 862.11 1007.94 874.27 1010.79 892.77 1012.21 911.28 1012.54 929.89L1012.32 930.11 963.05 1006.54 912.89 930Z" fill="#61ccff" opacity="1" stroke-width="4" stroke="none"></path><path d="M990.53 787.54C990.09 784.15 989.76 780.76 989.43 777.25 988.45 766.08 988.45 749.11 990.64 738.16V737.94L896.25 740.24 990.53 787.54Z" fill="#000000" opacity="0.3" stroke-width="4" stroke="none"></path><path d="M864.17 1032.5C866.47 1028.88 869.31 1025.93 872.6 1023.3 874.02 1022.09 875.77 1020.67 877.85 1019.14 885.52 1013 896.14 1004.68 903.26 997.02 916.95 982.34 916.18 952.89 913 930.66L912.89 930H931.4C940.6 930 948.7 935.92 951.55 944.57L961.29 974.35C961.4 974.9 962.17 974.79 962.28 974.35L970.38 945.44C973.01 936.25 981.33 930 990.86 929.89H1012.54V930.11C1012.87 964.5 1009.69 998.88 1003.12 1032.61L1002.47 1033.26 999.29 1035.89C999.18 1036 999.07 1036 998.96 1036L865.81 1037.09C865.59 1037.09 865.37 1036.99 865.26 1036.66L864.17 1032.5Z" fill="#231f20" opacity="1" stroke-width="4" stroke="none"></path><path d="M912.68 978.84L932.39 985.52" stroke="#000000" stroke-width="4" stroke-linecap="round" stroke-linejoin="round" opacity="1" fill="none"></path><path d="M906.43 993.29L923.63 1005.23" stroke="#000000" stroke-width="4" stroke-linecap="round" stroke-linejoin="round" opacity="1" fill="none"></path><path d="M1126.42 958.58L1147.01 951.58" stroke="#000000" stroke-width="4" stroke-linecap="round" stroke-linejoin="round" opacity="1" fill="none"></path><path d="M1127.62 974.02H1147.01" stroke="#000000" stroke-width="4" stroke-linecap="round" stroke-linejoin="round" opacity="1" fill="none"></path><path d="M859.13 1050.23V1050.02C859.02 1043.77 860.77 1037.64 864.17 1032.5L1003.12 1032.61C1001.59 1039.83 1000.06 1046.4 998.85 1050.02L859.13 1050.23Z" fill="#cecdce" opacity="1" stroke-width="4" stroke="none"></path><path d="M887.71 743.53C881.25 650.89 891.98 568.22 897.78 544.78L886.29 490.03C883.11 494.85 855.08 536.79 823.98 536.79 793.43 536.79 770.76 513.03 754.23 495.73 752.91 494.41 751.71 492.99 750.4 491.78L750.29 491.68 780.95 432.76 781.17 432.87C799.45 441.96 814.34 450.83 816.21 452.04 817.85 448.75 838 409.55 858.8 387.54 871.72 373.96 892.42 366.3 917.06 366.19 917.49 366.19 917.82 366.19 918.04 366.19L921 353.27 987.03 353.38C987.03 353.38 986.59 364.76 986.26 366.63 988.67 366.95 1009.69 370.57 1024.04 386.45 1028.09 390.72 1038.49 403.64 1048.67 429.59 1058.31 453.9 1065.54 478.43 1068.38 496.93 1073.86 531.97 1054.26 562.41 1032.14 574.46 1050.86 601.72 1064.33 637.64 1077.58 675.31 1086.01 699.29 1093.9 715.71 1110.1 743.42L1110.32 743.85H887.71V743.53Z" fill="#cecdce" opacity="1" stroke-width="4" stroke="none"></path><path d="M891.65 582.34H930.3V613.44C930.3 629.21 917.49 642.02 901.73 642.02L886.72 641.8" stroke="#353535" stroke-width="4" stroke-linecap="round" stroke-linejoin="round" opacity="1" fill="none"></path><path d="M898 544.89L1001.59 544.78 1018.89 464.3" stroke="#353535" stroke-width="4" stroke-linecap="round" stroke-linejoin="round" opacity="1" fill="none"></path><path d="M1009.36 508.54L1027.65 513.58" stroke="#353535" stroke-width="4" stroke-linecap="round" stroke-linejoin="round" opacity="1" fill="none"></path><path d="M886.4 489.49C902.82 465.4 910.49 453.35 910.49 453.35" stroke="#353535" stroke-width="4" stroke-linecap="round" stroke-linejoin="round" opacity="1" fill="none"></path><path d="M886.29 490.03L899.86 469.45C900.96 467.59 901.83 466.16 903.92 466.16 905.56 466.16 907.2 466.82 908.4 468.02 909.61 469.23 910.16 470.76 910.16 472.4 909.94 494.41 895.05 528.69 894.83 529.12L894.61 529.67 886.29 490.03Z" fill="#353535" opacity="0.3" stroke-width="4" stroke="none"></path><path d="M1031.81 574.24C1022.18 561.76 1009.47 548.72 1001.59 544.78" stroke="#353535" stroke-width="4" stroke-linecap="round" stroke-linejoin="round" opacity="1" fill="none"></path><path d="M1001.59 544.78L1015.17 481.6C1026.12 486.2 1027.65 505.91 1028.75 520.15 1029.84 534.38 1034.77 548.51 1048.46 561.32L1048.56 561.43 1048.46 561.54C1043.64 566.68 1038.38 571.06 1032.14 574.46 1032.14 574.46 1015.17 554.31 1001.59 544.78Z" fill="#353535" opacity="0.3" stroke-width="4" stroke="none"></path><path d="M1105.83 1050.13C1103.21 1044.32 1102.33 1037.86 1103.53 1031.51L1230.99 976.65C1232.31 982.78 1233.29 988.81 1233.95 994.94V995.05L1105.83 1050.13Z" fill="#cecdce" opacity="1" stroke-width="4" stroke="none"></path><path d="M918.04 366.19L932.39 366.3" stroke="#353535" stroke-width="4" stroke-linecap="round" stroke-linejoin="round" opacity="1" fill="none"></path><path d="M816.21 452.04L822.89 479.63" stroke="#353535" stroke-width="4" stroke-linecap="round" stroke-linejoin="round" opacity="1" fill="none"></path></g></svg>