<svg xmlns="http://www.w3.org/2000/svg" height="1200" width="1600" version="1.1" xmlns:xlink="http://www.w3.org/1999/xlink" xmlns:svgjs="http://svgjs.com/svgjs"><rect fill="#f3ebe9" width="1600" height="1200"></rect><g><path d="M883.28 797.48H1100.56C1115.69 797.48 1127.92 809.75 1127.92 824.84V1042.11C1127.92 1057.25 1115.64 1069.47 1100.56 1069.47H883.28C868.15 1069.47 855.92 1057.2 855.92 1042.11V824.89C855.87 809.75 868.15 797.48 883.28 797.48Z" fill="#cecece" opacity="1" stroke-width="4" stroke="none"></path></g><g><path d="M1121.55 495.75H1404.45C1426.85 495.75 1444.95 513.85 1444.95 536.25V804.75C1444.95 827.15 1426.85 845.25 1404.45 845.25H1121.55C1099.15 845.25 1081.05 827.15 1081.05 804.75V536.25C1080.95 513.85 1099.15 495.75 1121.55 495.75Z" fill="#ffffff" opacity="1" stroke-width="4" stroke="none"></path><path d="M1231.45 809.75C1236.7 809.75 1240.95 805.5 1240.95 800.25 1240.95 795 1236.7 790.75 1231.45 790.75 1226.2 790.75 1221.95 795 1221.95 800.25 1221.95 805.5 1226.2 809.75 1231.45 809.75Z" fill="#9e76dd" opacity="1" stroke-width="4" stroke="none"></path><path d="M1294.45 809.75C1299.7 809.75 1303.95 805.5 1303.95 800.25 1303.95 795 1299.7 790.75 1294.45 790.75 1289.2 790.75 1284.95 795 1284.95 800.25 1284.95 805.5 1289.2 809.75 1294.45 809.75Z" fill="#9e76dd" opacity="1" stroke-width="4" stroke="none"></path><path d="M1263.45 809.75C1268.7 809.75 1272.95 805.5 1272.95 800.25 1272.95 795 1268.7 790.75 1263.45 790.75 1258.2 790.75 1253.95 795 1253.95 800.25 1253.95 805.5 1258.2 809.75 1263.45 809.75Z" fill="#231f20" opacity="1" stroke-width="4" stroke="none"></path></g><g><path d="M1268.93 657.05H1268.28C1260.03 657.05 1253.33 650.34 1253.33 642.09V616.74C1253.33 608.49 1260.03 601.79 1268.28 601.79 1276.92 601.79 1283.88 608.79 1283.88 617.38V642.09C1283.88 650.34 1277.18 657.05 1268.93 657.05Z" fill="#ffc930" opacity="1" stroke-width="4" stroke="none"></path><path d="M1329.04 657.05H1328.4C1320.15 657.05 1313.45 650.34 1313.45 642.09V616.74C1313.45 608.49 1320.15 601.79 1328.4 601.79 1337.04 601.79 1344 608.79 1344 617.38V642.09C1344 650.34 1337.29 657.05 1329.04 657.05Z" fill="#ffc930" opacity="1" stroke-width="4" stroke="none"></path><path d="M1299.01 657.05H1298.36C1290.11 657.05 1283.41 650.34 1283.41 642.09V616.74C1283.41 608.49 1290.11 601.79 1298.36 601.79 1307 601.79 1313.96 608.79 1313.96 617.38V642.09C1313.96 650.34 1307.26 657.05 1299.01 657.05Z" fill="#ffc930" opacity="1" stroke-width="4" stroke="none"></path><path d="M1187.02 715.4V694.86L1338.63 631.87V715.4H1187.02Z" fill="#9789b2" opacity="1" stroke-width="4" stroke="none"></path><path d="M1299.35 656.92C1301.63 664.31 1307.13 669.12 1311.68 667.75 1316.24 666.37 1318.04 659.24 1315.81 651.85 1314.73 648.32 1312.89 645.36 1310.78 643.42L1298.53 648.5C1298.19 651.33 1298.49 654.21 1299.35 656.92Z" fill="#3c2c5b" opacity="1" stroke-width="4" stroke="none"></path><path d="M1284.2 685.44C1288.9 679.33 1289.65 672.02 1285.89 669.13 1282.12 666.24 1275.26 668.86 1270.56 674.98 1265.87 681.09 1265.12 688.4 1268.88 691.29 1272.64 694.18 1279.5 691.56 1284.2 685.44Z" fill="#3c2c5b" opacity="1" stroke-width="4" stroke="none"></path><path d="M1259.95 680.72C1263.64 678.02 1263.21 671.06 1259.04 664.95L1242.97 671.66C1243.49 672.69 1244.09 673.63 1244.78 674.58 1249.33 680.72 1256.12 683.52 1259.95 680.72Z" fill="#3c2c5b" opacity="1" stroke-width="4" stroke="none"></path><path d="M1254.79 702.47C1251.65 695.42 1245.55 691.29 1241.25 693.23 1236.96 695.16 1235.97 702.42 1239.1 709.47 1240.05 711.66 1241.38 713.68 1243.06 715.4H1255.73C1257.2 712.18 1256.98 707.24 1254.79 702.47Z" fill="#3c2c5b" opacity="1" stroke-width="4" stroke="none"></path><path d="M1204.6 699.5C1208.38 702.34 1215.21 699.63 1219.85 693.49 1223.38 688.76 1224.62 683.34 1223.29 679.82L1203.31 688.11C1201.46 692.84 1201.81 697.4 1204.6 699.5Z" fill="#3c2c5b" opacity="1" stroke-width="4" stroke="none"></path><path d="M1290.8 690.91C1286.8 689.88 1281.99 695.12 1280.1 702.6 1278.81 707.71 1279.2 712.57 1280.87 715.4H1289.94C1291.92 713.3 1293.64 710.07 1294.58 706.25 1296.51 698.81 1294.8 691.94 1290.8 690.91Z" fill="#3c2c5b" opacity="1" stroke-width="4" stroke="none"></path><path d="M1317.44 689.15C1325.15 689.15 1331.41 685.8 1331.41 681.67 1331.41 677.54 1325.15 674.19 1317.44 674.19 1309.73 674.19 1303.48 677.54 1303.48 681.67 1303.48 685.8 1309.73 689.15 1317.44 689.15Z" fill="#3c2c5b" opacity="1" stroke-width="4" stroke="none"></path><path d="M1335.49 646.65C1327.75 646.65 1321.52 650 1321.52 654.12 1321.52 658.25 1327.75 661.6 1335.49 661.6 1336.52 661.6 1337.6 661.52 1338.63 661.43V646.82C1337.6 646.73 1336.52 646.65 1335.49 646.65Z" fill="#3c2c5b" opacity="1" stroke-width="4" stroke="none"></path><path d="M1314.05 702.72C1311.38 704.96 1311.98 710.24 1315.16 715.4H1332.74C1331.79 712.95 1330.46 710.63 1328.74 708.66 1323.8 702.72 1317.23 700.1 1314.05 702.72Z" fill="#3c2c5b" opacity="1" stroke-width="4" stroke="none"></path><path d="M1221.01 703.84C1217.19 703.54 1213.62 708.57 1212.59 715.44H1227.42C1227.2 709.08 1224.62 704.14 1221.01 703.84Z" fill="#3c2c5b" opacity="1" stroke-width="4" stroke="none"></path><path d="M1181.74 691.21L1181.65 720.77C1181.65 720.77 1181.65 720.77 1181.69 720.82H1344C1344 720.82 1344 720.82 1344.04 720.77V623.83L1343.83 623.92C1343.87 623.92 1343.87 623.83 1343.83 623.83H1253.37 1253.33L1181.74 691.21ZM1192.39 709.99V698.43L1333.17 639.73C1333.17 639.73 1333.17 639.73 1333.21 639.73L1333.26 709.99C1333.26 709.99 1333.26 709.99 1333.21 710.03L1192.39 709.99C1192.39 710.03 1192.39 710.03 1192.39 709.99Z" fill="#ffc930" opacity="1" stroke-width="4" stroke="none"></path><path d="M1181.74 691.21L1343.27 623.83" stroke="#625122" stroke-width="4" stroke-linecap="round" stroke-linejoin="round" opacity="1" fill="none"></path><path d="M1243.27 636.51C1251.22 636.51 1257.67 642.95 1257.67 650.9 1257.67 658.85 1250.36 663.75 1242.89 665.25 1235.07 666.8 1228.88 658.85 1228.88 650.9 1228.88 642.95 1235.32 636.51 1243.27 636.51Z" fill="#625122" opacity="0.2" stroke-width="4" stroke="none"></path><path d="M1260.03 646.86C1254.06 652.84 1244.18 652.62 1244.18 652.62 1244.18 652.62 1244 642.74 1249.98 636.76 1255.95 630.79 1265.83 630.96 1265.83 630.96 1265.83 630.96 1266 640.85 1260.03 646.86Z" fill="#9e76dd" opacity="1" stroke-width="4" stroke="none"></path><path d="M1260.03 646.86C1254.06 652.84 1244.18 652.62 1244.18 652.62L1265.83 630.96C1265.83 630.96 1266 640.85 1260.03 646.86Z" fill="#625122" opacity="0.2" stroke-width="4" stroke="none"></path><path d="M1244.18 651.42C1244.18 651.42 1251.01 644.28 1259.47 644.28 1260.2 644.28 1260.89 644.33 1261.62 644.41" stroke="#737373" stroke-width="4" stroke-linecap="round" stroke-linejoin="round" opacity="1" fill="none"></path><path d="M1192.39 709.26V698.94C1192.39 698.64 1192.57 698.34 1192.87 698.26L1332.18 640.37 1333.26 641.06V643.77C1333.26 644.37 1333.9 644.71 1334.42 644.41L1343.61 639.08C1343.83 638.96 1344 638.7 1344 638.44V625.03C1344 624.47 1343.44 624.13 1342.92 624.35L1182.17 691.17C1181.87 691.29 1181.69 691.55 1181.69 691.85L1181.65 720.04C1181.65 720.47 1182 720.82 1182.43 720.82H1202.15C1202.28 720.82 1202.41 720.77 1202.54 720.73L1218.56 711.49C1219.25 711.1 1218.95 710.07 1218.18 710.07H1193.17C1192.74 710.03 1192.39 709.69 1192.39 709.26Z" fill="#625122" opacity="0.2" stroke-width="4" stroke="none"></path><path d="M1253.41 623.7H1343.65" stroke="#625122" stroke-width="4" stroke-linecap="round" stroke-linejoin="round" opacity="1" fill="none"></path><path d="M1259.47 645.23C1267.94 645.23 1274.77 652.36 1274.77 652.36 1274.77 652.36 1267.94 659.5 1259.47 659.5 1251.01 659.5 1244.18 652.36 1244.18 652.36 1244.18 652.36 1251.01 645.23 1259.47 645.23Z" fill="#9e76dd" opacity="1" stroke-width="4" stroke="none"></path><path d="M1236.96 659.5C1244.91 659.5 1251.35 653.05 1251.35 645.1 1251.35 637.15 1244.91 630.7 1236.96 630.7 1229.01 630.7 1222.56 637.15 1222.56 645.1 1222.56 653.05 1229.01 659.5 1236.96 659.5Z" fill="#3c2c5b" opacity="1" stroke-width="4" stroke="none"></path><path d="M1233.09 644.15C1234.94 644.15 1236.44 642.66 1236.44 640.8 1236.44 638.95 1234.94 637.45 1233.09 637.45 1231.24 637.45 1229.74 638.95 1229.74 640.8 1229.74 642.66 1231.24 644.15 1233.09 644.15Z" fill="#9789b2" opacity="1" stroke-width="4" stroke="none"></path></g><g><path d="M203.86 486.97H406.61C423.98 486.97 438 501.06 438 518.36V721.11C438 738.48 423.92 752.5 406.61 752.5H203.86C186.5 752.5 172.47 738.42 172.47 721.11V518.36C172.47 501.06 186.56 486.97 203.86 486.97Z" fill="#ffffff" opacity="1" stroke-width="4" stroke="none"></path></g><g><path d="M308.81 662.68C331.69 662.68 350.25 644.13 350.25 621.25 350.25 598.37 331.69 579.82 308.81 579.82 285.93 579.82 267.38 598.37 267.38 621.25 267.38 644.13 285.93 662.68 308.81 662.68Z" fill="#3c2c5b" opacity="1" stroke-width="4" stroke="none"></path><path d="M326.6 583.8C326.56 583.8 326.51 583.8 326.56 583.84 327.92 587.87 328.66 592.27 328.66 596.76 328.66 619.66 310.13 638.2 287.23 638.2 280.91 638.2 274.92 636.79 269.54 634.22 275.15 651.12 291.21 663.15 310.03 662.63 332.08 662.03 349.97 643.91 350.29 621.81 350.48 605.05 340.74 590.54 326.6 583.8Z" fill="#000000" opacity="0.2" stroke-width="4" stroke="none"></path><path d="M358.77 610.62C358.25 610.43 357.74 610.29 357.18 610.2 348.56 608.94 340.18 615.77 338.59 624.29 338.64 623.78 338.68 623.31 338.68 622.79 338.68 614.6 332.04 607.95 323.84 607.95 315.93 607.95 309.47 614.13 309.05 621.9 309.05 621.9 309.05 622.04 309 622.23 308.72 614.32 302.17 607.95 294.16 607.95 285.97 607.95 279.09 614.79 279.09 622.98 277.35 614.6 269.35 608.94 260.83 610.2 260.27 610.29 259.75 610.43 259.24 610.62 255.02 612.17 252.82 616.85 254.37 621.06L276.7 682.39H290.28 309 327.73 341.31L363.64 621.06C365.18 616.85 362.98 612.17 358.77 610.62Z" fill="#ffc930" opacity="1" stroke-width="4" stroke="none"></path><path d="M312.85 598.31C319.69 596.38 322.99 586.84 320.22 577.02 317.44 567.19 309.65 560.79 302.8 562.71 295.96 564.65 292.66 574.18 295.44 584.01 298.21 593.84 306.01 600.24 312.85 598.31Z" fill="#231f20" opacity="1" stroke-width="4" stroke="none"></path><path d="M302.4 563.34C294.96 578.55 320.8 582.02 313.07 597.79" stroke="#eceaea" stroke-width="4" stroke-linecap="round" stroke-linejoin="round" opacity="1" fill="none"></path><path d="M341.31 682.39L363.64 621.06C365.18 616.85 362.98 612.17 358.77 610.62 358.25 610.43 357.74 610.29 357.18 610.2L334.84 682.39H341.31Z" fill="#a6862b" opacity="0.2" stroke-width="4" stroke="none"></path><path d="M328.52 608.7C329.04 608.89 329.51 609.08 329.98 609.26 335.13 611.6 338.68 616.75 338.68 622.79 338.68 623.73 338.59 624.62 338.45 625.56L327.73 682.39H319.96L328.52 608.7Z" fill="#a6862b" opacity="0.2" stroke-width="4" stroke="none"></path><path d="M309 682.39V622.79C309 614.6 302.35 607.95 294.16 607.95L301.28 682.39H309Z" fill="#a6862b" opacity="0.2" stroke-width="4" stroke="none"></path><path d="M263.54 610.01C271.08 610.15 277.68 615.58 279.13 623.22L290.28 682.39H284.05L263.54 610.01Z" fill="#a6862b" opacity="0.2" stroke-width="4" stroke="none"></path><path d="M309 619.19V682.39" stroke="#343027" stroke-width="4" stroke-linecap="round" stroke-linejoin="round" opacity="1" fill="none"></path><path d="M338.96 622.75L327.73 682.39" stroke="#343027" stroke-width="4" stroke-linecap="round" stroke-linejoin="round" opacity="1" fill="none"></path><path d="M279.09 622.98L290.28 682.39" stroke="#343027" stroke-width="4" stroke-linecap="round" stroke-linejoin="round" opacity="1" fill="none"></path></g><g><path d="M1067.4 878.78L1064.61 993.32H927.77L940.51 945.05 955.37 891.91C957.55 884.14 964.64 878.78 972.69 878.78H1067.4Z" fill="#9e76dd" opacity="1" stroke-width="4" stroke="none"></path><path d="M913.24 945.05C903.29 945.05 895.25 953.09 895.25 963.04V997.24H995.38L1016.22 975.55 1009.79 944.99 913.24 945.05Z" fill="#6228bd" opacity="1" stroke-width="4" stroke="none"></path><path d="M1080.37 891.91V997.24H991.8V962.98C991.8 953.04 999.85 944.99 1009.79 944.99H1037.12L1052.54 889.84C1054.38 883.3 1060.36 878.78 1067.18 878.78 1074.44 878.72 1080.37 884.64 1080.37 891.91Z" fill="#000000" opacity="1" stroke-width="4" stroke="none"></path><path d="M1026.05 933.81H957.94L969.73 891.68H1037.79L1026.05 933.81Z" fill="#3c2c5b" opacity="1" stroke-width="4" stroke="none"></path><path d="M910.95 979.08H975.43" stroke="#000000" stroke-width="4" stroke-linecap="round" stroke-linejoin="round" opacity="1" fill="none"></path></g><g><path d="M682.45 154.15H1100.15C1129.25 154.15 1152.75 177.75 1152.75 206.75V624.45C1152.75 653.55 1129.15 677.05 1100.15 677.05H682.45C653.35 677.05 629.85 653.45 629.85 624.45V206.85C629.75 177.75 653.35 154.15 682.45 154.15Z" fill="#cecece" opacity="1" stroke-width="4" stroke="none"></path></g><g><path d="M915.3 509.81L926.01 478.54H977.68L987.86 508.73H953.26Z" fill="#3c2c5b" opacity="1" stroke-width="4" stroke="none"></path><path d="M951.89 490.19C903.8 490.19 864.76 447.56 864.76 395.26 893.86 395.26 923.68 407.71 952.78 407.71 981.8 407.71 1010.01 395.26 1039.02 395.26 1030.69 450.6 991.65 490.19 951.89 490.19Z" fill="#9e76dd" opacity="1" stroke-width="4" stroke="none"></path><path d="M951.89 490.19C947.86 490.36 943.92 490.01 939.71 489.29 982.25 482.66 1014.48 442.19 1014.48 395.26L1039.02 395.35C1029.71 448.01 997.29 487.68 951.89 490.19Z" fill="#6a28d1" opacity="0.25" stroke-width="4" stroke="none"></path><path d="M951.89 426.61C896.91 426.61 870.22 399.83 866.46 395.8 866.28 395.62 866.46 395.26 866.73 395.26L1037.14 395.17C1037.5 395.17 1037.59 395.53 1037.41 395.8 1033.38 400.19 1006.42 426.61 951.89 426.61Z" fill="#787878" opacity="1" stroke-width="4" stroke="none"></path><path d="M951.89 379.14V424.81" stroke="#3c2c5b" stroke-width="4" stroke-linecap="round" stroke-linejoin="round" opacity="1" fill="none"></path><path d="M930.84 379.14C927.26 379.14 924.4 376.28 924.4 372.7V358.55H979.02V372.7C979.02 376.28 976.16 379.14 972.57 379.14H930.84Z" fill="#3c2c5b" opacity="1" stroke-width="4" stroke="none"></path><path d="M978.04 333.47C974.63 333.47 971.86 330.7 971.86 327.29V315.47C971.86 312.07 974.63 309.3 978.04 309.3H1020.3C1023.71 309.3 1026.48 312.07 1026.48 315.47V327.21C1026.48 330.61 1023.71 333.38 1020.3 333.38L978.04 333.47Z" fill="#3c2c5b" opacity="1" stroke-width="4" stroke="none"></path><path d="M743.51 534.96C744.4 515.53 753.8 506.04 763.83 495.92 773.68 485.98 783.8 475.68 786.49 455.26 791.42 417.29 799.83 350.31 799.92 349.59H843.8L860.82 507.2H998.1C1006.6 507.2 1014.57 511.41 1019.5 518.39L1030.96 534.96H743.51Z" fill="#3c2c5b" opacity="1" stroke-width="4" stroke="none"></path><path d="M860.82 507.2C841.56 507.2 825.44 492.25 824.01 473.08L818.82 408.34C817.65 394.55 809.15 382.37 796.52 376.55L799.92 349.59H843.8L860.82 507.2Z" fill="#000000" opacity="0.25" stroke-width="4" stroke="none"></path><path d="M860.82 507.2H825.18" stroke="#000000" stroke-width="4" stroke-linecap="round" stroke-linejoin="round" opacity="1" fill="none"></path><path d="M763.92 334.73C763.83 334.46 763.3 334.01 763.12 333.47 763.12 333.47 761.15 326.94 760.97 320.49 760.79 314.85 774.31 296.13 800.82 280.64H975.44C997.47 280.64 1015.29 298.55 1015.29 320.49 1015.29 324.97 1014.57 329.35 1013.14 333.47L1012.69 334.1 763.92 334.73Z" fill="#3c2c5b" opacity="1" stroke-width="4" stroke="none"></path><path d="M800.82 360.34C783.8 360.34 768.67 349.5 763.12 333.47H1013.14C1007.59 349.59 992.45 360.43 975.44 360.43L800.82 360.34Z" fill="#9e76dd" opacity="1" stroke-width="4" stroke="none"></path><path d="M844.97 360.43L798.58 360.25" stroke="#000000" stroke-width="4" stroke-linecap="round" stroke-linejoin="round" opacity="1" fill="none"></path></g><g><path d="M1129.18 107.86C1096.29 107.86 1069.61 134.54 1069.61 167.43 1069.61 200.33 1096.29 227 1129.18 227 1162.08 227 1188.75 200.33 1188.75 167.43 1188.75 134.54 1162.08 107.86 1129.18 107.86Z" fill="#ffc930" opacity="1" stroke-width="4" stroke="none"></path><path d="M1097.38 175.36C1098.06 177.55 1100.12 178.99 1102.37 178.99 1102.44 178.99 1102.44 179.06 1102.44 179.06 1101.69 180.29 1101.48 181.73 1101.89 183.09 1102.58 185.28 1104.63 186.72 1106.89 186.72 1106.95 186.72 1106.95 186.79 1106.95 186.79 1106.07 188.36 1105.93 190.27 1106.82 191.85 1108.05 193.97 1110.58 194.92 1112.9 194.24L1126.24 190.34C1130.96 188.97 1135.54 186.99 1139.78 184.53 1141.42 183.57 1142.18 181.66 1141.7 179.88L1133.9 153.21C1133.63 152.25 1132.94 151.36 1132.05 150.88 1127.61 148.28 1114 140.21 1112.02 139.6 1102.71 138.43 1112.49 152.86 1114.41 156.08 1114.41 156.15 1114.41 156.15 1114.34 156.15 1113.11 156.49 1098.75 160.73 1098.75 160.73 1093.82 161.96 1093.41 169.21 1098.47 170.51 1098.54 170.51 1098.54 170.58 1098.47 170.65 1097.31 171.88 1096.83 173.72 1097.38 175.36Z" fill="#ffffff" opacity="1" stroke-width="4" stroke="none"></path><path d="M1137.66 149.79L1147.1 182.14C1147.58 183.71 1149.22 184.6 1150.79 184.19L1162.08 180.9C1163.65 180.43 1164.54 178.78 1164.13 177.21L1154.69 144.79C1154.21 143.22 1152.57 142.33 1151 142.74L1139.65 146.09C1138.07 146.57 1137.05 148.28 1137.66 149.79Z" fill="#ffffff" opacity="1" stroke-width="4" stroke="none"></path></g><g><path d="M716.52 392C720.92 344.89 750.58 303.95 750.86 303.67L761.15 302.18 769.59 308.57 789.74 361.56C790.87 385.19 780.23 441.1 780.16 441.66L779.24 446.56 716.52 392Z" fill="#8a5f51" opacity="1" stroke-width="4" stroke="none"></path><path d="M754.9 416.62C752.92 400.23 746.18 385.4 737.73 378.95L756.54 337.09 794.78 364.05 776.33 391.86C771.36 410.8 755.05 416.48 754.9 416.62Z" fill="#222222" opacity="0.2" stroke-width="4" stroke="none"></path><path d="M666.08 322.97C665.3 322.68 664.66 322.33 663.95 321.76L663.67 321.48C661.96 320.06 660.83 318.21 660.26 316.16 659.05 310.84 662.25 305.66 667.5 304.45 665.08 300.97 664.52 296.65 665.79 292.67 667.64 287.21 672.82 283.59 678.56 283.59 679.98 283.59 681.47 283.88 682.89 284.23 682.68 282.17 683.39 280.04 684.6 278.27 686.37 275.65 689.35 274.16 692.54 274.16 694.53 274.16 696.44 274.72 698.15 275.93 698.15 275.93 698.22 275.93 698.22 276 698.29 276.07 698.43 276.07 698.43 276.21 699 276.57 699.49 277.07 699.85 277.49L701.84 280.97 736.03 340.49 666.08 322.97Z" fill="#fdf4f3" opacity="1" stroke-width="4" stroke="none"></path><path d="M818.26 405.62C817.91 405.62 817.62 405.55 817.2 405.41L717.59 372.42C714.11 371.21 711.06 369.58 708.43 367.52 701.69 362.34 697.29 354.97 696.16 346.52 695.02 338.08 697.22 329.78 702.26 323.04L710.21 312.54C712.34 309.63 714.89 307.22 717.73 305.3 722.98 301.75 729.15 299.77 735.54 299.77 746.11 299.77 755.97 305.02 761.86 313.75L820.74 400.58C821.31 401.37 821.52 402.36 821.24 403.28 820.74 404.77 819.61 405.62 818.26 405.62Z" fill="#fdf4f3" opacity="1" stroke-width="4" stroke="none"></path><path d="M818.19 405.62C817.91 405.62 817.55 405.55 817.27 405.41L795.13 398.1 807.62 381.5 820.74 400.73C821.24 401.58 821.38 402.5 821.1 403.42 820.74 404.77 819.47 405.62 818.19 405.62Z" fill="#ffc930" opacity="1" stroke-width="4" stroke="none"></path><path d="M723.4 374.33L765.19 318.92 807.76 381.57 795.13 398.17 723.4 374.33Z" fill="#ff4f32" opacity="1" stroke-width="4" stroke="none"></path><path d="M682.96 284.3C682.75 282.24 683.46 280.12 684.67 278.2 685.94 276.36 687.86 275.01 689.99 274.44L696.8 295.44 698 299.27C698.22 299.91 697.37 300.41 696.87 299.91L682.96 284.3Z" fill="#dcd4d2" opacity="0.2" stroke-width="4" stroke="none"></path><path d="M660.34 311.62C660.34 311.55 661.12 306.01 667.5 304.45L682.19 310.55 693.53 315.31C694.17 315.59 693.89 316.51 693.25 316.44L678.07 314.24 660.34 311.62Z" fill="#dcd4d2" opacity="0.2" stroke-width="4" stroke="none"></path><path d="M716.52 305.16L697.37 330.7" stroke="#000000" stroke-width="4" stroke-linecap="round" stroke-linejoin="round" opacity="1" fill="none"></path><path d="M682.18 284.59L697.29 300.76" stroke="#000000" stroke-width="4" stroke-linecap="round" stroke-linejoin="round" opacity="1" fill="none"></path><path d="M667.5 304.45L688.43 313.11" stroke="#000000" stroke-width="4" stroke-linecap="round" stroke-linejoin="round" opacity="1" fill="none"></path><path d="M555.04 249.11C559.56 249.11 563.2 245.46 563.2 240.95 563.2 236.45 559.56 232.79 555.04 232.79 550.54 232.79 546.89 236.45 546.89 240.95 546.89 245.46 550.54 249.11 555.04 249.11Z" fill="#9e76dd" opacity="1" stroke-width="4" stroke="none"></path><path d="M753.58 412.28L753.77 413.57C750.93 390.94 737.95 379.02 737.88 378.95 737.88 378.66 739.01 351.91 731.99 344.61 730.78 343.4 729.36 342.76 727.87 342.76 721.2 342.76 717.02 356.46 713.61 369.72 708.43 390.44 699.56 446.49 699.49 447.06 699.28 446.91 691.48 441.73 678.78 432.37L654.23 514.74C672.82 524.67 696.09 534.6 715.24 534.6 721.42 534.6 726.88 533.54 731.56 531.48 761.22 518.5 783.14 467.28 787.4 395.62" fill="#8a5f51" opacity="1" stroke-width="4" stroke="none"></path><path d="M607.97 392.57C601.02 390.87 586.55 389.66 586.55 389.66L583.64 368.09C585.91 368.37 588.11 368.59 590.38 368.59 597.68 368.59 604.99 366.81 611.52 363.41 623.23 357.16 627.13 342.41 622.87 320.77 621.45 313.75 620.81 306.93 620.03 299.63 619.47 294.02 618.9 288.2 617.98 282.1 616.2 270.89 607.83 264.72 600.95 257.48 590.23 253.51 584.06 251.88 567.74 251.88 555.54 251.88 545.54 253.94 535.75 261.1 507.86 281.53 509 305.3 509.92 316.37L518.08 388.88C518.01 388.88 505.1 390.44 493.96 391.65 492.89 391.79 490.7 392.07 490.7 392.07L562.57 491.75 607.97 392.57Z" fill="#8a5f51" opacity="1" stroke-width="4" stroke="none"></path><path d="M792.44 374.19C790.45 374.19 788.82 373.41 787.47 372.06 785.91 370.29 785.13 367.67 785.41 364.4 785.41 364.4 783.07 365.54 780.52 365.54 779.03 365.54 777.61 365.18 776.61 364.4 771.58 360.93 771.93 352.41 771.93 352.34 771.93 352.41 769.59 354.33 766.61 354.33 765.4 354.33 764.27 354.04 763.2 353.48 757.74 350.57 757.95 342.12 757.95 342.05 757.88 342.05 750.58 338.58 751.5 329.07 752.14 322.12 759.44 311.76 759.59 311.62 757.81 308.49 750.72 304.24 750.72 304.24 754.34 301.26 759.73 299.27 764.27 299.27 765.97 299.27 767.46 299.56 768.88 300.05 778.32 303.53 778.17 313.82 778.17 313.89 778.17 313.89 780.3 313.11 783.07 313.11 787.4 313.11 792.79 314.88 794.28 323.54 794.35 323.54 797.4 324.32 800.03 326.44 802.44 328.5 805.06 332.26 803.65 338.51 803.93 338.51 807.48 338.86 809.82 341.91 811.66 344.32 812.23 347.73 811.38 352.13 809.25 363.62 799.88 370.79 796.83 373.13 795.56 373.7 793.93 374.19 792.44 374.19Z" fill="#8a5f51" stroke-linejoin="round" opacity="1" stroke-width="4" stroke="none"></path><path d="M803.65 338.22C800.74 343.68 794.71 352.48 785.41 364.12" stroke="#000000" stroke-width="4" stroke-linecap="round" stroke-linejoin="round" opacity="1" fill="none"></path><path d="M794.28 323.25C790.87 329.64 782.36 342.27 771.93 352.06" stroke="#000000" stroke-width="4" stroke-linecap="round" stroke-linejoin="round" opacity="1" fill="none"></path><path d="M778.17 313.6C773 324.46 766.33 333.26 757.95 341.77" stroke="#000000" stroke-width="4" stroke-linecap="round" stroke-linejoin="round" opacity="1" fill="none"></path><path d="M479.7 557.24L469.06 506.08 456.29 525.95 393.85 475.58C414.57 441.24 432.16 419.39 449.26 406.9 464.44 395.97 477.14 393.63 491.12 392L560.65 472.03 605.99 392.14C617.12 394.27 627.27 398.03 635.85 403.21 648.62 410.87 663.74 421.37 682.32 434.92L656.92 516.24C644.15 511.16 632.24 503.25 620.96 495.37L615.35 557.1 479.7 557.1 479.7 557.24Z" fill="#ff4f32" stroke-linejoin="round" opacity="1" stroke-width="4" stroke="none"></path><path d="M507.01 368.09C497.08 368.09 486.3 364.05 485.94 352.62 485.59 342.69 492.61 337.37 498.5 334.53 504.96 331.55 511.41 330.77 511.48 330.77L509.92 316.37C509 305.3 509.71 277.56 537.66 257.13 547.52 249.89 554.9 247.91 567.03 247.91 583.35 247.91 586.4 256.85 594.63 267.2 597.76 271.25 605.77 266.28 607.12 271.18 608.26 274.94 607.4 273.3 607.97 277.07 607.97 277.07 604.28 280.12 600.95 280.12L597.19 276.85C593.99 276.85 604.35 282.39 596.55 280.47 596.48 280.68 584.28 301.19 564.62 313.04 564.41 312.82 551.43 298.35 539.72 298.35 535.53 298.35 532.06 300.19 529.15 303.81 518.72 317.22 540.29 337.58 540.5 337.8 536.6 352.77 528.51 362.34 515.67 366.88 513.47 367.59 510.28 368.09 507.01 368.09Z" fill="#222222" stroke-linejoin="round" opacity="1" stroke-width="4" stroke="none"></path><path d="M509.72 316.23C508.79 305.16 505.96 271.18 533.91 250.81 543.77 243.58 555.62 240.1 567.82 240.1 584.14 240.1 600.6 247.05 608.83 257.41 611.95 261.46 614.15 265.93 615.5 270.82 616.63 274.58 617.41 278.27 617.98 282.03L552.99 303.17C548.1 299.98 543.7 298.35 539.73 298.35 535.54 298.35 532.06 300.19 529.16 303.81 527.38 306.08 526.53 308.78 526.32 311.69L509.86 316.94 509.72 316.23Z" fill="#9e76dd" opacity="1" stroke-width="4" stroke="none"></path><path d="M562.92 299.41C562.92 299.41 548.52 265.08 555.61 241.31 559.66 240.46 563.77 240.03 567.96 240.03 584.13 240.03 600.66 246.98 608.96 257.34 612.09 261.39 614.29 265.86 615.63 270.75 616.77 274.51 617.55 278.13 618.12 281.89L562.92 299.41Z" fill="#3c2c5b" opacity="1" stroke-width="4" stroke="none"></path><path d="M583.64 368.09C578.74 366.53 573.92 364.97 569.23 362.77" stroke="#000000" stroke-width="4" stroke-linecap="round" stroke-linejoin="round" opacity="1" fill="none"></path><path d="M550.43 322.83L541.21 315.8" stroke="#000000" stroke-width="4" stroke-linecap="round" stroke-linejoin="round" opacity="1" fill="none"></path><path d="M600.95 340.35C598.4 340.56 595.21 339.78 593.43 336.73" stroke="#000000" stroke-width="4" stroke-linecap="round" stroke-linejoin="round" opacity="1" fill="none"></path><path d="M586.69 317.51C588.45 317.51 589.89 316.07 589.89 314.31 589.89 312.55 588.45 311.12 586.69 311.12 584.93 311.12 583.5 312.55 583.5 314.31 583.5 316.07 584.93 317.51 586.69 317.51Z" fill="#222222" opacity="1" stroke-width="4" stroke="none"></path><path d="M611.03 313.32C612.79 313.32 614.22 311.89 614.22 310.13 614.22 308.36 612.79 306.93 611.03 306.93 609.26 306.93 607.84 308.36 607.84 310.13 607.84 311.89 609.26 313.32 611.03 313.32Z" fill="#222222" opacity="1" stroke-width="4" stroke="none"></path><path d="M603.65 321.48C604.43 323.61 605.07 326.37 604.72 327.23 604.08 328.36 603.15 329.28 601.81 329.78" stroke="#000000" stroke-width="4" stroke-linecap="round" stroke-linejoin="round" opacity="1" fill="none"></path><path d="M528.61 388.1L517.94 388.95" stroke="#000000" stroke-width="4" stroke-linecap="round" stroke-linejoin="round" opacity="1" fill="none"></path><path d="M587.47 397.46L586.55 389.66" stroke="#000000" stroke-width="4" stroke-linecap="round" stroke-linejoin="round" opacity="1" fill="none"></path><path d="M555.83 302.31L642.32 273.59" stroke="#000000" stroke-width="4" stroke-linecap="round" stroke-linejoin="round" opacity="1" fill="none"></path><path d="M586.62 555.04L481.55 554.54C481.41 554.82 460.05 581.78 441.11 642.87 431.04 675.08 426.35 714.46 421.88 752.7 418.83 779.16 415.78 804.06 411.31 824.5 409.33 833.72 404.57 844.43 399.04 856.92 387.4 883.24 371.58 919.14 370.66 966.32L477.08 967.03 478.29 967.1C483.54 947.95 490.42 925.81 497.09 905.09 504.96 880.62 512.98 855.43 518.44 833.72 524.54 809.53 530.29 786.4 535.68 764.62 542 785.76 545.83 805.7 541.78 824 540.93 827.97 539.94 832.37 538.8 836.98 531.78 866.43 522.27 906.8 523.55 966.32L624.23 966.53 624.51 966.6C626.92 950.85 629.97 933.97 633.24 916.37 638.34 889.2 643.59 861.03 646.22 836.2 654.66 756.03 645.94 683.95 637.14 637.48 627.63 587.18 615.78 555.39 615.71 555.04L524.69 554.47" fill="#3c2c5b" opacity="1" stroke-width="4" stroke="none"></path><path d="M523.83 935.1C525.67 892.04 533.26 860.25 538.73 837.05 539.86 832.58 540.78 828.26 541.71 824.28 544.47 812.01 543.62 798.96 541 785.26 539.58 778.1 538.51 774.41 537.52 770.86 537.24 769.87 536.95 768.94 536.74 768.02 536.46 767.03 535.75 764.62 535.75 764.62 535.75 764.62 536.81 760.15 537.52 757.31 538.58 753.19 539.79 747.94 542.56 736.88 549.3 709.63 550.01 706.65 556.75 679.05L560.37 664.23 562.78 654.29C571.01 654.29 569.87 660.25 570.37 668.41L573.99 723.47C577.18 772.56 568.95 822.51 550.22 867.85 537.8 898 529.01 920.7 523.83 935.1Z" fill="#080808" opacity="0.2" stroke-width="4" stroke="none"></path><path d="M600.32 555.05H574.14C567.75 555.05 562.57 559.88 562.57 565.84V608.62C562.57 614.58 567.75 619.4 574.14 619.4H598.97" stroke="#1c1723" stroke-width="4" stroke-linecap="round" stroke-linejoin="round" opacity="1" fill="none"></path><path d="M597.9 647.06L597.9 554.82 694.53 554.82 680.49 576.11 680.49 647.06 597.9 647.06Z" fill="#9e76dd" stroke-linejoin="round" opacity="1" stroke-width="4" stroke="none"></path><path d="M657.78 646.77V575.83L671.82 554.54H694.53L680.48 575.83V646.77H657.78Z" fill="#3c304e" opacity="0.2" stroke-width="4" stroke="none"></path><path d="M631.39 580.08H648.42" stroke="#1c1723" stroke-width="4" stroke-linecap="round" stroke-linejoin="round" opacity="1" fill="none"></path><path d="M631.39 599.59H648.42" stroke="#1c1723" stroke-width="4" stroke-linecap="round" stroke-linejoin="round" opacity="1" fill="none"></path><path d="M631.39 619.46H648.42" stroke="#1c1723" stroke-width="4" stroke-linecap="round" stroke-linejoin="round" opacity="1" fill="none"></path><path d="M535.68 764.62C546.6 720.2 554.97 686.5 562.78 654.29" stroke="#000000" stroke-width="4" stroke-linecap="round" stroke-linejoin="round" opacity="1" fill="none"></path><path d="M508.23 556.67C472.11 673.09 468.5 775.26 456.43 823.43 447.35 859.69 420.54 907.15 410.96 965.33" stroke="#000000" stroke-width="4" stroke-linecap="round" stroke-linejoin="round" opacity="1" fill="none"></path><path d="M479.84 557.1L469.06 506.08 487.5 476.5 530.57 557.1H479.84Z" fill="#1c1817" opacity="0.2" stroke-width="4" stroke="none"></path><path d="M441.17 642.87C460.12 581.78 481.47 554.82 481.61 554.54H530.21L441.17 642.87Z" fill="#080808" opacity="0.2" stroke-width="4" stroke="none"></path><path d="M416.34 622.15C396.55 622.15 380.87 616.27 370.72 605.13 360.44 593.78 356.11 576.89 358.24 556.31 359.73 541.63 369.45 520.27 377.46 504.88 385.48 489.27 393.28 476.36 394.42 474.65 394.49 474.58 394.63 474.51 394.7 474.58L456.78 524.74C456.85 524.81 456.85 524.96 456.85 525.03L443.73 545.32C443.66 545.46 443.73 545.67 443.94 545.6 458.98 542.98 474.09 540.99 488.85 539.93 500.91 539.15 509.64 538.79 517.23 538.79 541.14 538.79 554.9 542.27 571.93 552.63 588.53 562.77 590.66 570.5 589.6 575.19 588.46 580.08 583.78 582.71 580.59 583.13 580.51 583.13 580.44 583.2 580.44 583.27 580.37 587.32 576.61 593.28 568.74 593.28 567.96 593.28 567.18 593.21 566.4 593.07 566.33 593.07 566.18 593.14 566.18 593.21 566.11 593.85 565.76 595.97 564.41 598.03 562.92 600.37 559.8 603.07 553.63 603.07H551.5C551.43 603.07 551.28 603.14 551.28 603.21 551.28 604.2 551.07 607.89 548.3 610.94 545.68 613.64 541.78 615.06 536.39 615.06 533.55 615.06 528.08 614.21 525.53 611.23 524.32 609.81 523.83 608.04 524.25 605.98 524.25 605.91 524.18 605.77 524.11 605.77 519.29 604.2 518.22 603.42 518.01 603.14 517.94 603.07 517.87 603.07 517.8 603.07 516.38 603.49 506.02 605.98 495.45 605.98 491.9 605.98 488.78 605.69 486.08 605.13 486.01 605.13 486.01 605.13 486.01 605.13 484.59 605.69 456.07 618.68 427.2 621.44 423.37 621.94 419.82 622.15 416.34 622.15Z" fill="#8a5f51" opacity="1" stroke-width="4" stroke="none"></path><path d="M550.87 602.79C548.03 596.4 540.22 590.72 528.87 585.76" stroke="#000000" stroke-width="4" stroke-linecap="round" stroke-linejoin="round" opacity="1" fill="none"></path><path d="M566.18 593.21C564.76 586.11 557.17 577.95 539.44 570.22" stroke="#000000" stroke-width="4" stroke-linecap="round" stroke-linejoin="round" opacity="1" fill="none"></path><path d="M580.66 583.56C580.66 578.59 569.31 566.6 552.99 558.09" stroke="#000000" stroke-width="4" stroke-linecap="round" stroke-linejoin="round" opacity="1" fill="none"></path><path d="M738.59 379.66C744.76 386.18 752.04 398.2 753.97 414.86" stroke="#000000" stroke-width="4" stroke-linecap="round" stroke-linejoin="round" opacity="1" fill="none"></path><path d="M699.49 447.06L695.38 472.1" stroke="#000000" stroke-width="4" stroke-linecap="round" stroke-linejoin="round" opacity="1" fill="none"></path><path d="M622.52 472.6L620.96 495.37" stroke="#000000" stroke-width="4" stroke-linecap="round" stroke-linejoin="round" opacity="1" fill="none"></path><path d="M478.56 490.83L469.06 506.08" stroke="#000000" stroke-width="4" stroke-linecap="round" stroke-linejoin="round" opacity="1" fill="none"></path><path d="M420.32 550.36L443.81 545.53" stroke="#000000" stroke-width="4" stroke-linecap="round" stroke-linejoin="round" opacity="1" fill="none"></path><path d="M564.76 360.5C573.7 365.39 580.94 367.38 583 367.88 583.35 367.95 583.64 368.23 583.71 368.66L585.77 384.34C585.91 385.19 584.77 385.69 584.2 385.05L563.63 361.92C563.06 361.14 563.91 360 564.76 360.5Z" fill="#222222" opacity="0.2" stroke-width="4" stroke="none"></path><path d="M516.38 373.7L529.06 388.03 518.08 388.95 516.38 373.7Z" fill="#222222" opacity="0.2" stroke-width="4" stroke="none"></path><path d="M692.61 460.04L689.63 440.24C695.59 444.71 699.49 447.06 699.49 447.06L695.66 471.6C695.52 472.31 694.53 472.31 694.39 471.6L692.61 460.04Z" fill="#222222" opacity="0.2" stroke-width="4" stroke="none"></path><path d="M649.27 512.86C632.95 504.43 621.1 495.51 620.96 495.44L623.3 461.39 649.27 511.97Z" fill="#1c1817" opacity="0.2" stroke-width="4" stroke="none"></path><path d="M410.39 551.92L455.02 527.86 443.52 545.74 410.39 551.92Z" fill="#222222" opacity="0.2" stroke-width="4" stroke="none"></path><path d="M383 1081.61L382.93 1081.47C378.88 1062.67 373.42 1030.46 370.86 983.49 370.58 976.68 370.51 971.15 370.58 966.18V966.04H478.78L478.71 966.25C475.23 979.09 471.04 995.62 469.55 1010.24 467.92 1025.92 469.55 1036.28 474.59 1041.81 481.54 1049.47 489.56 1054.51 497.29 1059.4L498.22 1059.97C507.51 1065.72 517.09 1071.61 522.55 1081.47V1081.68H383.07L383 1081.61Z" fill="#ff4f32" opacity="1" stroke-width="4" stroke="none"></path><path d="M470.26 1033.77L455.15 1038.69" stroke="#000000" stroke-width="4" stroke-linecap="round" stroke-linejoin="round" opacity="1" fill="none"></path><path d="M475.63 1043.53L462.81 1053.09" stroke="#000000" stroke-width="4" stroke-linecap="round" stroke-linejoin="round" opacity="1" fill="none"></path><path d="M536.24 1081.61L536.17 1081.47C532.13 1062.74 526.67 1030.46 524.11 983.42 523.83 978.1 523.69 972.85 523.54 967.81L523.47 966.04H624.72V966.18C618.19 1008.75 619.11 1032.02 627.84 1041.67 635.07 1049.61 643.59 1054.79 651.89 1059.83L652.31 1060.11C662.18 1066.07 671.26 1071.75 676.72 1081.47L676.79 1081.75 536.24 1081.61Z" fill="#ff4f32" opacity="1" stroke-width="4" stroke="none"></path><path d="M620.91 1021.51L605.71 1026.98" stroke="#000000" stroke-width="4" stroke-linecap="round" stroke-linejoin="round" opacity="1" fill="none"></path><path d="M623.84 1035.37L611.8 1043.16" stroke="#000000" stroke-width="4" stroke-linecap="round" stroke-linejoin="round" opacity="1" fill="none"></path><path d="M540.72 1098.99C540.72 1098.99 538.66 1093.18 536.18 1081.47H676.73C679.64 1086.65 681.13 1092.39 681.62 1098.99H540.72Z" fill="#ffc930" stroke-linejoin="round" opacity="1" stroke-width="4" stroke="none"></path><path d="M387.47 1099.21C387.47 1099.21 383.93 1086.15 382.93 1081.54V1081.4H522.49L522.56 1081.47C525.25 1086.44 526.74 1092.25 527.24 1099.13V1099.28L387.47 1099.21Z" fill="#ffc930" stroke-linejoin="round" opacity="1" stroke-width="4" stroke="none"></path></g></svg>